<svg width="676" height="490" viewBox="0 0 676 490" fill="none" xmlns="http://www.w3.org/2000/svg">
<g id="branstorming" clip-path="url(#clip0_13_545)">
<g id="Vector">
<path d="M135.448 464.693C134.399 472.925 131.061 480.587 127.111 487.965C126.755 488.647 126.389 489.328 126.012 490H60.4002C59.0568 489.379 57.7333 488.697 56.4406 487.965C54.7269 486.991 53.0656 485.928 51.4635 484.78C32.1136 470.849 24.663 444.504 28.0322 420.906C30.1186 406.232 36.5514 391.263 49.0918 383.367C55.899 379.223 64.0205 377.802 71.8308 379.388C72.0242 379.418 72.2279 379.469 72.4312 379.51C75.6819 380.137 78.763 381.445 81.4717 383.348C84.1805 385.251 86.4557 387.706 88.1475 390.551C94.122 401.164 90.5699 414.312 87.6282 426.126C84.6968 437.94 83.1089 452.085 91.6181 460.795C90.3719 457.152 90.1183 453.243 90.8836 449.47C91.6489 445.696 93.4054 442.195 95.9725 439.324C98.5397 436.454 101.825 434.319 105.491 433.139C109.157 431.959 113.071 431.775 116.831 432.608C117.452 432.74 118.052 432.893 118.653 433.076C120.098 433.493 121.492 434.073 122.806 434.806C132.832 440.403 136.893 453.306 135.448 464.693Z" fill="#F2F2F2"/>
<path d="M89.4199 487.965C91.0382 488.708 92.6835 489.386 94.3561 490H89.6942C88.2797 489.369 86.8851 488.697 85.5109 487.965C78.7863 484.491 72.8102 479.73 67.9223 473.953C64.9317 470.386 62.4891 466.394 60.675 462.108C58.7046 457.262 57.453 452.154 56.9599 446.946C56.0559 436.184 56.7765 425.347 59.0975 414.8C61.2747 403.925 64.7963 393.363 69.5814 383.356C70.1514 382.156 70.7518 380.965 71.3626 379.785C71.4041 379.687 71.4681 379.599 71.5494 379.531C71.6307 379.462 71.7272 379.413 71.8308 379.388C71.9339 379.365 72.0405 379.365 72.1439 379.386C72.2472 379.407 72.3451 379.449 72.4312 379.51C72.6435 379.63 72.8013 379.827 72.8715 380.06C72.9417 380.293 72.919 380.545 72.808 380.762C67.8725 390.373 64.1362 400.554 61.683 411.076C59.1453 421.39 58.0322 432.004 58.3749 442.621C58.8123 452.471 61.3878 462.169 67.2405 470.228C72.6865 477.554 79.848 483.431 88.0964 487.344C88.5343 487.558 88.9716 487.761 89.4199 487.965Z" fill="white"/>
<path d="M117.075 487.965C117.523 488.657 118.001 489.339 118.521 490H116.353C115.874 489.339 115.426 488.657 114.988 487.965C111.602 482.625 109.257 476.694 108.077 470.483C106.184 460.175 107.661 449.531 112.291 440.128C113.58 437.493 115.099 434.976 116.831 432.608C117.452 432.74 118.052 432.893 118.653 433.076C114.093 439.113 111.027 446.142 109.706 453.591C108.021 463.395 109.478 473.481 113.869 482.409C114.804 484.335 115.875 486.191 117.075 487.965Z" fill="white"/>
<path d="M674.736 30.8045H461.052C460.717 30.8045 460.395 30.6713 460.158 30.4343C459.921 30.1972 459.788 29.8757 459.788 29.5405C459.788 29.2052 459.921 28.8837 460.158 28.6466C460.395 28.4096 460.717 28.2764 461.052 28.2764H674.736C675.071 28.2764 675.393 28.4096 675.63 28.6466C675.867 28.8837 676 29.2052 676 29.5405C676 29.8757 675.867 30.1972 675.63 30.4343C675.393 30.6713 675.071 30.8045 674.736 30.8045Z" fill="#3F3D56"/>
<path d="M605.194 10.1124H533.123C531.782 10.1124 530.495 9.57973 529.547 8.6315C528.598 7.68328 528.065 6.39721 528.065 5.05622C528.065 3.71522 528.598 2.42915 529.547 1.48093C530.495 0.532703 531.782 0 533.123 0H605.194C606.535 0 607.821 0.532703 608.77 1.48093C609.718 2.42915 610.251 3.71522 610.251 5.05622C610.251 6.39721 609.718 7.68328 608.77 8.6315C607.821 9.57973 606.535 10.1124 605.194 10.1124Z" fill="#CCCCCC"/>
<path d="M529.792 250.149C529.276 249.498 528.916 248.737 528.74 247.926C528.563 247.114 528.573 246.273 528.771 245.466C533.486 225.718 533.486 205.139 528.77 185.391C528.573 184.585 528.563 183.743 528.74 182.932C528.917 182.12 529.276 181.36 529.792 180.708C530.296 180.065 530.94 179.546 531.675 179.19C532.41 178.834 533.217 178.65 534.034 178.653H584.448C585.737 178.655 586.982 179.115 587.963 179.95C588.944 180.784 589.597 181.94 589.806 183.211C593.094 204.564 593.094 226.294 589.806 247.646C589.597 248.917 588.944 250.073 587.963 250.908C586.982 251.742 585.737 252.202 584.448 252.204H534.034C533.217 252.207 532.41 252.023 531.675 251.667C530.94 251.311 530.296 250.792 529.792 250.149Z" fill="#E6E6E6"/>
<path d="M598.614 163.46C595.325 142.108 595.325 120.378 598.614 99.0248C598.822 97.754 599.475 96.5983 600.456 95.7636C601.437 94.9289 602.682 94.4695 603.971 94.467H654.385C655.202 94.4644 656.009 94.6482 656.744 95.0045C657.479 95.3607 658.124 95.88 658.628 96.5227C659.143 97.1742 659.503 97.9346 659.68 98.7461C659.856 99.5576 659.846 100.399 659.649 101.205C654.933 120.953 654.932 141.532 659.648 161.28C659.846 162.087 659.856 162.928 659.68 163.739C659.503 164.551 659.143 165.311 658.628 165.963C658.124 166.605 657.479 167.125 656.744 167.481C656.009 167.837 655.202 168.021 654.385 168.018H603.971C602.682 168.016 601.437 167.556 600.456 166.722C599.475 165.887 598.822 164.731 598.614 163.46Z" fill="#2B234A"/>
<path d="M484.74 144.363C484.217 143.701 483.851 142.928 483.671 142.103C483.491 141.278 483.502 140.423 483.703 139.603C488.496 119.531 488.496 98.6129 483.702 78.5413C483.502 77.7211 483.491 76.8661 483.671 76.0412C483.851 75.2162 484.217 74.4432 484.74 73.7809C485.253 73.1278 485.908 72.6002 486.655 72.2383C487.402 71.8764 488.222 71.6896 489.053 71.6922H540.295C541.605 71.6947 542.871 72.1617 543.868 73.0101C544.865 73.8584 545.529 75.0331 545.741 76.3249C549.083 98.0284 549.083 120.116 545.741 141.819C545.529 143.111 544.865 144.286 543.868 145.134C542.871 145.982 541.605 146.449 540.295 146.452H489.053C488.222 146.454 487.402 146.268 486.655 145.906C485.908 145.544 485.253 145.016 484.74 144.363Z" fill="#2B234A"/>
<path d="M530.407 99.2761H503.413C502.407 99.275 501.443 98.8751 500.732 98.1642C500.021 97.4533 499.621 96.4893 499.619 95.4839V93.8736C499.621 92.8682 500.021 91.9043 500.732 91.1934C501.443 90.4824 502.407 90.0826 503.413 90.0815H530.407C531.412 90.0826 532.377 90.4824 533.088 91.1934C533.799 91.9043 534.199 92.8682 534.2 93.8736V95.4839C534.199 96.4893 533.799 97.4533 533.088 98.1642C532.377 98.8751 531.412 99.275 530.407 99.2761Z" fill="white"/>
<path d="M530.407 115.137H503.413C502.407 115.136 501.443 114.736 500.732 114.025C500.021 113.314 499.621 112.35 499.619 111.344V109.734C499.621 108.729 500.021 107.765 500.732 107.054C501.443 106.343 502.407 105.943 503.413 105.942H530.407C531.412 105.943 532.377 106.343 533.088 107.054C533.799 107.765 534.199 108.729 534.2 109.734V111.344C534.199 112.35 533.799 113.314 533.088 114.025C532.377 114.736 531.412 115.136 530.407 115.137Z" fill="white"/>
<path d="M574.079 203.209H547.624C546.618 203.208 545.654 202.808 544.943 202.097C544.232 201.386 543.832 200.422 543.831 199.417V197.935C543.832 196.929 544.232 195.965 544.943 195.254C545.654 194.543 546.618 194.144 547.624 194.142H574.079C575.085 194.144 576.049 194.543 576.76 195.254C577.471 195.965 577.871 196.929 577.872 197.935V199.417C577.871 200.422 577.471 201.386 576.76 202.097C576.049 202.808 575.085 203.208 574.079 203.209Z" fill="white"/>
<path d="M574.079 221.934H547.624C546.618 221.933 545.654 221.533 544.943 220.822C544.232 220.111 543.832 219.147 543.831 218.142V216.66C543.832 215.654 544.232 214.69 544.943 213.979C545.654 213.268 546.618 212.869 547.624 212.867H574.079C575.085 212.869 576.049 213.268 576.76 213.979C577.471 214.69 577.871 215.654 577.872 216.66V218.142C577.871 219.147 577.471 220.111 576.76 220.822C576.049 221.533 575.085 221.933 574.079 221.934Z" fill="white"/>
<path d="M574.079 240.659H547.624C546.618 240.658 545.654 240.258 544.943 239.547C544.232 238.836 543.832 237.872 543.831 236.867V235.385C543.832 234.379 544.232 233.415 544.943 232.704C545.654 231.993 546.618 231.594 547.624 231.592H574.079C575.085 231.594 576.049 231.993 576.76 232.704C577.471 233.415 577.871 234.379 577.872 235.385V236.867C577.871 237.872 577.471 238.836 576.76 239.547C576.049 240.258 575.085 240.658 574.079 240.659Z" fill="white"/>
<path d="M639.792 127.22H613.336C612.33 127.219 611.366 126.819 610.655 126.108C609.944 125.398 609.544 124.434 609.543 123.428V121.946C609.544 120.941 609.944 119.977 610.655 119.266C611.366 118.555 612.33 118.155 613.336 118.154H639.792C640.797 118.155 641.762 118.555 642.473 119.266C643.184 119.977 643.584 120.941 643.585 121.946V123.428C643.584 124.434 643.184 125.398 642.473 126.108C641.762 126.819 640.797 127.219 639.792 127.22Z" fill="white"/>
<path d="M179.211 362.692V365.22C179.214 369.41 180.881 373.427 183.844 376.389C186.807 379.351 190.825 381.017 195.016 381.021H308.812C313.003 381.019 317.022 379.354 319.986 376.391C322.949 373.428 324.615 369.41 324.617 365.22V362.692C324.625 358.995 323.326 355.413 320.949 352.58C320.159 351.639 319.264 350.791 318.282 350.052C318.282 350.052 255.719 348.636 255.719 346.892H195.016C190.826 346.897 186.809 348.564 183.846 351.526C180.884 354.488 179.217 358.503 179.211 362.692Z" fill="#CCCCCC"/>
<path d="M261.047 380.393H244.61V486.574H261.047V380.393Z" fill="#CCCCCC"/>
<path d="M307.83 485.997C307.83 487.772 282.922 486.683 252.196 486.683C221.471 486.683 196.563 487.772 196.563 485.997C196.563 484.221 221.471 470.141 252.196 470.141C282.922 470.141 307.83 484.221 307.83 485.997Z" fill="#CCCCCC"/>
<path d="M285.231 360.548C286.418 358.956 287.241 357.124 287.642 355.179C288.044 353.235 288.014 351.227 287.555 349.295C287.096 347.364 286.219 345.556 284.986 344C283.753 342.444 282.193 341.178 280.418 340.289L245.58 221.613L219.052 234.602L261.638 347.173C260.343 350.254 260.223 353.704 261.302 356.867C262.381 360.031 264.584 362.689 267.492 364.337C270.4 365.986 273.812 366.511 277.082 365.812C280.351 365.114 283.251 363.241 285.231 360.548Z" fill="#A0616A"/>
<path d="M253.472 241.432L223.781 249.468C222.936 249.696 222.052 249.74 221.189 249.596C220.325 249.453 219.503 249.125 218.778 248.634C218.053 248.144 217.442 247.504 216.987 246.756C216.532 246.009 216.243 245.172 216.141 244.303L212.552 213.856C211.406 209.528 212.024 204.922 214.27 201.049C216.515 197.176 220.206 194.351 224.532 193.194C228.858 192.037 233.466 192.642 237.346 194.876C241.227 197.111 244.062 200.793 245.231 205.114L257.463 233.12C257.813 233.922 257.986 234.79 257.97 235.665C257.954 236.54 257.75 237.401 257.371 238.19C256.993 238.979 256.448 239.677 255.775 240.236C255.103 240.796 254.317 241.204 253.472 241.432Z" fill="#2B234A"/>
<path d="M292.992 473.551L308.492 473.55L315.867 433.358H292.989L292.992 473.551Z" fill="#A0616A"/>
<path d="M289.037 468.491L319.564 468.49C322.119 468.49 324.65 468.993 327.011 469.97C329.371 470.948 331.516 472.38 333.322 474.186C335.129 475.993 336.562 478.137 337.54 480.496C338.517 482.856 339.02 485.385 339.02 487.939V488.571L289.038 488.573L289.037 468.491Z" fill="#2F2E41"/>
<path d="M310.984 451.998C310.804 451.998 310.622 451.989 310.44 451.972L288.988 450.411C288.12 450.33 287.283 450.052 286.54 449.596C285.797 449.141 285.169 448.521 284.703 447.785C284.238 447.049 283.948 446.215 283.856 445.349C283.763 444.483 283.871 443.607 284.171 442.789L312.881 378.304C313.086 377.729 313.17 377.118 313.128 376.509C313.085 375.9 312.917 375.307 312.633 374.766C312.351 374.219 311.955 373.738 311.473 373.355C310.992 372.971 310.434 372.694 309.837 372.542C296.337 369.014 261.699 359.62 231.715 348.628C218.869 343.919 210.778 337.114 207.667 328.401C203.567 316.915 209.633 306.439 209.893 306L210.097 305.655L238.311 308.219L268.899 310.82L335.929 346.754C341.546 349.791 345.812 354.831 347.878 360.871C349.945 366.911 349.659 373.508 347.079 379.347L316.176 448.627C315.729 449.63 315.001 450.483 314.079 451.081C313.158 451.679 312.083 451.998 310.984 451.998Z" fill="#2F2E41"/>
<path d="M243.217 180.64C260.369 180.64 274.272 166.74 274.272 149.593C274.272 132.447 260.369 118.547 243.217 118.547C226.066 118.547 212.163 132.447 212.163 149.593C212.163 166.74 226.066 180.64 243.217 180.64Z" fill="#A0616A"/>
<path d="M284.141 472.287L299.641 472.286L307.016 432.094H284.138L284.141 472.287Z" fill="#A0616A"/>
<path d="M280.186 467.228L310.714 467.226C313.269 467.226 315.8 467.729 318.16 468.707C320.52 469.684 322.665 471.117 324.472 472.923C326.278 474.729 327.711 476.873 328.689 479.232C329.666 481.592 330.17 484.121 330.17 486.675V487.307L280.187 487.309L280.186 467.228Z" fill="#2F2E41"/>
<path d="M302.133 455.79C301.953 455.79 301.772 455.782 301.59 455.764L280.137 454.203C279.269 454.122 278.432 453.844 277.689 453.389C276.946 452.933 276.318 452.314 275.853 451.577C275.387 450.841 275.097 450.008 275.005 449.141C274.913 448.275 275.021 447.399 275.321 446.582L304.031 382.096C304.236 381.521 304.32 380.91 304.277 380.301C304.234 379.693 304.066 379.099 303.782 378.558C303.5 378.011 303.105 377.53 302.623 377.147C302.141 376.764 301.583 376.487 300.987 376.334C287.486 372.806 252.849 363.412 222.864 352.421C210.018 347.711 201.927 340.906 198.817 332.193C194.716 320.707 200.782 310.232 201.043 309.792L201.246 309.448L229.461 312.012L260.048 314.613L327.078 350.547C332.695 353.583 336.961 358.624 339.027 364.664C341.094 370.704 340.809 377.3 338.228 383.139L307.325 452.419C306.878 453.422 306.15 454.275 305.229 454.873C304.307 455.471 303.232 455.79 302.133 455.79Z" fill="#2F2E41"/>
<path d="M252.795 198.244L219.921 186.868C219.921 186.868 199.283 202.719 209.197 242.042C214.373 262.334 212.865 283.754 204.898 303.121C203.939 305.518 202.833 307.853 201.587 310.113C201.587 310.113 238.255 354.355 272.393 321.49L259.117 257.655C259.117 257.655 279.98 215.309 252.795 198.244Z" fill="#2B234A"/>
<path d="M247.073 181.696C242.653 175.082 239.165 165.911 244.031 159.618C248.835 153.406 258.309 154.321 265.666 151.572C275.913 147.744 281.856 135.709 280.002 124.932C278.149 114.154 269.495 105.219 259.185 101.564C248.875 97.9082 237.25 99.0971 227.154 103.307C214.726 108.489 204.064 118.514 199.594 131.212C195.123 143.911 197.513 159.158 206.787 168.919C216.73 179.383 232.335 182.172 246.771 182.002" fill="#2F2E41"/>
<path d="M272.016 247.455L245.275 262.652C244.514 263.084 243.669 263.348 242.797 263.424C241.925 263.5 241.047 263.388 240.222 263.095C239.398 262.801 238.646 262.333 238.019 261.723C237.391 261.113 236.903 260.375 236.586 259.56L225.502 230.974C223.313 227.069 222.761 222.456 223.968 218.146C225.174 213.835 228.042 210.179 231.941 207.979C235.839 205.778 240.452 205.213 244.767 206.406C249.082 207.6 252.748 210.456 254.961 214.347L273.803 238.41C274.343 239.099 274.727 239.896 274.93 240.747C275.134 241.598 275.151 242.483 274.982 243.342C274.812 244.2 274.459 245.012 273.948 245.722C273.436 246.432 272.777 247.023 272.016 247.455Z" fill="#2B234A"/>
<path d="M484.265 487.472C484.265 487.638 484.233 487.803 484.17 487.957C484.106 488.11 484.013 488.25 483.896 488.367C483.778 488.485 483.639 488.578 483.485 488.641C483.331 488.704 483.167 488.737 483 488.736H1.2644C0.929059 488.736 0.607434 488.603 0.370314 488.366C0.133193 488.129 0 487.807 0 487.472C0 487.137 0.133193 486.815 0.370314 486.578C0.607434 486.341 0.929059 486.208 1.2644 486.208H483C483.167 486.207 483.331 486.24 483.485 486.303C483.639 486.366 483.778 486.46 483.896 486.577C484.013 486.694 484.106 486.834 484.17 486.988C484.233 487.141 484.265 487.306 484.265 487.472Z" fill="#3F3D56"/>
<path d="M218.185 125.277C212.616 129.81 204.119 127.797 198.14 123.819C192.162 119.841 187.311 114.176 180.842 111.057C169.438 105.559 155.65 109.214 144.552 115.305C133.453 121.395 123.614 129.81 111.891 134.589C100.167 139.369 85.2068 139.605 76.3295 130.58C74.1449 136.908 73.9664 143.755 75.8182 150.188C77.67 156.621 81.4619 162.326 86.6767 166.525C91.8915 170.724 98.275 173.212 104.956 173.649C111.638 174.087 118.292 172.454 124.01 168.971C136.856 161.149 143.951 144.747 158.359 140.43C166.331 138.041 174.892 139.965 182.95 142.049C191.008 144.133 199.41 146.385 207.542 144.611C215.673 142.837 223.28 135.531 222.245 127.275L218.185 125.277Z" fill="#2F2E41"/>
</g>
<g id="Memo">
<path d="M319.279 415.285C315.99 393.933 315.99 372.203 319.279 350.85C319.487 349.579 320.14 348.423 321.121 347.589C322.102 346.754 323.348 346.295 324.636 346.292H375.051C375.868 346.289 376.674 346.473 377.41 346.83C378.145 347.186 378.789 347.705 379.293 348.348C379.808 348.999 380.168 349.76 380.345 350.571C380.522 351.383 380.511 352.224 380.314 353.03C375.598 372.778 375.598 393.357 380.314 413.105C380.511 413.912 380.522 414.753 380.345 415.564C380.168 416.376 379.808 417.136 379.293 417.788C378.789 418.43 378.145 418.95 377.41 419.306C376.674 419.662 375.868 419.846 375.051 419.843H324.636C323.348 419.841 322.102 419.381 321.121 418.547C320.14 417.712 319.487 416.556 319.279 415.285Z" fill="#5667EA"/>
<path d="M359.537 377.485H333.081C332.075 377.483 331.111 377.084 330.4 376.373C329.689 375.662 329.289 374.698 329.288 373.692V372.211C329.289 371.206 329.689 370.242 330.4 369.531C331.111 368.82 332.075 368.42 333.081 368.419H359.537C360.542 368.42 361.506 368.82 362.218 369.531C362.929 370.242 363.329 371.206 363.33 372.211V373.692C363.329 374.698 362.929 375.662 362.218 376.373C361.506 377.084 360.542 377.483 359.537 377.485Z" fill="white"/>
<path d="M359.537 393.089H333.081C332.075 393.088 331.111 392.688 330.4 391.977C329.689 391.266 329.289 390.302 329.288 389.297V387.815C329.289 386.809 329.689 385.845 330.4 385.134C331.111 384.423 332.075 384.024 333.081 384.022H359.537C360.542 384.024 361.506 384.423 362.218 385.134C362.929 385.845 363.329 386.809 363.33 387.815V389.297C363.329 390.302 362.929 391.266 362.218 391.977C361.506 392.688 360.542 393.088 359.537 393.089Z" fill="white"/>
</g>
<path id="Arm" d="M332.536 354.861C333.287 353.023 333.626 351.043 333.529 349.06C333.432 347.077 332.901 345.14 331.974 343.384C331.047 341.629 329.746 340.098 328.164 338.899C326.581 337.7 324.754 336.863 322.812 336.447L259.421 230.236L236.98 249.439L306.348 347.802C305.864 351.11 306.611 354.479 308.446 357.273C310.282 360.067 313.078 362.09 316.306 362.96C319.534 363.83 322.97 363.486 325.961 361.993C328.952 360.501 331.292 357.963 332.536 354.861Z" fill="#A0616A"/>
</g>
<defs>
<clipPath id="clip0_13_545">
<rect width="676" height="490" fill="white"/>
</clipPath>
</defs>
</svg>
