<svg width="current" height="current" viewBox="0 0 244 324" fill="none" xmlns="http://www.w3.org/2000/svg">
<g clip-path="url(#clip0_19_328)">
<path d="M241.099 0H128.546V129.061H241.099V0Z" fill="#E6E6E6"/>
<path d="M106.662 117.019C109.837 113.791 114.077 112.811 116.133 114.83C118.189 116.849 117.281 121.101 114.105 124.33C112.854 125.637 111.307 126.626 109.595 127.213L95.9704 140.719L89.7622 134.197L103.853 121.575C104.412 119.854 105.375 118.292 106.662 117.019Z" fill="#FFB6B6"/>
<path d="M63.0867 105.87L77.3723 137.53L100.184 125.194L108.348 129.523C108.348 129.523 89.6999 160.668 76.9315 157.123C64.1631 153.577 41.4897 121.429 45.5749 111.508C49.66 101.586 63.0867 105.87 63.0867 105.87Z" fill="#E6E6E6"/>
<path d="M99.2118 154.734H97.2544V160.601H99.2118V154.734Z" fill="#3F3D56"/>
<path d="M99.2118 143.44H97.2544V132.145H99.2118V143.44ZM99.2118 120.849H97.2544V109.554H99.2118V120.849ZM99.2118 98.2592H97.2544V86.9637H99.2118V98.2592ZM99.2118 75.6687H97.2544V64.3732H99.2118V75.6687ZM99.2118 53.0782H97.2544V41.7832H99.2118V53.0782Z" fill="#3F3D56"/>
<path d="M99.2118 30.488H97.2544V23.6436H104.105V25.599H99.2118V30.488Z" fill="#3F3D56"/>
<path d="M190.238 25.599H179.471V23.6436H190.238L190.238 25.599ZM168.705 25.599H157.939V23.6436H168.705V25.599ZM147.172 25.599H136.405V23.6436H147.172L147.172 25.599ZM125.639 25.599H114.873V23.6436H125.639V25.599Z" fill="#3F3D56"/>
<path d="M206.876 23.6436H201.004V25.599H206.876V23.6436Z" fill="#3F3D56"/>
<path d="M171.714 268.806C171.204 267.947 168.998 268.867 168.593 268.088C168.188 267.311 170.238 266.127 171.409 263.424C171.62 262.936 172.951 259.864 171.966 258.916C170.098 257.119 161.554 264.535 158.563 262.108C157.907 261.575 157.449 260.512 155.463 258.786C154.672 258.099 154.195 257.789 153.732 257.904C153.076 258.068 153.024 258.945 152.321 260.67C151.265 263.257 150.641 263.101 150.027 265.165C149.57 266.697 149.674 267.587 149.137 267.761C148.378 268.006 147.678 266.381 146.715 266.527C145.732 266.675 145.138 268.567 144.95 269.984C144.598 272.643 145.575 274.397 146.117 276.241C146.706 278.246 147.055 281.294 145.696 285.61L132.241 323.48C135.212 315.709 143.812 294.407 147.426 286.491C148.469 284.206 149.621 281.888 151.987 280.973C154.264 280.093 157.391 280.619 161.378 279.659C161.844 279.547 163.136 279.218 163.299 278.459C163.433 277.831 162.673 277.481 162.79 276.893C162.947 276.105 164.441 276.095 166.278 275.185C167.315 274.652 168.259 273.957 169.074 273.124C169.283 272.927 172.393 269.95 171.714 268.806Z" fill="#F2F2F2"/>
<path d="M118.78 288.743C118.21 288.745 118.026 290.092 117.526 290.066C117.028 290.04 117.037 288.694 116.047 287.339C115.868 287.095 114.743 285.556 113.993 285.766C112.571 286.163 113.749 292.492 111.694 293.258C110.842 293.397 109.998 293.585 109.167 293.82C108.602 294.009 108.312 294.154 108.235 294.414C108.126 294.783 108.542 295.061 109.187 295.904C110.153 297.168 109.896 297.429 110.733 298.326C111.354 298.991 111.821 299.197 111.752 299.511C111.653 299.954 110.653 299.828 110.447 300.342C110.236 300.867 110.994 301.704 111.636 302.205C112.84 303.145 113.984 303.172 115.047 303.438C116.802 303.93 118.365 304.945 119.528 306.348L134.252 323.872C131.291 320.173 123.307 309.81 120.46 305.754C119.639 304.583 118.832 303.35 119.065 301.926C119.29 300.555 120.45 299.174 121.129 296.942C121.209 296.681 121.42 295.953 121.094 295.654C120.824 295.407 120.433 295.679 120.178 295.452C119.835 295.147 120.262 294.412 120.345 293.249C120.382 292.587 120.313 291.923 120.139 291.283C120.102 291.123 119.537 288.74 118.78 288.743Z" fill="#F2F2F2"/>
<path d="M130.134 291.289L129.791 288.231L129.948 287.999C130.615 287.094 130.998 286.01 131.047 284.887C131.047 284.729 131.04 284.571 131.033 284.41C130.948 283.608 131.067 282.798 131.38 282.055C131.612 281.539 132.264 280.346 133.244 280.494C133.475 280.527 133.69 280.632 133.858 280.794C133.881 280.758 133.904 280.723 133.928 280.684C134.136 280.356 134.4 280.066 134.708 279.828C134.951 279.635 135.17 279.413 135.361 279.168C135.488 279.01 135.587 278.871 135.671 278.755C135.784 278.538 135.951 278.354 136.155 278.22C136.36 278.086 136.595 278.006 136.839 277.988C137.092 278.027 137.331 278.128 137.535 278.283C137.739 278.438 137.901 278.641 138.006 278.874C138.277 279.296 138.504 279.744 138.683 280.212C138.716 280.302 138.754 280.39 138.798 280.475C138.999 280.77 140.633 280.494 141.249 280.394C142.631 280.163 143.828 279.964 144.321 280.835C144.674 281.458 144.411 282.282 143.517 283.35C143.269 283.642 142.988 283.904 142.679 284.132C142.801 284.2 142.907 284.292 142.992 284.403C143.076 284.513 143.137 284.64 143.171 284.774C143.358 285.516 142.72 286.258 141.277 286.985C140.803 287.244 140.291 287.427 139.759 287.525C139.478 287.571 139.194 287.596 138.909 287.6C138.904 287.759 138.861 287.915 138.784 288.054C138.615 288.305 138.374 288.499 138.093 288.612C137.812 288.725 137.504 288.751 137.208 288.687C136.455 288.636 135.708 288.516 134.977 288.328C134.518 288.197 134.045 288.126 133.568 288.119C132.872 288.175 132.335 288.731 131.706 289.454L130.134 291.289Z" fill="#F2F2F2"/>
<path d="M131.724 273.082L128.85 274.189L128.586 274.097C127.54 273.681 126.394 273.586 125.294 273.824C125.141 273.864 124.99 273.911 124.836 273.959C124.081 274.244 123.266 274.334 122.467 274.221C121.909 274.127 120.589 273.8 120.483 272.816C120.456 272.584 120.503 272.349 120.617 272.145C120.578 272.133 120.537 272.12 120.494 272.106C120.123 271.988 119.776 271.806 119.467 271.57C119.218 271.384 118.948 271.228 118.662 271.106C118.477 271.023 118.318 270.963 118.183 270.912C117.945 270.857 117.725 270.742 117.543 270.579C117.361 270.415 117.224 270.208 117.145 269.977C117.118 269.723 117.156 269.466 117.254 269.229C117.352 268.993 117.508 268.785 117.707 268.625C118.047 268.256 118.423 267.923 118.83 267.63C118.909 267.576 118.984 267.517 119.056 267.453C119.291 267.184 118.609 265.675 118.356 265.106C117.782 263.828 117.285 262.722 118.004 262.025C118.518 261.526 119.382 261.57 120.642 262.164C120.988 262.329 121.314 262.535 121.613 262.775C121.648 262.64 121.71 262.514 121.795 262.404C121.881 262.295 121.988 262.203 122.11 262.136C122.78 261.768 123.661 262.196 124.731 263.407C125.102 263.799 125.408 264.247 125.639 264.736C125.754 264.996 125.85 265.264 125.927 265.539C126.082 265.503 126.244 265.505 126.398 265.544C126.913 265.671 127.261 266.125 127.411 266.907C127.552 267.648 127.626 268.4 127.63 269.154C127.618 269.63 127.67 270.105 127.784 270.568C128.015 271.226 128.69 271.604 129.549 272.029L131.724 273.082Z" fill="#F2F2F2"/>
<path d="M130.134 264.074L129.791 261.016L129.948 260.784C130.615 259.879 130.998 258.795 131.047 257.672C131.047 257.514 131.04 257.356 131.033 257.195C130.948 256.393 131.067 255.583 131.38 254.84C131.612 254.325 132.264 253.131 133.244 253.279C133.475 253.312 133.69 253.417 133.858 253.579C133.881 253.543 133.904 253.508 133.928 253.47C134.136 253.141 134.4 252.852 134.708 252.613C134.951 252.42 135.17 252.198 135.361 251.953C135.488 251.795 135.587 251.656 135.671 251.54C135.784 251.323 135.951 251.139 136.155 251.005C136.36 250.871 136.595 250.791 136.839 250.773C137.092 250.812 137.331 250.913 137.535 251.068C137.739 251.223 137.901 251.426 138.006 251.659C138.277 252.081 138.504 252.529 138.683 252.997C138.716 253.087 138.754 253.175 138.798 253.26C138.999 253.555 140.633 253.279 141.249 253.179C142.631 252.948 143.828 252.749 144.321 253.62C144.674 254.243 144.411 255.067 143.517 256.135C143.269 256.427 142.988 256.689 142.679 256.917C142.801 256.985 142.907 257.077 142.992 257.188C143.076 257.298 143.137 257.425 143.171 257.56C143.358 258.301 142.72 259.043 141.277 259.77C140.803 260.029 140.291 260.212 139.759 260.31C139.478 260.356 139.194 260.381 138.909 260.386C138.904 260.544 138.861 260.7 138.784 260.839C138.615 261.09 138.374 261.284 138.093 261.397C137.812 261.51 137.504 261.536 137.208 261.472C136.455 261.421 135.708 261.301 134.977 261.114C134.518 260.982 134.045 260.911 133.568 260.904C132.872 260.96 132.335 261.517 131.706 262.239L130.134 264.074Z" fill="#F2F2F2"/>
<path d="M133.266 323.43L132.624 323.028L131.876 323.114C131.865 323.045 131.824 322.885 131.763 322.636C130.796 318.654 130.059 314.62 129.556 310.555C128.957 305.917 128.624 301.25 128.556 296.575C128.487 291.865 128.71 288.299 128.889 285.433C129.024 283.271 129.188 281.213 129.349 279.208C129.778 273.851 130.182 268.791 129.881 263.189C129.829 260.877 129.238 258.609 128.153 256.565C127.242 254.926 126.013 253.485 124.537 252.328L125.48 251.144C127.112 252.427 128.472 254.024 129.48 255.839C130.678 258.08 131.333 260.57 131.393 263.109C131.699 268.81 131.29 273.919 130.857 279.327C130.698 281.325 130.534 283.375 130.399 285.527C130.222 288.367 130.001 291.902 130.07 296.551C130.136 301.169 130.465 305.779 131.056 310.36C131.552 314.37 132.279 318.348 133.233 322.275C133.409 322.994 133.446 323.145 133.266 323.43Z" fill="#F2F2F2"/>
<path d="M121.761 254.73C121.699 254.73 121.636 254.729 121.572 254.724C120.283 254.655 119.09 253.884 118.024 252.434C117.525 251.752 117.269 250.974 116.759 249.422C116.439 248.403 116.206 247.358 116.062 246.299C115.909 245.208 115.928 244.752 116.145 244.349C116.387 243.919 116.761 243.578 117.211 243.376C117.191 243.225 117.211 243.071 117.271 242.93C117.528 242.299 118.214 242.382 118.585 242.422C118.808 242.456 119.034 242.47 119.26 242.463C119.594 242.442 119.916 242.334 120.195 242.149C120.587 241.915 121.014 241.747 121.461 241.651C122.257 241.499 123.079 241.565 123.842 241.84C125.479 242.385 126.286 243.656 127.22 245.128C127.762 246.016 128.181 246.972 128.467 247.972C128.703 248.572 128.762 249.227 128.637 249.859C128.451 250.581 128.011 250.995 126.895 251.907C126.184 252.534 125.431 253.11 124.641 253.632C123.471 254.307 122.736 254.73 121.761 254.73Z" fill="#F2F2F2"/>
<path d="M244 322.793H0V324H244V322.793Z" fill="#3F3D56"/>
<path d="M56.8232 316.869L67.2397 316.868L72.1946 276.73L56.8208 276.731L56.8232 316.869Z" fill="#FFB6B6"/>
<path d="M92.5109 316.633C92.8352 317.179 93.0064 318.94 93.0064 319.575C93.0064 320.038 92.9149 320.498 92.7372 320.926C92.5596 321.355 92.2992 321.744 91.9709 322.072C91.6426 322.4 91.2528 322.66 90.8239 322.838C90.395 323.015 89.9352 323.106 89.471 323.106H57.2124C56.8957 323.106 56.5821 323.044 56.2894 322.923C55.9968 322.802 55.7309 322.624 55.507 322.401C55.283 322.177 55.1054 321.911 54.9841 321.619C54.8629 321.327 54.8006 321.013 54.8006 320.697V319.355C54.8006 319.355 53.2048 315.323 56.4902 310.353C56.4902 310.353 60.5736 314.244 66.6753 308.149L68.4746 304.893L81.4992 314.409L88.7186 315.296C90.298 315.49 91.6985 315.266 92.5109 316.633Z" fill="#2F2E41"/>
<path d="M64.7053 107.902L64.9154 93.8665L56.2516 88.4707L46.8311 99.9833L64.7053 107.902Z" fill="#FFB6B6"/>
<path opacity="0.1" d="M64.7051 107.902L65.2656 94.2158L56.2515 88.4707L59.3141 105.407L64.7051 107.902Z" fill="black"/>
<path d="M64.732 98.2337C73.2418 98.2337 80.1403 91.3422 80.1403 82.841C80.1403 74.3398 73.2418 67.4482 64.732 67.4482C56.2222 67.4482 49.3237 74.3398 49.3237 82.841C49.3237 91.3422 56.2222 98.2337 64.732 98.2337Z" fill="#FFB6B6"/>
<path d="M85.7456 200.709L71.3921 298.284H53.3837L55.7783 242.586L57.0386 213.299L53.3837 199.359C52.2232 197.138 51.1979 194.849 50.3135 192.504C48.7311 188.265 47.4813 183.184 49.3367 180.774C50.0194 179.886 51.7943 179.228 54.2064 178.739C55.8736 178.415 57.5562 178.176 59.2477 178.022C69.8972 176.969 85.0454 177.627 85.0454 177.627L85.4305 190.322L85.6441 197.411L85.7456 200.709Z" fill="#2F2E41"/>
<path d="M38.4741 312.097L48.7795 313.61L59.5264 274.619L44.3162 272.386L38.4741 312.097Z" fill="#FFB6B6"/>
<path d="M73.8168 317.049C74.0582 317.636 73.9711 319.403 73.8787 320.031C73.8112 320.49 73.6538 320.931 73.4157 321.329C73.1775 321.727 72.8632 322.075 72.4906 322.351C72.1181 322.628 71.6946 322.829 71.2444 322.942C70.7941 323.055 70.326 323.079 69.8667 323.012L37.9512 318.324C37.3183 318.231 36.7483 317.891 36.3666 317.378C35.9849 316.865 35.8228 316.222 35.9158 315.59L36.1111 314.262C36.1111 314.262 35.1194 310.041 39.0937 305.601C39.0937 305.601 42.567 310.045 49.4913 304.901L51.7456 301.94L63.2461 313.248L70.2594 315.175C71.7938 315.597 73.212 315.578 73.8168 317.049Z" fill="#2F2E41"/>
<path d="M85.9716 184.436L84.0029 201.374L73.2665 237.066L55.5927 295.827L37.7778 293.211L53.7665 209.662L52.1833 195.335C52.1833 195.335 51.6678 193.911 51.0768 191.827C49.9037 187.702 48.4324 180.985 50.0511 177.559C50.2529 177.112 50.535 176.707 50.8834 176.362C51.5201 175.745 52.814 175.371 54.5477 175.172C61.7938 174.354 76.7169 176.694 83.3572 177.842L85.9716 184.436Z" fill="#2F2E41"/>
<path d="M48.8116 97.0137L66.3159 105.407C66.3159 105.407 84.8704 160.315 84.8704 163.113C84.8704 165.911 90.1216 167.66 86.9709 170.807C83.8201 173.955 92.8353 176.62 87.9776 179.135C83.1199 181.649 52.8169 195.401 49.4474 194.161C40.154 190.741 49.8412 178.172 49.8412 178.172C49.8412 178.172 42.8602 172.556 43.9104 169.758C44.9607 166.96 37.6089 113.451 37.6089 113.451L48.8116 97.0137Z" fill="#E6E6E6"/>
<path d="M63.791 86.5279L65.7728 90.4876C65.7728 90.4876 67.7546 83.3602 70.9255 81.7763C74.0964 80.1925 74.4928 77.8167 74.4928 77.8167C74.4928 77.8167 78.4564 82.9642 81.231 81.7763C84.0055 80.5884 85.1946 79.7965 82.0237 75.0449C78.8528 70.2934 79.6455 72.6691 79.6455 72.6691C79.6455 72.6691 76.871 68.7095 77.2673 69.8974C77.6637 71.0853 74.8891 66.7297 74.8891 67.9176C74.8891 69.1055 72.9073 65.5418 72.9073 66.7297C72.9073 67.9176 64.5837 63.9579 65.7728 65.5418C66.9619 67.1257 58.6382 62.3741 54.6746 68.7095C50.7109 75.0449 45.2149 73.8733 47.1702 77.8248C49.1255 81.7764 48.3327 92.4674 48.3327 92.4674H53.7991C53.7991 92.4674 59.431 81.7763 63.791 86.5279Z" fill="#2F2E41"/>
<path d="M209.289 152.88L209.12 152.934L199.915 155.776L94.8203 188.248C105.951 180.236 108.313 132.679 105.51 111.061C121.691 140.433 148.102 122.591 180.389 71.4212C188.839 58.0267 197.699 42.3396 206.873 24.6191L208.51 111.568L209.289 152.88Z" fill="#5667EA"/>
<path d="M102.149 145.397C106.493 144.115 110.677 145.314 111.493 148.076C112.309 150.838 109.45 154.116 105.104 155.398C103.375 155.934 101.542 156.048 99.76 155.732L81.2848 160.932L79.0269 152.219L97.4798 148.018C98.8044 146.784 100.405 145.885 102.149 145.397Z" fill="#FFB6B6"/>
<path d="M69.4713 114.517L66.5756 149.124L92.5135 149.402L97.5474 157.146C97.5474 157.146 66.1092 175.331 56.6692 166.039C47.2292 156.747 43.0289 117.646 51.4219 110.953C59.8149 104.26 69.4713 114.517 69.4713 114.517Z" fill="#E6E6E6"/>
<path d="M130.127 101.188L123.898 99.2679C126.77 102.258 129.582 107.169 131.282 111.154C132.594 107.025 134.924 101.869 137.498 98.6191L131.564 101.09C132.681 81.9514 145.039 66.5493 161.395 64.1961L161.529 63.4912C144.446 65.9493 131.215 81.288 130.127 101.188Z" fill="#3F3D56"/>
<path d="M137.97 155.218L141.293 149.737C137.75 151.762 132.386 153.27 128.173 153.94C131.804 156.177 136.174 159.63 138.665 162.86L137.721 156.612C155.741 162.247 167.505 177.71 165.848 193.868L166.489 194.164C168.22 177.287 156.724 161.008 137.97 155.218Z" fill="#3F3D56"/>
<path d="M209.12 152.934L199.916 155.776C192.281 151.214 184.285 147.504 176.337 143.878C173.607 142.635 170.509 140.903 169.778 137.331C169.337 135.201 169.899 132.939 170.66 130.96C174.906 119.882 185.137 113.583 188.259 101.909C191.128 91.1689 186.858 79.6086 180.389 71.4212C188.839 58.0267 197.699 42.3396 206.873 24.6191L208.51 111.568C208.751 128.1 208.975 143.045 209.12 152.934Z" fill="#F1F2F2"/>
</g>
<defs>
<clipPath id="clip0_19_328">
<rect width="244" height="324" fill="white"/>
</clipPath>
</defs>
</svg>
