<svg width="current" height="current" viewBox="0 0 347 188" fill="none" xmlns="http://www.w3.org/2000/svg">
<g clip-path="url(#clip0_19_138)">
<path d="M268.211 122.752C265.388 119.063 260.497 112.674 252.085 110.752C236.237 107.132 222.619 122.736 221.334 124.252C208.51 139.375 206.525 165.533 219.459 178.251C226.088 184.77 235.096 186.244 238.96 186.876C243.498 187.619 254.056 189.346 262.961 183.126C267.743 179.787 270.037 175.561 271.587 172.627C278.858 158.861 279.801 137.893 268.211 122.752ZM248.526 180.094C239.235 181.054 230.43 172.336 226.814 164.172C224.795 159.528 224.088 154.419 224.768 149.401C225.449 144.382 227.491 139.646 230.673 135.707C232.015 134.081 239.15 125.434 249.008 126.54C258.704 127.629 264.479 137.416 266.378 143.909C270.68 158.612 261.644 178.739 248.526 180.094Z" fill="#5667EA"/>
<path d="M189.933 181.99H185.047L182.723 163.146H189.934L189.933 181.99Z" fill="#FFB6B6"/>
<path d="M189.803 180.394L184.586 178.272L184.437 178.211L181.556 180.394C179.93 180.394 178.371 181.04 177.221 182.19C176.071 183.34 175.425 184.899 175.424 186.526V186.725H191.178V180.394H189.803Z" fill="#2F2E41"/>
<path d="M251.114 144.41L250.011 149.17L231.127 147.184L232.753 140.159L251.114 144.41Z" fill="#FFB6B6"/>
<path d="M249.84 142.835L249.557 144.051L249.528 144.176L246.293 148.776L246.195 148.914L247.67 152.211C247.488 152.996 247.463 153.808 247.595 154.602C247.728 155.397 248.016 156.157 248.442 156.84C248.869 157.523 249.426 158.115 250.081 158.583C250.737 159.051 251.478 159.384 252.263 159.566L252.454 159.61L256.009 144.265L249.84 142.835Z" fill="#2F2E41"/>
<path d="M186.62 80.7021L213.561 81.645L213.749 81.3722C213.749 81.3722 216.047 86.7341 216.047 91.33C216.047 92.858 214.984 102.852 215.525 104.743C215.592 104.978 215.129 105.555 215.281 106.65C215.379 107.36 215.922 106.814 216.047 107.799C216.137 108.505 215.181 108.896 215.281 109.714C215.39 110.607 216.705 113.501 216.823 114.495C218.083 125.075 216.033 127.825 216.033 127.825C216.033 127.825 239.075 137.479 240.5 137.772C242.891 138.264 244.506 142.613 243.181 143.517C242.55 143.948 240.449 151.969 240.449 151.969C240.001 152.051 238.599 151.347 239.492 149.684C239.657 149.378 238.676 150.157 238.513 149.791C238.34 149.401 235.885 151.111 235.686 150.679C233.903 146.794 211.599 141.41 209.005 138.646C205.173 134.562 202.746 129.36 202.078 123.799L199.856 103.392L197.817 112.642L196.13 114.309L196.593 118.196L196.513 121.969L192.3 137.672C192.3 137.672 191.668 166.997 192.683 167.928C193.233 168.432 195.565 174.645 191.151 175.205L183.131 174.586C183.131 174.586 182.051 172.309 182.591 171.499C183.131 170.689 183.099 170.91 182.44 169.584C181.781 168.257 182.051 166.01 182.051 166.01C181 155.45 180.586 144.835 180.81 134.225C181.212 116.798 183.648 96.7773 183.648 96.3693C183.668 95.9523 183.591 95.5363 183.424 95.154V94.0541L184.458 90.1564L186.62 80.7021Z" fill="#2F2E41"/>
<path d="M215.975 87.0041C209.172 88.1806 204.611 87.7326 201.803 83.5572C198.141 78.894 191.481 84.4002 185.861 86.4475L185.195 85.7275L184.061 84.5057L185.103 83.3261L184.061 81.0511L184.93 78.2438L186.041 78.0408L185.742 75.6242L185.275 74.2109L186.646 72.7058L187.811 68.9487L186.972 61.0859C185.824 50.3082 188.048 39.4399 193.338 29.9794L196.521 27.1223L197.842 25.935L199.615 22.626L201.488 22.8443L206.559 23.4302L206.732 23.8439L207.977 26.8465L212.499 31.7037C213.138 32.3907 213.624 33.206 213.924 34.0953C214.224 34.9847 214.332 35.9277 214.239 36.8617L214.109 38.1715L214.013 39.1137L213.561 43.6483L211.719 62.1735L211.581 63.1578L210.098 73.8088C212.508 76.1374 212.654 75.6293 213.677 79.7273C213.792 80.1831 215.125 81.198 215.209 81.6423C215.328 82.2704 215.975 87.0041 215.975 87.0041Z" fill="#3F3D56"/>
<path d="M202.163 20.6732C207.027 20.6732 210.971 16.7301 210.971 11.8659C210.971 7.00176 207.027 3.05859 202.163 3.05859C197.298 3.05859 193.355 7.00176 193.355 11.8659C193.355 16.7301 197.298 20.6732 202.163 20.6732Z" fill="#FFB6B6"/>
<path d="M211.378 5.23674C210.796 4.6083 210.049 4.15714 209.222 3.93528C208.394 3.71341 207.521 3.72991 206.703 3.98286C206.345 2.95675 205.711 2.04869 204.872 1.35754C204.033 0.666403 203.021 0.218677 201.945 0.0631126C200.869 -0.0924519 199.771 0.0501104 198.771 0.475276C197.77 0.900442 196.906 1.59191 196.271 2.4744C195.981 2.3441 195.662 2.29092 195.345 2.32003C195.029 2.34914 194.725 2.45954 194.463 2.64055C193.944 3.00982 193.525 3.50348 193.246 4.07632C192.526 5.44429 192.19 6.9819 192.275 8.52549C192.36 10.0691 192.861 11.5609 193.726 12.842C193.381 12.1461 194.351 13.3447 195.295 13.0307C196.107 12.818 199.439 10.6811 200.271 10.7892C201.103 10.8972 201.373 10.2266 202.186 10.0232C202.983 9.76833 205.017 13.0624 205.425 15.242C205.502 15.655 205.69 16.1682 206.11 16.1776C206.627 16.1892 206.782 15.4482 207.219 15.17C207.425 15.0654 207.663 15.0447 207.883 15.1123C208.104 15.1799 208.29 15.3305 208.402 15.5324C208.504 15.7399 208.555 15.9688 208.55 16.2C208.546 16.4312 208.487 16.658 208.377 16.8615C208.154 17.2661 207.867 17.6321 207.527 17.9452L207.753 18.0694C207.976 18.2288 208.247 18.3058 208.52 18.2873C208.793 18.2687 209.051 18.1558 209.25 17.9677C210.092 18.3472 212.38 16.207 212.076 14.9122C212.715 13.325 213.064 11.6363 213.107 9.92593C213.143 8.20073 212.525 6.52588 211.378 5.23674Z" fill="#2F2E41"/>
<path d="M143.494 34.914C143.82 35.2203 144.209 35.4514 144.634 35.5911C145.059 35.7307 145.509 35.7755 145.953 35.7222C146.397 35.669 146.824 35.5191 147.204 35.2829C147.584 35.0468 147.908 34.7303 148.152 34.3556L166.979 38.8609L165.1 33.5331L147.092 29.9769C146.435 29.6082 145.666 29.4932 144.931 29.6536C144.195 29.8141 143.543 30.2388 143.1 30.8474C142.656 31.456 142.451 32.2061 142.524 32.9556C142.597 33.7051 142.942 34.4019 143.494 34.914Z" fill="#FFB8B8"/>
<path d="M199.743 31.6365L198.235 30.8499L191.355 30.7418L191.104 30.7392L191.09 30.7405L185.815 30.6598L160.345 30.2607L159.321 31.155L157.746 30.22L155.961 29.3154L154.323 30.1664L152.922 30.1445L152.709 31.0843L152.707 31.0877L152.701 31.1149L151.752 35.2152L151.75 35.2186L151.762 36.1857L153.409 37.9613L154.283 38.6309L156.097 39.433L157.353 37.9374L158.825 39.467L164.863 40.5784C174.956 43.3588 184.25 44.697 191.382 42.1271L192.278 42.0852L199.358 41.7483C200.326 41.7034 201.259 41.3728 202.039 40.7983C202.819 40.2238 203.412 39.4311 203.742 38.5203L203.744 38.5169C203.968 37.8982 204.063 37.2406 204.025 36.5838C203.994 35.9801 203.849 35.3879 203.597 34.8384C203.145 33.8386 202.373 33.0178 201.403 32.5059L199.743 31.6365Z" fill="#3F3D56"/>
<path d="M304.76 176.233C305.1 176.245 305.436 176.153 305.722 175.968C306.008 175.783 306.23 175.515 306.358 175.2C306.487 174.884 306.515 174.537 306.44 174.205C306.364 173.873 306.188 173.573 305.936 173.344C305.893 173.178 305.861 173.059 305.818 172.893C306.136 172.063 306.694 171.347 307.421 170.836C308.148 170.326 309.011 170.044 309.9 170.027C310.788 170.01 311.661 170.259 312.407 170.742C313.153 171.225 313.738 171.919 314.087 172.736C316.098 177.323 318.691 182.066 317.472 187.151C325.669 169.342 322.614 147.316 310.106 132.273C306.671 130.423 303.869 127.105 303.111 123.228C304.808 123.785 306.904 122.389 305.615 120.62C305.057 119.945 304.494 119.274 303.937 118.599C310.296 111.696 318.054 122.376 311.07 131.677C313.411 134.556 315.444 137.67 317.138 140.971C316.72 137.453 317.144 133.886 318.375 130.563C319.624 127.466 321.997 124.845 324.083 122.157C326.619 118.883 331.916 120.332 332.3 124.453C329.939 125.254 329.664 128.679 332.378 129.121C331.741 136.8 326.796 143.899 319.924 147.329C322.542 154.458 323.61 162.063 323.057 169.637C324.191 160.78 333.666 158.544 340.269 154.965C340.689 154.69 341.18 154.543 341.681 154.543C342.183 154.542 342.674 154.687 343.095 154.961C343.516 155.234 343.848 155.624 344.05 156.084C344.253 156.543 344.318 157.051 344.237 157.546C343.324 157.927 342.452 158.398 341.632 158.951C341.249 159.215 340.956 159.591 340.794 160.027C340.632 160.463 340.609 160.939 340.728 161.389C340.847 161.839 341.102 162.242 341.459 162.541C341.816 162.84 342.256 163.022 342.72 163.061C339.454 171.371 330.858 177.013 321.975 177.066C321.156 180.784 319.954 184.406 318.387 187.875L305.203 188C305.154 187.854 305.11 187.703 305.066 187.557C306.287 187.623 307.512 187.538 308.712 187.305C305.447 183.514 302.931 181.587 304.76 176.233L304.76 176.233Z" fill="#F2F2F2"/>
<path d="M39.6711 138.963C39.3309 138.976 38.9951 138.883 38.7092 138.699C38.4233 138.514 38.2012 138.245 38.0728 137.93C37.9445 137.615 37.9162 137.268 37.9917 136.936C38.0673 136.604 38.2431 136.303 38.4953 136.074C38.5387 135.908 38.5699 135.789 38.6133 135.623C38.2957 134.793 37.7376 134.077 37.0104 133.567C36.2832 133.056 35.4201 132.775 34.5317 132.758C33.6433 132.741 32.7701 132.99 32.0241 133.472C31.2781 133.955 30.6932 134.649 30.3444 135.467C28.3328 140.053 25.7407 144.797 26.9589 149.882C18.762 132.073 21.817 110.047 34.3248 95.003C37.7602 93.1531 40.5619 89.8352 41.32 85.9587C39.6232 86.5156 37.5276 85.1199 38.8162 83.3506C39.3739 82.675 39.9369 82.0048 40.4945 81.3292C34.135 74.4263 26.3777 85.1062 33.3615 94.4078C31.0205 97.286 28.9869 100.401 27.2937 103.702C27.711 100.184 27.2869 96.6165 26.0565 93.2939C24.8068 90.1965 22.4343 87.5752 20.3485 84.8879C17.8127 81.6136 12.5154 83.0626 12.1308 87.1835C14.4922 87.9846 14.7674 91.4091 12.0532 91.8516C12.6899 99.5306 17.6354 106.629 24.5074 110.06C21.8897 117.188 20.8216 124.793 21.3743 132.367C20.2399 123.511 10.7653 121.274 4.16222 117.696C3.7424 117.421 3.25166 117.274 2.74984 117.273C2.24803 117.272 1.75684 117.418 1.3362 117.691C0.915556 117.965 0.583639 118.355 0.38094 118.814C0.17824 119.273 0.113525 119.781 0.194678 120.276C1.10711 120.657 1.97943 121.128 2.79877 121.682C3.18266 121.945 3.47567 122.321 3.63765 122.757C3.79962 123.194 3.82262 123.67 3.7035 124.12C3.58438 124.57 3.32898 124.972 2.97228 125.271C2.61559 125.571 2.17507 125.752 1.71113 125.791C4.97755 134.102 13.5735 139.744 22.4567 139.797C23.275 143.514 24.4774 147.136 26.0446 150.605L39.2287 150.731C39.2774 150.585 39.3213 150.434 39.3653 150.288C38.1442 150.353 36.9197 150.268 35.7193 150.036C38.9843 146.244 41.4998 144.318 39.6715 138.964L39.6711 138.963Z" fill="#F2F2F2"/>
<path d="M36.4625 138.169C61.2334 134.16 76.5323 175.054 92.5088 172.48C121.789 167.764 109.652 21.041 132.542 19.7932C152.054 18.7296 177.084 83.4755 197.755 122.32C208.621 142.737 214.527 157.259 214.527 157.259C214.527 157.259 205.486 201.128 192.63 183.813C174.265 159.078 160.456 72.4541 150.271 76.4076C134.675 82.4611 152.266 156.94 114.813 179.915C82.0994 199.982 18.2 171.47 18.1616 153.609C18.1469 146.749 27.5475 139.611 36.4625 138.169Z" fill="#5667EA"/>
<path d="M155.495 129.802C150.447 130.957 143.818 134.528 144.178 137.818C144.564 141.345 152.986 144.613 159.739 142.533C165.28 140.827 170.322 135.33 169.17 132.16C167.981 128.888 160.404 128.679 155.495 129.802Z" fill="#5667EA"/>
<path d="M288.024 117.966C289.653 115.208 291.983 111.119 290.274 108.222C287.941 104.266 280.704 98.9914 276.201 104.136C272.779 108.047 273.547 109.61 273.593 115.681C273.718 132.254 264.335 167.647 274.142 184.49C275.978 187.643 286.124 187.018 290.145 187.41C294.6 187.844 299.435 183.512 299.16 178.499C298.914 174.009 294.694 172.701 290.478 169.748C275.314 159.126 279.587 132.252 288.024 117.966Z" fill="#5667EA"/>
<path d="M96.3809 23.0405C96.2784 24.2704 96.179 25.5002 96.0827 26.7301C96.009 28.1706 95.8079 29.6017 95.4817 31.0067C95.4071 31.3966 95.2393 31.7626 94.9925 32.0735C94.5546 32.572 95.3653 35.4883 94.7643 35.7678C94.154 36.0585 93.4985 36.2428 92.8261 36.3129C92.7982 36.1079 92.7609 35.9029 92.719 35.7026C92.7143 35.6793 92.7097 35.6607 92.705 35.6374C92.5146 34.7281 92.1627 33.8603 91.6661 33.0751C91.7831 34.0055 91.6794 34.9503 91.3632 35.833C91.312 35.9775 91.2514 36.1219 91.1862 36.2663C88.5446 35.875 86.2571 34.0907 84.4541 34.1093C83.3588 30.4367 82.5871 26.6753 82.1479 22.8681C82.0314 21.8525 81.9662 20.7252 82.5905 19.9192C83.1449 19.2018 84.0907 18.9409 84.9759 18.7499C87.8678 18.1251 90.8232 17.8421 93.7812 17.9067L88.661 16.7141C90.0989 16.633 91.5409 16.7696 92.9379 17.1194C94.3123 17.534 95.6122 18.4424 96.1433 19.7795C96.5486 20.7997 96.4647 21.9457 96.3809 23.0405Z" fill="#2F2E41"/>
<path d="M67.5438 177.898H62.6151L60.2703 158.889L67.5447 158.889L67.5438 177.898Z" fill="#FFB6B6"/>
<path d="M52.6677 185.17C52.6701 185.722 52.8902 186.251 53.2802 186.642C53.6703 187.032 54.1987 187.254 54.7508 187.257H64.0289L64.3163 186.661L65.6287 183.954L66.137 186.661L66.2494 187.257H69.749L69.699 186.657L68.7658 175.468L67.5451 175.393L62.2707 175.08L60.9751 175.001V178.342C59.9919 179.388 52.2761 183.341 52.6677 185.17Z" fill="#2F2E41"/>
<path d="M125.285 172.533L120.998 174.966L109.577 159.589L115.904 156L125.285 172.533Z" fill="#FFB6B6"/>
<path d="M115.935 186.199C116.208 186.68 116.66 187.033 117.193 187.18C117.726 187.328 118.295 187.258 118.776 186.986L119.264 186.711H119.268L126.846 182.408L126.605 178.746L128.779 181.312L130.383 180.4L131.821 179.583L130.55 177.725L125.147 169.814L124.047 170.356L119.301 172.685L118.143 173.255L119.789 176.159C119.451 177.559 114.694 184.799 115.935 186.199Z" fill="#2F2E41"/>
<path d="M92.0028 84.5862C97.7759 84.7936 96.8894 98.4698 98.6916 110.365C100.299 120.977 105.002 129.94 103.43 130.321L118.997 159.33C112.909 164.984 105.767 168.733 96.8392 169.262C87.1512 160.36 84.4946 139.875 82.2703 118.679L79.8421 137.293L83.0796 166.834L68.7574 170.297L58.8511 169.59C50.4548 135.725 66.3398 97.426 73.1785 82.875L92.0028 84.5862Z" fill="#2F2E41"/>
<path d="M98.1271 77.5108L100.75 69.644L102.623 67.0217L103.372 59.5295C103.372 39.3004 98.8595 42.669 98.8595 42.669L92.9734 35.5543L86.2769 35.3451L80.985 35.1797L76.5855 42.4846C74.647 43.1687 72.9213 44.3483 71.5801 45.9061C70.2389 47.4638 69.3288 49.3455 68.9403 51.364L67.7227 57.6902L72.2772 71.517L72.0763 70.4896C69.9323 74.4472 70.4777 75.0426 72.253 78.0141L72.3413 79.0871C72.4232 80.0523 72.806 80.9676 73.4355 81.7039C74.0651 82.4402 74.9098 82.9605 75.8506 83.1915C94.8192 87.9184 96.7904 96.1873 99.229 92.7735C99.7957 91.9802 97.3909 82.5126 98.211 82.5946C100.458 82.8193 98.1271 77.5108 98.1271 77.5108Z" fill="#E6E6E6"/>
<path d="M111.108 106.79C110.721 106.435 110.417 106 110.216 105.515C110.014 105.03 109.92 104.507 109.941 103.983C109.961 103.459 110.095 102.945 110.334 102.477C110.572 102.01 110.909 101.599 111.322 101.275L106.622 83.8336L111.127 81.3477L116.558 102.104C117.052 102.839 117.26 103.73 117.141 104.608C117.023 105.486 116.586 106.29 115.914 106.868C115.243 107.445 114.382 107.756 113.496 107.742C112.61 107.728 111.76 107.389 111.108 106.79Z" fill="#FFB6B6"/>
<path d="M98.1663 42.1602C98.1663 42.1602 106.531 44.7071 107.266 49.1538C108.002 53.6005 109.288 57.5234 108.956 59.3425C108.623 61.1615 112.773 73.3357 111.964 74.736C111.155 76.1363 113.33 76.4396 112.579 78.7351C111.828 81.0305 111.41 81.5069 111.886 81.9256C112.362 82.3443 114.418 91.4471 114.418 91.4471L108.151 93.2675L96.6094 64.6708L98.1663 42.1602Z" fill="#E6E6E6"/>
<path d="M65.2156 106.79C65.6018 106.435 65.9062 105.999 66.1077 105.515C66.3092 105.03 66.403 104.507 66.3826 103.983C66.3622 103.459 66.2281 102.945 65.9896 102.477C65.7511 102.01 65.4139 101.599 65.0013 101.275L69.7011 83.8336L65.1962 81.3477L59.7656 102.104C59.2711 102.839 59.0634 103.73 59.182 104.608C59.3005 105.486 59.7371 106.29 60.4089 106.868C61.0807 107.445 61.941 107.756 62.8269 107.742C63.7128 107.728 64.5627 107.389 65.2156 106.79Z" fill="#FFB6B6"/>
<path d="M78.1568 42.1602C78.1568 42.1602 69.7925 44.7071 69.0566 49.1538C68.3207 53.6005 67.0351 57.5234 67.3674 59.3425C67.6997 61.1615 63.5505 73.3357 64.3592 74.736C65.1678 76.1363 62.9927 76.4396 63.7437 78.7351C64.4947 81.0305 64.9135 81.5069 64.437 81.9256C63.9606 82.3443 61.9055 91.4471 61.9055 91.4471L68.172 93.2675L79.7137 64.6708L78.1568 42.1602Z" fill="#E6E6E6"/>
<path d="M85.0055 34.2005C90.764 34.2005 95.4321 29.5326 95.4321 23.7746C95.4321 18.0165 90.764 13.3486 85.0055 13.3486C79.247 13.3486 74.5789 18.0165 74.5789 23.7746C74.5789 29.5326 79.247 34.2005 85.0055 34.2005Z" fill="#FFB6B6"/>
<path d="M95.584 40.3107C91.6519 36.8145 98.3561 26.828 93.1194 20.1633L92.4905 19.6926C92.0165 20.5946 91.2466 21.3062 90.3101 21.7078C90.1147 20.7991 89.7866 19.924 89.3364 19.1107C89.4494 20.1181 89.3591 21.138 89.0708 22.1098C88.7773 22.1468 88.5677 22.1046 88.4931 21.9723C88.5863 22.7816 86.1124 23.1836 86.6296 21.9247C86.6333 21.912 86.638 21.8997 86.6435 21.8877C86.0053 23.173 84.6914 23.7707 83.55 24.4848C82.4086 25.1936 81.2485 26.3784 81.3603 27.8489C81.4535 29.039 82.362 29.9276 83.2752 30.52C84.1883 31.1177 85.2133 31.5832 85.8748 32.5088C86.9883 34.0639 86.7274 36.3437 86.1637 38.2373C86.051 38.5397 85.8666 38.8103 85.6264 39.0258C85.3863 39.2414 85.0974 39.3955 84.7846 39.475C84.5987 38.4553 84.2478 37.4726 83.7457 36.5658C83.863 37.6193 83.7599 38.6857 83.4429 39.6972C82.7638 39.727 82.0858 39.6186 81.45 39.3785C80.8141 39.1385 80.2336 38.7718 79.7437 38.3008L80.4472 41.4215C79.315 41.1835 78.1736 41.4533 77.0229 41.6596C76.993 41.3064 76.9448 40.9551 76.8784 40.607C76.6974 39.5605 76.3414 38.552 75.8255 37.6237C75.9696 38.9137 75.7819 40.2191 75.2804 41.4163C75.2245 41.5538 75.1639 41.6913 75.0987 41.8235C73.3283 41.6966 71.5626 40.6651 71.898 37.9834C72.0456 37.1229 72.4041 36.3124 72.9416 35.6243C73.8548 34.3443 69.2005 32.9743 69.4847 31.4298C69.9087 29.1395 74.1529 27.1136 73.8175 24.8022C73.5193 22.7075 73.5778 17.9793 74.7307 16.3497C76.3962 13.9953 74.5486 9.12483 86.3873 11.8907C90.7914 12.9196 92.3181 8.59967 98.9571 21.7915C100.095 24.0532 95.9567 23.2757 98.3887 28.1239C100.821 32.9722 93.8556 36.8144 95.584 40.3107Z" fill="#2F2E41"/>
<path d="M3.50445e-06 187.406C-0.00126838 187.14 0.343831 186.924 0.770849 186.923H346.225C346.653 186.923 347 187.139 347 187.406C347 187.672 346.653 187.888 346.225 187.888H0.775463C0.348449 187.889 0.00126607 187.674 3.50445e-06 187.409V187.406Z" fill="#CCCCCC"/>
<path d="M177.483 88.0192C177.906 87.8725 178.291 87.635 178.612 87.3233C178.933 87.0117 179.182 86.6335 179.34 86.2154C179.499 85.7973 179.564 85.3494 179.531 84.9034C179.499 84.4574 179.368 84.024 179.15 83.6338L191.875 69.0455L186.282 68.2393L174.778 82.5416C174.147 82.9522 173.689 83.5802 173.489 84.3064C173.29 85.0326 173.364 85.8066 173.698 86.4817C174.031 87.1569 174.601 87.6864 175.299 87.9697C175.996 88.2531 176.774 88.2707 177.483 88.0192Z" fill="#FFB8B8"/>
<path d="M183.053 79.9015L184.861 77.9073L186.605 77.7572L186.724 77.6087L187.18 77.0271L187.355 75.4072L188.694 75.0929L191.681 71.2788L192.137 70.5198L204.672 55.8744L207.23 51.6162L207.631 50.7509L208.884 48.0571L208.719 41.2639C208.993 40.6772 209.147 40.0419 209.174 39.3949C209.2 38.748 209.097 38.1022 208.871 37.4953C208.799 37.2986 208.715 37.1067 208.618 36.9208L208.548 36.7887C208.364 36.4634 208.145 36.16 207.893 35.8842L207.889 35.8778C207.445 35.3919 206.906 35.0028 206.305 34.7349C205.837 34.5211 205.338 34.3827 204.826 34.325C203.645 34.1941 202.457 34.4929 201.478 35.1666L199.94 36.2302L198.543 37.2032L195.347 43.0869L195.137 43.4706L195.13 43.48L185.286 61.5883L182.319 67.0485L181.867 67.8777L181.825 70.3035L180.398 70.5735L178.713 71.835L178.544 73.9831L177.751 77.4468L177.631 77.642L178.369 78.0795L178.44 78.1203L178.575 78.2388L180.454 79.8519L181.594 80.8329L181.631 80.8634L181.928 81.1423L183.053 79.9015Z" fill="#3F3D56"/>
<path d="M74.9847 17.5892C75.0081 17.5981 75.0286 17.6069 75.052 17.6158C75.0967 17.6356 75.1426 17.6523 75.1896 17.6659C75.4888 17.7758 75.8006 17.8474 76.1178 17.8792C76.253 17.8938 76.3889 17.901 76.525 17.9007C76.6994 17.9014 76.8737 17.89 77.0466 17.8669C77.2389 17.8433 77.429 17.8046 77.6153 17.7512C77.7036 17.7275 77.7907 17.6994 77.8762 17.6669C78.4586 17.46 78.9851 17.1209 79.4143 16.6761C79.8434 16.2314 80.1636 15.6932 80.3496 15.1039V15.1009C80.3694 15.0433 80.3862 14.9847 80.3998 14.9253C80.4869 14.5956 80.5311 14.256 80.5313 13.9149V13.909C80.5335 13.0774 80.2742 12.2661 79.7901 11.5899C79.4981 11.176 79.1609 11.1069 79.3501 10.6337C79.9536 9.12424 77.4846 7.89034 76.0271 8.55405C75.9745 8.54903 75.9217 8.54695 75.8689 8.54779C74.8874 8.54531 74.5234 9.99454 73.9383 10.8104L73.9552 10.8159C74.1034 10.8678 74.2317 10.9647 74.3221 11.093C74.4125 11.2214 74.4605 11.3747 74.4594 11.5317C74.4584 11.6887 74.4083 11.8414 74.3162 11.9685C74.2241 12.0956 74.0945 12.1908 73.9457 12.2406C73.5561 12.3675 73.1625 12.4796 72.7648 12.5769C71.4533 14.1258 72.9568 18.6569 74.9847 17.5892Z" fill="#2F2E41"/>
<path d="M79.6754 11.1988C79.7289 12.5907 79.372 13.9677 78.6493 15.1584C77.9265 16.3492 76.8697 17.3014 75.6102 17.8965C75.0987 18.1282 74.6534 17.3698 75.1685 17.1365C76.2939 16.6174 77.2396 15.7756 77.8855 14.718C78.5315 13.6604 78.8486 12.4347 78.7965 11.1966C78.7672 10.6313 79.6462 10.6353 79.6754 11.1988Z" fill="#5667EA"/>
</g>
<defs>
<clipPath id="clip0_19_138">
<rect width="347" height="188" rx="20" fill="white"/>
</clipPath>
</defs>
</svg>
