<svg width="606" height="181" viewBox="0 0 606 181" fill="none" xmlns="http://www.w3.org/2000/svg">
<path d="M9.08984 60.0458C9.08984 55.2984 10.2552 51.7146 12.586 49.2944C14.9168 46.8742 18.5994 45.6641 23.6338 45.6641H48.946C56.8706 45.6641 63.8163 46.9207 69.7831 49.434C75.7498 51.9473 80.6911 55.4381 84.6068 59.9062C88.6157 64.2812 91.5991 69.494 93.5569 75.5446C95.5148 81.5951 96.4937 88.1577 96.4937 95.2322C96.4937 102.214 95.4681 108.73 93.4171 114.78C91.366 120.831 88.2894 126.09 84.1872 130.558C80.1783 135.026 75.1905 138.517 69.2237 141.03C63.3501 143.544 56.5443 144.8 48.8061 144.8H23.6338C18.5994 144.8 14.9168 143.59 12.586 141.17C10.2552 138.75 9.08984 135.166 9.08984 130.419V60.0458ZM25.312 130.837H48.8061C53.9338 130.837 58.4555 130 62.3712 128.324C66.3801 126.556 69.6898 124.089 72.3003 120.924C74.9108 117.759 76.8686 114.036 78.1738 109.754C79.5723 105.379 80.2715 100.538 80.2715 95.2322C80.2715 89.9263 79.5723 85.0859 78.1738 80.7108C76.8686 76.3358 74.8641 72.6124 72.1605 69.5405C69.55 66.3756 66.2403 63.9554 62.2314 62.2799C58.3157 60.5112 53.794 59.6269 48.6663 59.6269H25.312V130.837Z" fill="white"/>
<path d="M123.813 110.311C123.813 113.756 124.326 116.967 125.352 119.946C126.377 122.832 127.869 125.391 129.827 127.625C131.784 129.766 134.115 131.442 136.819 132.652C139.616 133.862 142.786 134.467 146.328 134.467C149.778 134.467 152.901 133.862 155.698 132.652C158.495 131.442 160.872 129.766 162.83 127.625C164.788 125.391 166.28 122.832 167.305 119.946C168.331 116.967 168.844 113.756 168.844 110.311C168.844 106.867 168.331 103.656 167.305 100.677C166.28 97.6984 164.788 95.1385 162.83 92.9975C160.872 90.8566 158.495 89.181 155.698 87.9709C152.901 86.6677 149.778 86.0161 146.328 86.0161C142.786 86.0161 139.616 86.6677 136.819 87.9709C134.115 89.181 131.784 90.8566 129.827 92.9975C127.869 95.1385 126.377 97.6984 125.352 100.677C124.326 103.656 123.813 106.867 123.813 110.311ZM184.227 110.311C184.227 115.338 183.341 120.132 181.57 124.693C179.798 129.161 177.234 133.117 173.878 136.562C170.615 139.913 166.653 142.612 161.991 144.66C157.33 146.615 152.109 147.592 146.328 147.592C140.548 147.592 135.327 146.615 130.666 144.66C126.004 142.612 121.995 139.913 118.639 136.562C115.376 133.117 112.859 129.161 111.087 124.693C109.316 120.132 108.43 115.338 108.43 110.311C108.43 105.285 109.316 100.537 111.087 96.0694C112.859 91.5082 115.376 87.552 118.639 84.2009C121.995 80.7568 126.004 78.0107 130.666 75.9629C135.327 73.915 140.548 72.891 146.328 72.891C152.109 72.891 157.33 73.915 161.991 75.9629C166.653 78.0107 170.615 80.7568 173.878 84.2009C177.234 87.552 179.798 91.5082 181.57 96.0694C183.341 100.537 184.227 105.285 184.227 110.311ZM210.807 110.311C210.807 113.756 211.32 116.967 212.346 119.946C213.371 122.832 214.863 125.391 216.821 127.625C218.779 129.766 221.109 131.442 223.813 132.652C226.61 133.862 229.78 134.467 233.323 134.467C236.772 134.467 239.895 133.862 242.692 132.652C245.489 131.442 247.867 129.766 249.824 127.625C251.782 125.391 253.274 122.832 254.3 119.946C255.325 116.967 255.838 113.756 255.838 110.311C255.838 106.867 255.325 103.656 254.3 100.677C253.274 97.6984 251.782 95.1385 249.824 92.9975C247.867 90.8566 245.489 89.181 242.692 87.9709C239.895 86.6677 236.772 86.0161 233.323 86.0161C229.78 86.0161 226.61 86.6677 223.813 87.9709C221.109 89.181 218.779 90.8566 216.821 92.9975C214.863 95.1385 213.371 97.6984 212.346 100.677C211.32 103.656 210.807 106.867 210.807 110.311ZM271.221 110.311C271.221 115.338 270.336 120.132 268.564 124.693C266.793 129.161 264.229 133.117 260.873 136.562C257.609 139.913 253.647 142.612 248.985 144.66C244.324 146.615 239.103 147.592 233.323 147.592C227.542 147.592 222.321 146.615 217.66 144.66C212.998 142.612 208.989 139.913 205.633 136.562C202.37 133.117 199.853 129.161 198.081 124.693C196.31 120.132 195.424 115.338 195.424 110.311C195.424 105.285 196.31 100.537 198.081 96.0694C199.853 91.5082 202.37 87.552 205.633 84.2009C208.989 80.7568 212.998 78.0107 217.66 75.9629C222.321 73.915 227.542 72.891 233.323 72.891C239.103 72.891 244.324 73.915 248.985 75.9629C253.647 78.0107 257.609 80.7568 260.873 84.2009C264.229 87.552 266.793 91.5082 268.564 96.0694C270.336 100.537 271.221 105.285 271.221 110.311ZM282.42 110.172C282.42 105.145 283.305 100.398 285.077 95.9297C286.848 91.3685 289.319 87.4124 292.488 84.0613C295.658 80.6171 299.434 77.9177 303.816 75.9629C308.198 73.915 312.999 72.891 318.22 72.891C321.203 72.891 323.954 73.2168 326.471 73.8684C329.082 74.52 331.366 75.4043 333.324 76.5214C335.375 77.6384 337.146 78.8951 338.638 80.2913C340.223 81.6876 341.481 83.0839 342.413 84.4802V48.7353C342.413 46.5943 343.02 44.8722 344.232 43.569C345.537 42.1728 347.448 41.4746 349.965 41.4746C352.482 41.4746 354.394 42.1728 355.699 43.569C357.097 44.8722 357.797 46.5943 357.797 48.7353V111.01C357.797 115.943 356.911 120.644 355.139 125.112C353.368 129.487 350.851 133.35 347.588 136.701C344.325 140.052 340.362 142.705 335.701 144.66C331.039 146.615 325.865 147.592 320.178 147.592C314.398 147.592 309.177 146.568 304.515 144.52C299.854 142.473 295.891 139.773 292.628 136.422C289.365 132.978 286.848 129.022 285.077 124.554C283.305 119.992 282.42 115.198 282.42 110.172ZM297.803 110.172C297.803 113.616 298.315 116.827 299.341 119.806C300.46 122.785 301.998 125.345 303.956 127.486C305.914 129.627 308.244 131.349 310.948 132.652C313.745 133.862 316.822 134.467 320.178 134.467C323.255 134.467 326.145 133.909 328.848 132.792C331.552 131.582 333.93 129.953 335.981 127.905C338.032 125.764 339.617 123.204 340.735 120.225C341.947 117.246 342.553 113.895 342.553 110.172C342.553 106.448 341.947 103.097 340.735 100.119C339.523 97.1399 337.892 94.6265 335.841 92.5787C333.883 90.4377 331.506 88.8087 328.709 87.6917C326.005 86.5746 323.115 86.0161 320.038 86.0161C316.682 86.0161 313.605 86.6212 310.808 87.8313C308.105 89.0414 305.774 90.7635 303.816 92.9975C301.951 95.1385 300.46 97.6984 299.341 100.677C298.315 103.563 297.803 106.728 297.803 110.172ZM395.369 133.35C397.326 134.653 398.305 136.469 398.305 138.796C398.305 140.937 397.559 142.705 396.068 144.102C394.576 145.498 392.851 146.196 390.893 146.196C389.681 146.196 388.516 145.963 387.397 145.498C386.372 145.126 385.346 144.66 384.321 144.102C381.058 142.24 378.587 139.68 376.909 136.422C375.324 133.071 374.532 128.696 374.532 123.297V49.2938C374.532 47.1528 375.184 45.3377 376.489 43.8483C377.795 42.2658 379.706 41.4746 382.223 41.4746C384.74 41.4746 386.698 42.2658 388.097 43.8483C389.495 45.3377 390.194 47.1528 390.194 49.2938V120.923C390.194 124.74 390.614 127.486 391.453 129.161C392.385 130.837 393.69 132.233 395.369 133.35ZM408.159 80.5706C408.159 78.4296 408.812 76.6145 410.117 75.1251C411.422 73.6357 413.334 72.891 415.851 72.891C418.368 72.891 420.279 73.6357 421.585 75.1251C422.89 76.6145 423.542 78.4296 423.542 80.5706V138.516C423.542 140.657 422.89 142.473 421.585 143.962C420.279 145.451 418.368 146.196 415.851 146.196C413.334 146.196 411.422 145.451 410.117 143.962C408.812 142.473 408.159 140.657 408.159 138.516V80.5706ZM405.642 51.6675C405.642 48.6888 406.668 46.2685 408.719 44.4068C410.77 42.452 413.147 41.4746 415.851 41.4746C418.555 41.4746 420.932 42.452 422.983 44.4068C425.034 46.2685 426.06 48.6888 426.06 51.6675C426.06 54.6462 425.034 57.0665 422.983 58.9282C420.932 60.7899 418.555 61.7208 415.851 61.7208C413.147 61.7208 410.77 60.7899 408.719 58.9282C406.668 57.0665 405.642 54.6462 405.642 51.6675ZM491.647 106.262C491.647 99.8393 490.202 94.8593 487.312 91.322C484.422 87.7847 480.133 86.0161 474.446 86.0161C468.759 86.0161 464.424 87.7847 461.441 91.322C458.551 94.8593 457.105 99.8393 457.105 106.262V138.935C457.105 141.076 456.453 142.845 455.148 144.241C453.842 145.544 451.931 146.196 449.414 146.196C446.897 146.196 444.985 145.544 443.68 144.241C442.375 142.845 441.722 141.076 441.722 138.935V105.145C441.722 100.305 442.468 95.8832 443.96 91.8805C445.452 87.8778 447.596 84.4802 450.393 81.6876C453.19 78.8951 456.593 76.7541 460.602 75.2647C464.704 73.6823 469.319 72.891 474.446 72.891C479.574 72.891 484.142 73.6823 488.151 75.2647C492.16 76.7541 495.563 78.8951 498.36 81.6876C501.157 84.4802 503.301 87.8778 504.793 91.8805C506.285 95.8832 507.031 100.305 507.031 105.145V138.935C507.031 141.076 506.378 142.845 505.073 144.241C503.767 145.544 501.856 146.196 499.339 146.196C496.822 146.196 494.911 145.544 493.605 144.241C492.3 142.845 491.647 141.076 491.647 138.935V106.262ZM521.005 109.194C521.005 104.354 521.89 99.7463 523.662 95.3712C525.433 90.9962 527.95 87.1331 531.214 83.7821C534.477 80.431 538.439 77.778 543.101 75.8232C547.762 73.8684 552.983 72.891 558.763 72.891C564.45 72.891 569.625 73.8684 574.286 75.8232C578.948 77.6849 582.91 80.2448 586.173 83.5028C589.529 86.7608 592.093 90.5308 593.865 94.8127C595.636 99.0947 596.522 103.609 596.522 108.357V141.728C596.522 147.22 595.683 152.2 594.004 156.668C592.326 161.136 589.856 164.953 586.593 168.118C583.423 171.376 579.507 173.889 574.846 175.658C570.184 177.426 564.916 178.311 559.043 178.311C552.796 178.311 547.016 177.38 541.702 175.518C536.481 173.749 531.773 170.631 527.578 166.163C525.993 164.487 525.107 162.719 524.921 160.857C524.734 158.995 525.293 157.273 526.599 155.691C527.811 154.201 529.442 153.41 531.493 153.317C533.544 153.224 535.269 153.876 536.668 155.272C540.21 158.809 543.707 161.276 547.156 162.672C550.699 164.162 554.614 164.906 558.903 164.906C562.073 164.906 565.01 164.394 567.713 163.37C570.417 162.439 572.748 160.997 574.706 159.042C576.757 157.087 578.342 154.667 579.461 151.781C580.579 148.896 581.139 145.544 581.139 141.728V136.003C580.206 137.12 578.948 138.237 577.363 139.354C575.871 140.378 574.1 141.356 572.049 142.286C569.998 143.217 567.667 143.962 565.056 144.52C562.539 145.079 559.789 145.358 556.805 145.358C551.584 145.358 546.783 144.381 542.401 142.426C538.019 140.471 534.244 137.865 531.074 134.607C527.904 131.349 525.433 127.532 523.662 123.157C521.89 118.782 521.005 114.128 521.005 109.194ZM536.388 109.194C536.388 112.546 536.901 115.664 537.926 118.55C539.045 121.342 540.537 123.762 542.401 125.81C544.359 127.765 546.69 129.348 549.394 130.558C552.191 131.675 555.267 132.233 558.623 132.233C561.7 132.233 564.59 131.721 567.294 130.697C570.091 129.58 572.468 128.044 574.426 126.09C576.477 124.135 578.109 121.761 579.321 118.968C580.533 116.083 581.139 112.825 581.139 109.194C581.139 105.564 580.533 102.353 579.321 99.5601C578.202 96.6744 576.617 94.2542 574.566 92.2994C572.515 90.2515 570.137 88.7156 567.434 87.6917C564.73 86.5746 561.84 86.0161 558.763 86.0161C555.407 86.0161 552.33 86.6212 549.533 87.8313C546.83 88.9483 544.499 90.5308 542.541 92.5787C540.583 94.6265 539.045 97.0933 537.926 99.979C536.901 102.772 536.388 105.843 536.388 109.194Z" fill="white"/>
<path d="M42.7308 111.186C44.8762 111.186 46.6154 109.449 46.6154 107.307C46.6154 105.165 44.8762 103.429 42.7308 103.429C40.5854 103.429 38.8462 105.165 38.8462 107.307C38.8462 109.449 40.5854 111.186 42.7308 111.186Z" fill="white"/>
<path d="M60.8587 106.014C63.0041 106.014 64.7434 104.277 64.7434 102.135C64.7434 99.9933 63.0041 98.2568 60.8587 98.2568C58.7133 98.2568 56.9741 99.9933 56.9741 102.135C56.9741 104.277 58.7133 106.014 60.8587 106.014Z" fill="white"/>
<path d="M41.436 120.599L42.4611 120.93C51.5663 123.867 61.5472 121.042 67.7543 113.771" stroke="white" stroke-width="2.5" stroke-linecap="round"/>
</svg>
