<svg width="current" height="current" viewBox="0 0 234 70" fill="none" xmlns="http://www.w3.org/2000/svg">
<path d="M3.50977 23.2222C3.50977 21.3862 3.95977 20.0002 4.85977 19.0642C5.75977 18.1282 7.18177 17.6602 9.12577 17.6602H18.8998C21.9598 17.6602 24.6418 18.1462 26.9458 19.1182C29.2498 20.0902 31.1578 21.4402 32.6698 23.1682C34.2178 24.8602 35.3698 26.8762 36.1258 29.2162C36.8818 31.5562 37.2598 34.0942 37.2598 36.8302C37.2598 39.5302 36.8638 42.0502 36.0718 44.3902C35.2798 46.7302 34.0918 48.7642 32.5078 50.4922C30.9598 52.2202 29.0338 53.5702 26.7298 54.5422C24.4618 55.5142 21.8338 56.0002 18.8458 56.0002H9.12577C7.18177 56.0002 5.75977 55.5322 4.85977 54.5962C3.95977 53.6602 3.50977 52.2742 3.50977 50.4382V23.2222ZM9.77377 50.6002H18.8458C20.8258 50.6002 22.5718 50.2762 24.0838 49.6282C25.6318 48.9442 26.9098 47.9902 27.9178 46.7662C28.9258 45.5422 29.6818 44.1022 30.1858 42.4462C30.7258 40.7542 30.9958 38.8822 30.9958 36.8302C30.9958 34.7782 30.7258 32.9062 30.1858 31.2142C29.6818 29.5222 28.9078 28.0822 27.8638 26.8942C26.8558 25.6702 25.5778 24.7342 24.0298 24.0862C22.5178 23.4022 20.7718 23.0602 18.7918 23.0602H9.77377V50.6002Z" fill="white"/>
<path d="M47.8091 42.662C47.8091 43.994 48.0071 45.236 48.4031 46.388C48.7991 47.504 49.3751 48.494 50.1311 49.358C50.8871 50.186 51.7871 50.834 52.8311 51.302C53.9111 51.77 55.1351 52.004 56.5031 52.004C57.8351 52.004 59.0411 51.77 60.1211 51.302C61.2011 50.834 62.1191 50.186 62.8751 49.358C63.6311 48.494 64.2071 47.504 64.6031 46.388C64.9991 45.236 65.1971 43.994 65.1971 42.662C65.1971 41.33 64.9991 40.088 64.6031 38.936C64.2071 37.784 63.6311 36.794 62.8751 35.966C62.1191 35.138 61.2011 34.49 60.1211 34.022C59.0411 33.518 57.8351 33.266 56.5031 33.266C55.1351 33.266 53.9111 33.518 52.8311 34.022C51.7871 34.49 50.8871 35.138 50.1311 35.966C49.3751 36.794 48.7991 37.784 48.4031 38.936C48.0071 40.088 47.8091 41.33 47.8091 42.662ZM71.1371 42.662C71.1371 44.606 70.7951 46.46 70.1111 48.224C69.4271 49.952 68.4371 51.482 67.1411 52.814C65.8811 54.11 64.3511 55.154 62.5511 55.946C60.7511 56.702 58.7351 57.08 56.5031 57.08C54.2711 57.08 52.2551 56.702 50.4551 55.946C48.6551 55.154 47.1071 54.11 45.8111 52.814C44.5511 51.482 43.5791 49.952 42.8951 48.224C42.2111 46.46 41.8691 44.606 41.8691 42.662C41.8691 40.718 42.2111 38.882 42.8951 37.154C43.5791 35.39 44.5511 33.86 45.8111 32.564C47.1071 31.232 48.6551 30.17 50.4551 29.378C52.2551 28.586 54.2711 28.19 56.5031 28.19C58.7351 28.19 60.7511 28.586 62.5511 29.378C64.3511 30.17 65.8811 31.232 67.1411 32.564C68.4371 33.86 69.4271 35.39 70.1111 37.154C70.7951 38.882 71.1371 40.718 71.1371 42.662ZM81.4009 42.662C81.4009 43.994 81.5989 45.236 81.9949 46.388C82.3909 47.504 82.9669 48.494 83.7229 49.358C84.4789 50.186 85.3789 50.834 86.4229 51.302C87.5029 51.77 88.7269 52.004 90.0949 52.004C91.4269 52.004 92.6329 51.77 93.7129 51.302C94.7929 50.834 95.7109 50.186 96.4669 49.358C97.2229 48.494 97.7989 47.504 98.1949 46.388C98.5909 45.236 98.7889 43.994 98.7889 42.662C98.7889 41.33 98.5909 40.088 98.1949 38.936C97.7989 37.784 97.2229 36.794 96.4669 35.966C95.7109 35.138 94.7929 34.49 93.7129 34.022C92.6329 33.518 91.4269 33.266 90.0949 33.266C88.7269 33.266 87.5029 33.518 86.4229 34.022C85.3789 34.49 84.4789 35.138 83.7229 35.966C82.9669 36.794 82.3909 37.784 81.9949 38.936C81.5989 40.088 81.4009 41.33 81.4009 42.662ZM104.729 42.662C104.729 44.606 104.387 46.46 103.703 48.224C103.019 49.952 102.029 51.482 100.733 52.814C99.4729 54.11 97.9429 55.154 96.1429 55.946C94.3429 56.702 92.3269 57.08 90.0949 57.08C87.8629 57.08 85.8469 56.702 84.0469 55.946C82.2469 55.154 80.6989 54.11 79.4029 52.814C78.1429 51.482 77.1709 49.952 76.4869 48.224C75.8029 46.46 75.4609 44.606 75.4609 42.662C75.4609 40.718 75.8029 38.882 76.4869 37.154C77.1709 35.39 78.1429 33.86 79.4029 32.564C80.6989 31.232 82.2469 30.17 84.0469 29.378C85.8469 28.586 87.8629 28.19 90.0949 28.19C92.3269 28.19 94.3429 28.586 96.1429 29.378C97.9429 30.17 99.4729 31.232 100.733 32.564C102.029 33.86 103.019 35.39 103.703 37.154C104.387 38.882 104.729 40.718 104.729 42.662ZM109.053 42.608C109.053 40.664 109.395 38.828 110.079 37.1C110.763 35.336 111.717 33.806 112.941 32.51C114.165 31.178 115.623 30.134 117.315 29.378C119.007 28.586 120.861 28.19 122.877 28.19C124.029 28.19 125.091 28.316 126.063 28.568C127.071 28.82 127.953 29.162 128.709 29.594C129.501 30.026 130.185 30.512 130.761 31.052C131.373 31.592 131.859 32.132 132.219 32.672V18.848C132.219 18.02 132.453 17.354 132.921 16.85C133.425 16.31 134.163 16.04 135.135 16.04C136.107 16.04 136.845 16.31 137.349 16.85C137.889 17.354 138.159 18.02 138.159 18.848V42.932C138.159 44.84 137.817 46.658 137.133 48.386C136.449 50.078 135.477 51.572 134.217 52.868C132.957 54.164 131.427 55.19 129.627 55.946C127.827 56.702 125.829 57.08 123.633 57.08C121.401 57.08 119.385 56.684 117.585 55.892C115.785 55.1 114.255 54.056 112.995 52.76C111.735 51.428 110.763 49.898 110.079 48.17C109.395 46.406 109.053 44.552 109.053 42.608ZM114.993 42.608C114.993 43.94 115.191 45.182 115.587 46.334C116.019 47.486 116.613 48.476 117.369 49.304C118.125 50.132 119.025 50.798 120.069 51.302C121.149 51.77 122.337 52.004 123.633 52.004C124.821 52.004 125.937 51.788 126.981 51.356C128.025 50.888 128.943 50.258 129.735 49.466C130.527 48.638 131.139 47.648 131.571 46.496C132.039 45.344 132.273 44.048 132.273 42.608C132.273 41.168 132.039 39.872 131.571 38.72C131.103 37.568 130.473 36.596 129.681 35.804C128.925 34.976 128.007 34.346 126.927 33.914C125.883 33.482 124.767 33.266 123.579 33.266C122.283 33.266 121.095 33.5 120.015 33.968C118.971 34.436 118.071 35.102 117.315 35.966C116.595 36.794 116.019 37.784 115.587 38.936C115.191 40.052 114.993 41.276 114.993 42.608ZM152.667 51.572C153.423 52.076 153.801 52.778 153.801 53.678C153.801 54.506 153.513 55.19 152.937 55.73C152.361 56.27 151.695 56.54 150.939 56.54C150.471 56.54 150.021 56.45 149.589 56.27C149.193 56.126 148.797 55.946 148.401 55.73C147.141 55.01 146.187 54.02 145.539 52.76C144.927 51.464 144.621 49.772 144.621 47.684V19.064C144.621 18.236 144.873 17.534 145.377 16.958C145.881 16.346 146.619 16.04 147.591 16.04C148.563 16.04 149.319 16.346 149.859 16.958C150.399 17.534 150.669 18.236 150.669 19.064V46.766C150.669 48.242 150.831 49.304 151.155 49.952C151.515 50.6 152.019 51.14 152.667 51.572ZM157.606 31.16C157.606 30.332 157.858 29.63 158.362 29.054C158.866 28.478 159.604 28.19 160.576 28.19C161.548 28.19 162.286 28.478 162.79 29.054C163.294 29.63 163.546 30.332 163.546 31.16V53.57C163.546 54.398 163.294 55.1 162.79 55.676C162.286 56.252 161.548 56.54 160.576 56.54C159.604 56.54 158.866 56.252 158.362 55.676C157.858 55.1 157.606 54.398 157.606 53.57V31.16ZM156.634 19.982C156.634 18.83 157.03 17.894 157.822 17.174C158.614 16.418 159.532 16.04 160.576 16.04C161.62 16.04 162.538 16.418 163.33 17.174C164.122 17.894 164.518 18.83 164.518 19.982C164.518 21.134 164.122 22.07 163.33 22.79C162.538 23.51 161.62 23.87 160.576 23.87C159.532 23.87 158.614 23.51 157.822 22.79C157.03 22.07 156.634 21.134 156.634 19.982ZM189.844 41.096C189.844 38.612 189.286 36.686 188.17 35.318C187.054 33.95 185.398 33.266 183.202 33.266C181.006 33.266 179.332 33.95 178.18 35.318C177.064 36.686 176.506 38.612 176.506 41.096V53.732C176.506 54.56 176.254 55.244 175.75 55.784C175.246 56.288 174.508 56.54 173.536 56.54C172.564 56.54 171.826 56.288 171.322 55.784C170.818 55.244 170.566 54.56 170.566 53.732V40.664C170.566 38.792 170.854 37.082 171.43 35.534C172.006 33.986 172.834 32.672 173.914 31.592C174.994 30.512 176.308 29.684 177.856 29.108C179.44 28.496 181.222 28.19 183.202 28.19C185.182 28.19 186.946 28.496 188.494 29.108C190.042 29.684 191.356 30.512 192.436 31.592C193.516 32.672 194.344 33.986 194.92 35.534C195.496 37.082 195.784 38.792 195.784 40.664V53.732C195.784 54.56 195.532 55.244 195.028 55.784C194.524 56.288 193.786 56.54 192.814 56.54C191.842 56.54 191.104 56.288 190.6 55.784C190.096 55.244 189.844 54.56 189.844 53.732V41.096ZM201.18 42.23C201.18 40.358 201.522 38.576 202.206 36.884C202.89 35.192 203.862 33.698 205.122 32.402C206.382 31.106 207.912 30.08 209.712 29.324C211.512 28.568 213.528 28.19 215.76 28.19C217.956 28.19 219.954 28.568 221.754 29.324C223.554 30.044 225.084 31.034 226.344 32.294C227.64 33.554 228.63 35.012 229.314 36.668C229.998 38.324 230.34 40.07 230.34 41.906V54.812C230.34 56.936 230.016 58.862 229.368 60.59C228.72 62.318 227.766 63.794 226.506 65.018C225.282 66.278 223.77 67.25 221.97 67.934C220.17 68.618 218.136 68.96 215.868 68.96C213.456 68.96 211.224 68.6 209.172 67.88C207.156 67.196 205.338 65.99 203.718 64.262C203.106 63.614 202.764 62.93 202.692 62.21C202.62 61.49 202.836 60.824 203.34 60.212C203.808 59.636 204.438 59.33 205.23 59.294C206.022 59.258 206.688 59.51 207.228 60.05C208.596 61.418 209.946 62.372 211.278 62.912C212.646 63.488 214.158 63.776 215.814 63.776C217.038 63.776 218.172 63.578 219.216 63.182C220.26 62.822 221.16 62.264 221.916 61.508C222.708 60.752 223.32 59.816 223.752 58.7C224.184 57.584 224.4 56.288 224.4 54.812V52.598C224.04 53.03 223.554 53.462 222.942 53.894C222.366 54.29 221.682 54.668 220.89 55.028C220.098 55.388 219.198 55.676 218.19 55.892C217.218 56.108 216.156 56.216 215.004 56.216C212.988 56.216 211.134 55.838 209.442 55.082C207.75 54.326 206.292 53.318 205.068 52.058C203.844 50.798 202.89 49.322 202.206 47.63C201.522 45.938 201.18 44.138 201.18 42.23ZM207.12 42.23C207.12 43.526 207.318 44.732 207.714 45.848C208.146 46.928 208.722 47.864 209.442 48.656C210.198 49.412 211.098 50.024 212.142 50.492C213.222 50.924 214.41 51.14 215.706 51.14C216.894 51.14 218.01 50.942 219.054 50.546C220.134 50.114 221.052 49.52 221.808 48.764C222.6 48.008 223.23 47.09 223.698 46.01C224.166 44.894 224.4 43.634 224.4 42.23C224.4 40.826 224.166 39.584 223.698 38.504C223.266 37.388 222.654 36.452 221.862 35.696C221.07 34.904 220.152 34.31 219.108 33.914C218.064 33.482 216.948 33.266 215.76 33.266C214.464 33.266 213.276 33.5 212.196 33.968C211.152 34.4 210.252 35.012 209.496 35.804C208.74 36.596 208.146 37.55 207.714 38.666C207.318 39.746 207.12 40.934 207.12 42.23Z" fill="white"/>
<path d="M16.5 43C17.3284 43 18 42.3284 18 41.5C18 40.6716 17.3284 40 16.5 40C15.6716 40 15 40.6716 15 41.5C15 42.3284 15.6716 43 16.5 43Z" fill="white"/>
<path d="M23.5 41C24.3284 41 25 40.3284 25 39.5C25 38.6716 24.3284 38 23.5 38C22.6716 38 22 38.6716 22 39.5C22 40.3284 22.6716 41 23.5 41Z" fill="white"/>
<path d="M16 46.6409L16.3958 46.7688C19.9117 47.9047 23.7657 46.8121 26.1625 44" stroke="white" stroke-width="2.5" stroke-linecap="round"/>
</svg>
