<svg width="current" height="current" viewBox="0 0 234 95" fill="none" xmlns="http://www.w3.org/2000/svg">
<path d="M3.51001 23.2222C3.51001 21.3862 3.96001 20.0002 4.86001 19.0642C5.76001 18.1282 7.18201 17.6602 9.12601 17.6602H18.9C21.96 17.6602 24.642 18.1462 26.946 19.1182C29.25 20.0902 31.158 21.4402 32.67 23.1682C34.218 24.8602 35.37 26.8762 36.126 29.2162C36.882 31.5562 37.26 34.0942 37.26 36.8302C37.26 39.5302 36.864 42.0502 36.072 44.3902C35.28 46.7302 34.092 48.7642 32.508 50.4922C30.96 52.2202 29.034 53.5702 26.73 54.5422C24.462 55.5142 21.834 56.0002 18.846 56.0002H9.12601C7.18201 56.0002 5.76001 55.5322 4.86001 54.5962C3.96001 53.6602 3.51001 52.2742 3.51001 50.4382V23.2222ZM9.77401 50.6002H18.846C20.826 50.6002 22.572 50.2762 24.084 49.6282C25.632 48.9442 26.91 47.9902 27.918 46.7662C28.926 45.5422 29.682 44.1022 30.186 42.4462C30.726 40.7542 30.996 38.8822 30.996 36.8302C30.996 34.7782 30.726 32.9062 30.186 31.2142C29.682 29.5222 28.908 28.0822 27.864 26.8942C26.856 25.6702 25.578 24.7342 24.03 24.0862C22.518 23.4022 20.772 23.0602 18.792 23.0602H9.77401V50.6002Z" fill="#5667EA"/>
<path d="M47.8089 42.662C47.8089 43.994 48.0069 45.236 48.4029 46.388C48.7989 47.504 49.3749 48.494 50.1309 49.358C50.8869 50.186 51.7869 50.834 52.8309 51.302C53.9109 51.77 55.1349 52.004 56.5029 52.004C57.8349 52.004 59.0409 51.77 60.1209 51.302C61.2009 50.834 62.1189 50.186 62.8749 49.358C63.6309 48.494 64.2069 47.504 64.6029 46.388C64.9989 45.236 65.1969 43.994 65.1969 42.662C65.1969 41.33 64.9989 40.088 64.6029 38.936C64.2069 37.784 63.6309 36.794 62.8749 35.966C62.1189 35.138 61.2009 34.49 60.1209 34.022C59.0409 33.518 57.8349 33.266 56.5029 33.266C55.1349 33.266 53.9109 33.518 52.8309 34.022C51.7869 34.49 50.8869 35.138 50.1309 35.966C49.3749 36.794 48.7989 37.784 48.4029 38.936C48.0069 40.088 47.8089 41.33 47.8089 42.662ZM71.1369 42.662C71.1369 44.606 70.7949 46.46 70.1109 48.224C69.4269 49.952 68.4369 51.482 67.1409 52.814C65.8809 54.11 64.3509 55.154 62.5509 55.946C60.7509 56.702 58.7349 57.08 56.5029 57.08C54.2709 57.08 52.2549 56.702 50.4549 55.946C48.6549 55.154 47.1069 54.11 45.8109 52.814C44.5509 51.482 43.5789 49.952 42.8949 48.224C42.2109 46.46 41.8689 44.606 41.8689 42.662C41.8689 40.718 42.2109 38.882 42.8949 37.154C43.5789 35.39 44.5509 33.86 45.8109 32.564C47.1069 31.232 48.6549 30.17 50.4549 29.378C52.2549 28.586 54.2709 28.19 56.5029 28.19C58.7349 28.19 60.7509 28.586 62.5509 29.378C64.3509 30.17 65.8809 31.232 67.1409 32.564C68.4369 33.86 69.4269 35.39 70.1109 37.154C70.7949 38.882 71.1369 40.718 71.1369 42.662ZM81.4007 42.662C81.4007 43.994 81.5987 45.236 81.9947 46.388C82.3907 47.504 82.9667 48.494 83.7227 49.358C84.4787 50.186 85.3787 50.834 86.4227 51.302C87.5027 51.77 88.7267 52.004 90.0947 52.004C91.4267 52.004 92.6327 51.77 93.7127 51.302C94.7927 50.834 95.7107 50.186 96.4667 49.358C97.2227 48.494 97.7987 47.504 98.1947 46.388C98.5907 45.236 98.7887 43.994 98.7887 42.662C98.7887 41.33 98.5907 40.088 98.1947 38.936C97.7987 37.784 97.2227 36.794 96.4667 35.966C95.7107 35.138 94.7927 34.49 93.7127 34.022C92.6327 33.518 91.4267 33.266 90.0947 33.266C88.7267 33.266 87.5027 33.518 86.4227 34.022C85.3787 34.49 84.4787 35.138 83.7227 35.966C82.9667 36.794 82.3907 37.784 81.9947 38.936C81.5987 40.088 81.4007 41.33 81.4007 42.662ZM104.729 42.662C104.729 44.606 104.387 46.46 103.703 48.224C103.019 49.952 102.029 51.482 100.733 52.814C99.4727 54.11 97.9427 55.154 96.1427 55.946C94.3427 56.702 92.3267 57.08 90.0947 57.08C87.8627 57.08 85.8467 56.702 84.0467 55.946C82.2467 55.154 80.6987 54.11 79.4027 52.814C78.1427 51.482 77.1707 49.952 76.4867 48.224C75.8027 46.46 75.4607 44.606 75.4607 42.662C75.4607 40.718 75.8027 38.882 76.4867 37.154C77.1707 35.39 78.1427 33.86 79.4027 32.564C80.6987 31.232 82.2467 30.17 84.0467 29.378C85.8467 28.586 87.8627 28.19 90.0947 28.19C92.3267 28.19 94.3427 28.586 96.1427 29.378C97.9427 30.17 99.4727 31.232 100.733 32.564C102.029 33.86 103.019 35.39 103.703 37.154C104.387 38.882 104.729 40.718 104.729 42.662ZM109.053 42.608C109.053 40.664 109.395 38.828 110.079 37.1C110.763 35.336 111.717 33.806 112.941 32.51C114.165 31.178 115.623 30.134 117.315 29.378C119.007 28.586 120.861 28.19 122.877 28.19C124.029 28.19 125.091 28.316 126.063 28.568C127.071 28.82 127.953 29.162 128.709 29.594C129.501 30.026 130.185 30.512 130.761 31.052C131.373 31.592 131.859 32.132 132.219 32.672V18.848C132.219 18.02 132.453 17.354 132.921 16.85C133.425 16.31 134.163 16.04 135.135 16.04C136.107 16.04 136.845 16.31 137.349 16.85C137.889 17.354 138.159 18.02 138.159 18.848V42.932C138.159 44.84 137.817 46.658 137.133 48.386C136.449 50.078 135.477 51.572 134.217 52.868C132.957 54.164 131.427 55.19 129.627 55.946C127.827 56.702 125.829 57.08 123.633 57.08C121.401 57.08 119.385 56.684 117.585 55.892C115.785 55.1 114.255 54.056 112.995 52.76C111.735 51.428 110.763 49.898 110.079 48.17C109.395 46.406 109.053 44.552 109.053 42.608ZM114.993 42.608C114.993 43.94 115.191 45.182 115.587 46.334C116.019 47.486 116.613 48.476 117.369 49.304C118.125 50.132 119.025 50.798 120.069 51.302C121.149 51.77 122.337 52.004 123.633 52.004C124.821 52.004 125.937 51.788 126.981 51.356C128.025 50.888 128.943 50.258 129.735 49.466C130.527 48.638 131.139 47.648 131.571 46.496C132.039 45.344 132.273 44.048 132.273 42.608C132.273 41.168 132.039 39.872 131.571 38.72C131.103 37.568 130.473 36.596 129.681 35.804C128.925 34.976 128.007 34.346 126.927 33.914C125.883 33.482 124.767 33.266 123.579 33.266C122.283 33.266 121.095 33.5 120.015 33.968C118.971 34.436 118.071 35.102 117.315 35.966C116.595 36.794 116.019 37.784 115.587 38.936C115.191 40.052 114.993 41.276 114.993 42.608ZM152.667 51.572C153.423 52.076 153.801 52.778 153.801 53.678C153.801 54.506 153.513 55.19 152.937 55.73C152.361 56.27 151.695 56.54 150.939 56.54C150.471 56.54 150.021 56.45 149.589 56.27C149.193 56.126 148.797 55.946 148.401 55.73C147.141 55.01 146.187 54.02 145.539 52.76C144.927 51.464 144.621 49.772 144.621 47.684V19.064C144.621 18.236 144.873 17.534 145.377 16.958C145.881 16.346 146.619 16.04 147.591 16.04C148.563 16.04 149.319 16.346 149.859 16.958C150.399 17.534 150.669 18.236 150.669 19.064V46.766C150.669 48.242 150.831 49.304 151.155 49.952C151.515 50.6 152.019 51.14 152.667 51.572ZM157.606 31.16C157.606 30.332 157.858 29.63 158.362 29.054C158.866 28.478 159.604 28.19 160.576 28.19C161.548 28.19 162.286 28.478 162.79 29.054C163.294 29.63 163.546 30.332 163.546 31.16V53.57C163.546 54.398 163.294 55.1 162.79 55.676C162.286 56.252 161.548 56.54 160.576 56.54C159.604 56.54 158.866 56.252 158.362 55.676C157.858 55.1 157.606 54.398 157.606 53.57V31.16ZM156.634 19.982C156.634 18.83 157.03 17.894 157.822 17.174C158.614 16.418 159.532 16.04 160.576 16.04C161.62 16.04 162.538 16.418 163.33 17.174C164.122 17.894 164.518 18.83 164.518 19.982C164.518 21.134 164.122 22.07 163.33 22.79C162.538 23.51 161.62 23.87 160.576 23.87C159.532 23.87 158.614 23.51 157.822 22.79C157.03 22.07 156.634 21.134 156.634 19.982ZM189.844 41.096C189.844 38.612 189.286 36.686 188.17 35.318C187.054 33.95 185.398 33.266 183.202 33.266C181.006 33.266 179.332 33.95 178.18 35.318C177.064 36.686 176.506 38.612 176.506 41.096V53.732C176.506 54.56 176.254 55.244 175.75 55.784C175.246 56.288 174.508 56.54 173.536 56.54C172.564 56.54 171.826 56.288 171.322 55.784C170.818 55.244 170.566 54.56 170.566 53.732V40.664C170.566 38.792 170.854 37.082 171.43 35.534C172.006 33.986 172.834 32.672 173.914 31.592C174.994 30.512 176.308 29.684 177.856 29.108C179.44 28.496 181.222 28.19 183.202 28.19C185.182 28.19 186.946 28.496 188.494 29.108C190.042 29.684 191.356 30.512 192.436 31.592C193.516 32.672 194.344 33.986 194.92 35.534C195.496 37.082 195.784 38.792 195.784 40.664V53.732C195.784 54.56 195.532 55.244 195.028 55.784C194.524 56.288 193.786 56.54 192.814 56.54C191.842 56.54 191.104 56.288 190.6 55.784C190.096 55.244 189.844 54.56 189.844 53.732V41.096ZM201.18 42.23C201.18 40.358 201.522 38.576 202.206 36.884C202.89 35.192 203.862 33.698 205.122 32.402C206.382 31.106 207.912 30.08 209.712 29.324C211.512 28.568 213.528 28.19 215.76 28.19C217.956 28.19 219.954 28.568 221.754 29.324C223.554 30.044 225.084 31.034 226.344 32.294C227.64 33.554 228.63 35.012 229.314 36.668C229.998 38.324 230.34 40.07 230.34 41.906V54.812C230.34 56.936 230.016 58.862 229.368 60.59C228.72 62.318 227.766 63.794 226.506 65.018C225.282 66.278 223.77 67.25 221.97 67.934C220.17 68.618 218.136 68.96 215.868 68.96C213.456 68.96 211.224 68.6 209.172 67.88C207.156 67.196 205.338 65.99 203.718 64.262C203.106 63.614 202.764 62.93 202.692 62.21C202.62 61.49 202.836 60.824 203.34 60.212C203.808 59.636 204.438 59.33 205.23 59.294C206.022 59.258 206.688 59.51 207.228 60.05C208.596 61.418 209.946 62.372 211.278 62.912C212.646 63.488 214.158 63.776 215.814 63.776C217.038 63.776 218.172 63.578 219.216 63.182C220.26 62.822 221.16 62.264 221.916 61.508C222.708 60.752 223.32 59.816 223.752 58.7C224.184 57.584 224.4 56.288 224.4 54.812V52.598C224.04 53.03 223.554 53.462 222.942 53.894C222.366 54.29 221.682 54.668 220.89 55.028C220.098 55.388 219.198 55.676 218.19 55.892C217.218 56.108 216.156 56.216 215.004 56.216C212.988 56.216 211.134 55.838 209.442 55.082C207.75 54.326 206.292 53.318 205.068 52.058C203.844 50.798 202.89 49.322 202.206 47.63C201.522 45.938 201.18 44.138 201.18 42.23ZM207.12 42.23C207.12 43.526 207.318 44.732 207.714 45.848C208.146 46.928 208.722 47.864 209.442 48.656C210.198 49.412 211.098 50.024 212.142 50.492C213.222 50.924 214.41 51.14 215.706 51.14C216.894 51.14 218.01 50.942 219.054 50.546C220.134 50.114 221.052 49.52 221.808 48.764C222.6 48.008 223.23 47.09 223.698 46.01C224.166 44.894 224.4 43.634 224.4 42.23C224.4 40.826 224.166 39.584 223.698 38.504C223.266 37.388 222.654 36.452 221.862 35.696C221.07 34.904 220.152 34.31 219.108 33.914C218.064 33.482 216.948 33.266 215.76 33.266C214.464 33.266 213.276 33.5 212.196 33.968C211.152 34.4 210.252 35.012 209.496 35.804C208.74 36.596 208.146 37.55 207.714 38.666C207.318 39.746 207.12 40.934 207.12 42.23Z" fill="#2B234A"/>
<path d="M16.5 43C17.3284 43 18 42.3284 18 41.5C18 40.6716 17.3284 40 16.5 40C15.6716 40 15 40.6716 15 41.5C15 42.3284 15.6716 43 16.5 43Z" fill="#5667EA"/>
<path d="M23.5 41C24.3284 41 25 40.3284 25 39.5C25 38.6716 24.3284 38 23.5 38C22.6716 38 22 38.6716 22 39.5C22 40.3284 22.6716 41 23.5 41Z" fill="#5667EA"/>
<path d="M16 46.6404L16.3958 46.7683C19.9117 47.9042 23.7657 46.8116 26.1625 43.9995" stroke="#5667EA" stroke-width="2.5" stroke-linecap="round"/>
<path d="M38.0106 79.244C39.1026 79.244 39.9366 79.526 40.5126 80.09C41.0886 80.654 41.3766 81.542 41.3766 82.754V89H40.3686V82.808C40.3686 81.884 40.1586 81.206 39.7386 80.774C39.3186 80.342 38.7006 80.126 37.8846 80.126C36.8406 80.126 36.0546 80.432 35.5266 81.044C34.9986 81.656 34.7346 82.568 34.7346 83.78V89H33.7266V79.424H34.5366L34.6986 81.08H34.7526C34.9326 80.732 35.1726 80.42 35.4726 80.144C35.7726 79.868 36.1326 79.652 36.5526 79.496C36.9846 79.328 37.4706 79.244 38.0106 79.244ZM52.4417 84.212C52.4417 84.956 52.3457 85.634 52.1537 86.246C51.9737 86.846 51.6977 87.368 51.3257 87.812C50.9657 88.244 50.5157 88.58 49.9757 88.82C49.4357 89.06 48.8177 89.18 48.1217 89.18C47.4617 89.18 46.8677 89.066 46.3397 88.838C45.8237 88.598 45.3797 88.262 45.0077 87.83C44.6357 87.386 44.3537 86.858 44.1617 86.246C43.9697 85.634 43.8737 84.956 43.8737 84.212C43.8737 83.168 44.0417 82.28 44.3777 81.548C44.7257 80.804 45.2237 80.234 45.8717 79.838C46.5317 79.442 47.3117 79.244 48.2117 79.244C49.1237 79.244 49.8917 79.454 50.5157 79.874C51.1517 80.282 51.6317 80.858 51.9557 81.602C52.2797 82.346 52.4417 83.216 52.4417 84.212ZM44.9357 84.212C44.9357 85.028 45.0497 85.748 45.2777 86.372C45.5057 86.984 45.8597 87.458 46.3397 87.794C46.8197 88.13 47.4197 88.298 48.1397 88.298C48.8837 88.298 49.4957 88.13 49.9757 87.794C50.4557 87.446 50.8097 86.966 51.0377 86.354C51.2657 85.73 51.3797 85.016 51.3797 84.212C51.3797 83.408 51.2717 82.7 51.0557 82.088C50.8397 81.476 50.4977 80.996 50.0297 80.648C49.5617 80.3 48.9497 80.126 48.1937 80.126C47.1017 80.126 46.2857 80.486 45.7457 81.206C45.2057 81.926 44.9357 82.928 44.9357 84.212ZM57.7488 88.316C58.0128 88.316 58.2648 88.298 58.5048 88.262C58.7448 88.214 58.9548 88.16 59.1348 88.1V88.928C58.9548 89 58.7268 89.06 58.4508 89.108C58.1868 89.156 57.9048 89.18 57.6048 89.18C57.0768 89.18 56.6268 89.084 56.2548 88.892C55.8828 88.688 55.5948 88.376 55.3908 87.956C55.1988 87.536 55.1028 86.996 55.1028 86.336V80.252H53.6988V79.676L55.1028 79.352L55.4808 77.138H56.1288V79.424H59.0808V80.252H56.1288V86.3C56.1288 86.96 56.2608 87.464 56.5248 87.812C56.7888 88.148 57.1968 88.316 57.7488 88.316ZM64.784 79.244C65.612 79.244 66.296 79.436 66.836 79.82C67.388 80.192 67.802 80.708 68.078 81.368C68.366 82.028 68.51 82.79 68.51 83.654V84.338H61.67C61.67 85.622 61.964 86.6 62.552 87.272C63.152 87.944 63.998 88.28 65.09 88.28C65.69 88.28 66.212 88.232 66.656 88.136C67.1 88.04 67.586 87.872 68.114 87.632V88.568C67.634 88.784 67.16 88.94 66.692 89.036C66.224 89.132 65.678 89.18 65.054 89.18C64.106 89.18 63.296 88.982 62.624 88.586C61.964 88.19 61.46 87.626 61.112 86.894C60.776 86.15 60.608 85.286 60.608 84.302C60.608 83.318 60.77 82.448 61.094 81.692C61.418 80.936 61.892 80.342 62.516 79.91C63.14 79.466 63.896 79.244 64.784 79.244ZM64.784 80.108C63.896 80.108 63.182 80.402 62.642 80.99C62.102 81.566 61.784 82.4 61.688 83.492H67.448C67.448 82.82 67.352 82.232 67.16 81.728C66.968 81.224 66.674 80.828 66.278 80.54C65.894 80.252 65.396 80.108 64.784 80.108ZM70.2337 84.608V83.69H74.5897V84.608H70.2337ZM79.5985 88.316C79.8625 88.316 80.1145 88.298 80.3545 88.262C80.5945 88.214 80.8045 88.16 80.9845 88.1V88.928C80.8045 89 80.5765 89.06 80.3005 89.108C80.0365 89.156 79.7545 89.18 79.4545 89.18C78.9265 89.18 78.4765 89.084 78.1045 88.892C77.7325 88.688 77.4445 88.376 77.2405 87.956C77.0485 87.536 76.9525 86.996 76.9525 86.336V80.252H75.5485V79.676L76.9525 79.352L77.3305 77.138H77.9785V79.424H80.9305V80.252H77.9785V86.3C77.9785 86.96 78.1105 87.464 78.3745 87.812C78.6385 88.148 79.0465 88.316 79.5985 88.316ZM86.3996 79.262C87.4796 79.262 88.2836 79.526 88.8116 80.054C89.3396 80.582 89.6036 81.422 89.6036 82.574V89H88.8296L88.6496 87.38H88.5956C88.3676 87.74 88.1036 88.058 87.8036 88.334C87.5156 88.598 87.1616 88.808 86.7416 88.964C86.3336 89.108 85.8296 89.18 85.2296 89.18C84.6296 89.18 84.1076 89.078 83.6636 88.874C83.2196 88.658 82.8776 88.352 82.6376 87.956C82.3976 87.56 82.2776 87.074 82.2776 86.498C82.2776 85.55 82.6676 84.83 83.4476 84.338C84.2276 83.834 85.3616 83.546 86.8496 83.474L88.5956 83.402V82.718C88.5956 81.77 88.4036 81.104 88.0196 80.72C87.6476 80.324 87.0896 80.126 86.3456 80.126C85.8536 80.126 85.3796 80.192 84.9236 80.324C84.4796 80.444 84.0296 80.618 83.5736 80.846L83.2496 80.036C83.6936 79.808 84.1856 79.622 84.7256 79.478C85.2656 79.334 85.8236 79.262 86.3996 79.262ZM86.9576 84.23C85.7456 84.29 84.8396 84.506 84.2396 84.878C83.6396 85.238 83.3396 85.784 83.3396 86.516C83.3396 87.104 83.5256 87.554 83.8976 87.866C84.2696 88.166 84.7736 88.316 85.4096 88.316C86.4296 88.316 87.2096 88.034 87.7496 87.47C88.3016 86.906 88.5836 86.114 88.5956 85.094V84.158L86.9576 84.23ZM93.674 82.268C93.674 82.652 93.668 83.054 93.656 83.474C93.644 83.882 93.632 84.29 93.62 84.698H93.656C93.764 84.566 93.878 84.428 93.998 84.284C94.118 84.128 94.244 83.978 94.376 83.834C94.508 83.678 94.634 83.534 94.754 83.402L98.39 79.424H99.614L95.816 83.528L99.938 89H98.714L95.114 84.194L93.674 85.688V89H92.666V75.32H93.674V82.268ZM102.569 79.424V89H101.561V79.424H102.569ZM102.065 75.878C102.293 75.878 102.467 75.95 102.587 76.094C102.707 76.226 102.767 76.412 102.767 76.652C102.767 76.904 102.707 77.102 102.587 77.246C102.467 77.378 102.293 77.444 102.065 77.444C101.849 77.444 101.681 77.378 101.561 77.246C101.441 77.102 101.381 76.904 101.381 76.652C101.381 76.412 101.441 76.226 101.561 76.094C101.681 75.95 101.849 75.878 102.065 75.878ZM110.028 79.244C111.12 79.244 111.954 79.526 112.53 80.09C113.106 80.654 113.394 81.542 113.394 82.754V89H112.386V82.808C112.386 81.884 112.176 81.206 111.756 80.774C111.336 80.342 110.718 80.126 109.902 80.126C108.858 80.126 108.072 80.432 107.544 81.044C107.016 81.656 106.752 82.568 106.752 83.78V89H105.744V79.424H106.554L106.716 81.08H106.77C106.95 80.732 107.19 80.42 107.49 80.144C107.79 79.868 108.15 79.652 108.57 79.496C109.002 79.328 109.488 79.244 110.028 79.244ZM119.959 79.244C120.715 79.244 121.339 79.394 121.831 79.694C122.323 79.982 122.719 80.378 123.019 80.882H123.091L123.235 79.424H124.063V89.306C124.063 90.146 123.919 90.86 123.631 91.448C123.343 92.048 122.893 92.51 122.281 92.834C121.681 93.158 120.895 93.32 119.923 93.32C119.215 93.32 118.579 93.26 118.015 93.14C117.463 93.02 116.965 92.864 116.521 92.672V91.682C116.821 91.826 117.151 91.958 117.511 92.078C117.871 92.198 118.255 92.288 118.663 92.348C119.083 92.408 119.521 92.438 119.977 92.438C121.033 92.438 121.807 92.162 122.299 91.61C122.803 91.058 123.055 90.314 123.055 89.378V88.802C123.055 88.55 123.055 88.298 123.055 88.046C123.067 87.782 123.079 87.536 123.091 87.308H123.037C122.761 87.92 122.353 88.388 121.813 88.712C121.273 89.024 120.613 89.18 119.833 89.18C118.597 89.18 117.631 88.76 116.935 87.92C116.239 87.08 115.891 85.874 115.891 84.302C115.891 83.258 116.047 82.358 116.359 81.602C116.671 80.846 117.127 80.264 117.727 79.856C118.339 79.448 119.083 79.244 119.959 79.244ZM120.067 80.126C119.371 80.126 118.789 80.294 118.321 80.63C117.865 80.954 117.523 81.428 117.295 82.052C117.067 82.664 116.953 83.414 116.953 84.302C116.953 85.61 117.211 86.606 117.727 87.29C118.243 87.974 118.981 88.316 119.941 88.316C120.553 88.316 121.057 88.226 121.453 88.046C121.849 87.854 122.161 87.59 122.389 87.254C122.629 86.918 122.797 86.522 122.893 86.066C123.001 85.598 123.055 85.1 123.055 84.572V83.942C123.055 83.126 122.959 82.436 122.767 81.872C122.575 81.308 122.257 80.876 121.813 80.576C121.381 80.276 120.799 80.126 120.067 80.126ZM135.284 79.262C136.364 79.262 137.168 79.526 137.696 80.054C138.224 80.582 138.488 81.422 138.488 82.574V89H137.714L137.534 87.38H137.48C137.252 87.74 136.988 88.058 136.688 88.334C136.4 88.598 136.046 88.808 135.626 88.964C135.218 89.108 134.714 89.18 134.114 89.18C133.514 89.18 132.992 89.078 132.548 88.874C132.104 88.658 131.762 88.352 131.522 87.956C131.282 87.56 131.162 87.074 131.162 86.498C131.162 85.55 131.552 84.83 132.332 84.338C133.112 83.834 134.246 83.546 135.734 83.474L137.48 83.402V82.718C137.48 81.77 137.288 81.104 136.904 80.72C136.532 80.324 135.974 80.126 135.23 80.126C134.738 80.126 134.264 80.192 133.808 80.324C133.364 80.444 132.914 80.618 132.458 80.846L132.134 80.036C132.578 79.808 133.07 79.622 133.61 79.478C134.15 79.334 134.708 79.262 135.284 79.262ZM135.842 84.23C134.63 84.29 133.724 84.506 133.124 84.878C132.524 85.238 132.224 85.784 132.224 86.516C132.224 87.104 132.41 87.554 132.782 87.866C133.154 88.166 133.658 88.316 134.294 88.316C135.314 88.316 136.094 88.034 136.634 87.47C137.186 86.906 137.468 86.114 137.48 85.094V84.158L135.842 84.23ZM147.563 86.462C147.563 87.038 147.419 87.53 147.131 87.938C146.843 88.346 146.423 88.658 145.871 88.874C145.319 89.078 144.647 89.18 143.855 89.18C143.195 89.18 142.607 89.12 142.091 89C141.575 88.88 141.137 88.736 140.777 88.568V87.578C141.209 87.794 141.695 87.974 142.235 88.118C142.775 88.25 143.321 88.316 143.873 88.316C144.833 88.316 145.523 88.16 145.943 87.848C146.363 87.524 146.573 87.086 146.573 86.534C146.573 86.174 146.471 85.88 146.267 85.652C146.075 85.412 145.781 85.202 145.385 85.022C145.001 84.83 144.521 84.638 143.945 84.446C143.357 84.242 142.835 84.038 142.379 83.834C141.923 83.618 141.569 83.348 141.317 83.024C141.065 82.7 140.939 82.256 140.939 81.692C140.939 80.924 141.251 80.324 141.875 79.892C142.499 79.46 143.333 79.244 144.377 79.244C144.953 79.244 145.487 79.298 145.979 79.406C146.483 79.514 146.939 79.658 147.347 79.838L146.987 80.684C146.747 80.576 146.477 80.48 146.177 80.396C145.877 80.3 145.571 80.228 145.259 80.18C144.947 80.132 144.635 80.108 144.323 80.108C143.567 80.108 142.979 80.24 142.559 80.504C142.139 80.768 141.929 81.152 141.929 81.656C141.929 82.04 142.025 82.346 142.217 82.574C142.421 82.79 142.715 82.976 143.099 83.132C143.495 83.288 143.969 83.468 144.521 83.672C145.085 83.864 145.595 84.068 146.051 84.284C146.519 84.5 146.885 84.776 147.149 85.112C147.425 85.448 147.563 85.898 147.563 86.462ZM155.983 86.462C155.983 87.038 155.839 87.53 155.551 87.938C155.263 88.346 154.843 88.658 154.291 88.874C153.739 89.078 153.067 89.18 152.275 89.18C151.615 89.18 151.027 89.12 150.511 89C149.995 88.88 149.557 88.736 149.197 88.568V87.578C149.629 87.794 150.115 87.974 150.655 88.118C151.195 88.25 151.741 88.316 152.293 88.316C153.253 88.316 153.943 88.16 154.363 87.848C154.783 87.524 154.993 87.086 154.993 86.534C154.993 86.174 154.891 85.88 154.687 85.652C154.495 85.412 154.201 85.202 153.805 85.022C153.421 84.83 152.941 84.638 152.365 84.446C151.777 84.242 151.255 84.038 150.799 83.834C150.343 83.618 149.989 83.348 149.737 83.024C149.485 82.7 149.359 82.256 149.359 81.692C149.359 80.924 149.671 80.324 150.295 79.892C150.919 79.46 151.753 79.244 152.797 79.244C153.373 79.244 153.907 79.298 154.399 79.406C154.903 79.514 155.359 79.658 155.767 79.838L155.407 80.684C155.167 80.576 154.897 80.48 154.597 80.396C154.297 80.3 153.991 80.228 153.679 80.18C153.367 80.132 153.055 80.108 152.743 80.108C151.987 80.108 151.399 80.24 150.979 80.504C150.559 80.768 150.349 81.152 150.349 81.656C150.349 82.04 150.445 82.346 150.637 82.574C150.841 82.79 151.135 82.976 151.519 83.132C151.915 83.288 152.389 83.468 152.941 83.672C153.505 83.864 154.015 84.068 154.471 84.284C154.939 84.5 155.305 84.776 155.569 85.112C155.845 85.448 155.983 85.898 155.983 86.462ZM159.399 79.424V89H158.391V79.424H159.399ZM158.895 75.878C159.123 75.878 159.297 75.95 159.417 76.094C159.537 76.226 159.597 76.412 159.597 76.652C159.597 76.904 159.537 77.102 159.417 77.246C159.297 77.378 159.123 77.444 158.895 77.444C158.679 77.444 158.511 77.378 158.391 77.246C158.271 77.102 158.211 76.904 158.211 76.652C158.211 76.412 158.271 76.226 158.391 76.094C158.511 75.95 158.679 75.878 158.895 75.878ZM168.586 86.462C168.586 87.038 168.442 87.53 168.154 87.938C167.866 88.346 167.446 88.658 166.894 88.874C166.342 89.078 165.67 89.18 164.878 89.18C164.218 89.18 163.63 89.12 163.114 89C162.598 88.88 162.16 88.736 161.8 88.568V87.578C162.232 87.794 162.718 87.974 163.258 88.118C163.798 88.25 164.344 88.316 164.896 88.316C165.856 88.316 166.546 88.16 166.966 87.848C167.386 87.524 167.596 87.086 167.596 86.534C167.596 86.174 167.494 85.88 167.29 85.652C167.098 85.412 166.804 85.202 166.408 85.022C166.024 84.83 165.544 84.638 164.968 84.446C164.38 84.242 163.858 84.038 163.402 83.834C162.946 83.618 162.592 83.348 162.34 83.024C162.088 82.7 161.962 82.256 161.962 81.692C161.962 80.924 162.274 80.324 162.898 79.892C163.522 79.46 164.356 79.244 165.4 79.244C165.976 79.244 166.51 79.298 167.002 79.406C167.506 79.514 167.962 79.658 168.37 79.838L168.01 80.684C167.77 80.576 167.5 80.48 167.2 80.396C166.9 80.3 166.594 80.228 166.282 80.18C165.97 80.132 165.658 80.108 165.346 80.108C164.59 80.108 164.002 80.24 163.582 80.504C163.162 80.768 162.952 81.152 162.952 81.656C162.952 82.04 163.048 82.346 163.24 82.574C163.444 82.79 163.738 82.976 164.122 83.132C164.518 83.288 164.992 83.468 165.544 83.672C166.108 83.864 166.618 84.068 167.074 84.284C167.542 84.5 167.908 84.776 168.172 85.112C168.448 85.448 168.586 85.898 168.586 86.462ZM173.694 88.316C173.958 88.316 174.21 88.298 174.45 88.262C174.69 88.214 174.9 88.16 175.08 88.1V88.928C174.9 89 174.672 89.06 174.396 89.108C174.132 89.156 173.85 89.18 173.55 89.18C173.022 89.18 172.572 89.084 172.2 88.892C171.828 88.688 171.54 88.376 171.336 87.956C171.144 87.536 171.048 86.996 171.048 86.336V80.252H169.644V79.676L171.048 79.352L171.426 77.138H172.074V79.424H175.026V80.252H172.074V86.3C172.074 86.96 172.206 87.464 172.47 87.812C172.734 88.148 173.142 88.316 173.694 88.316ZM180.495 79.262C181.575 79.262 182.379 79.526 182.907 80.054C183.435 80.582 183.699 81.422 183.699 82.574V89H182.925L182.745 87.38H182.691C182.463 87.74 182.199 88.058 181.899 88.334C181.611 88.598 181.257 88.808 180.837 88.964C180.429 89.108 179.925 89.18 179.325 89.18C178.725 89.18 178.203 89.078 177.759 88.874C177.315 88.658 176.973 88.352 176.733 87.956C176.493 87.56 176.373 87.074 176.373 86.498C176.373 85.55 176.763 84.83 177.543 84.338C178.323 83.834 179.457 83.546 180.945 83.474L182.691 83.402V82.718C182.691 81.77 182.499 81.104 182.115 80.72C181.743 80.324 181.185 80.126 180.441 80.126C179.949 80.126 179.475 80.192 179.019 80.324C178.575 80.444 178.125 80.618 177.669 80.846L177.345 80.036C177.789 79.808 178.281 79.622 178.821 79.478C179.361 79.334 179.919 79.262 180.495 79.262ZM181.053 84.23C179.841 84.29 178.935 84.506 178.335 84.878C177.735 85.238 177.435 85.784 177.435 86.516C177.435 87.104 177.621 87.554 177.993 87.866C178.365 88.166 178.869 88.316 179.505 88.316C180.525 88.316 181.305 88.034 181.845 87.47C182.397 86.906 182.679 86.114 182.691 85.094V84.158L181.053 84.23ZM191.046 79.244C192.138 79.244 192.972 79.526 193.548 80.09C194.124 80.654 194.412 81.542 194.412 82.754V89H193.404V82.808C193.404 81.884 193.194 81.206 192.774 80.774C192.354 80.342 191.736 80.126 190.92 80.126C189.876 80.126 189.09 80.432 188.562 81.044C188.034 81.656 187.77 82.568 187.77 83.78V89H186.762V79.424H187.572L187.734 81.08H187.788C187.968 80.732 188.208 80.42 188.508 80.144C188.808 79.868 189.168 79.652 189.588 79.496C190.02 79.328 190.506 79.244 191.046 79.244ZM200.167 88.316C200.431 88.316 200.683 88.298 200.923 88.262C201.163 88.214 201.373 88.16 201.553 88.1V88.928C201.373 89 201.145 89.06 200.869 89.108C200.605 89.156 200.323 89.18 200.023 89.18C199.495 89.18 199.045 89.084 198.673 88.892C198.301 88.688 198.013 88.376 197.809 87.956C197.617 87.536 197.521 86.996 197.521 86.336V80.252H196.117V79.676L197.521 79.352L197.899 77.138H198.547V79.424H201.499V80.252H198.547V86.3C198.547 86.96 198.679 87.464 198.943 87.812C199.207 88.148 199.615 88.316 200.167 88.316Z" fill="#2B234A"/>
</svg>
