<svg width="current" height="current" viewBox="0 0 676 490" fill="none" xmlns="http://www.w3.org/2000/svg">
<g id="undraw_brainstorming_re_1lmw 1" clip-path="url(#clip0_13_545)">
<path id="Vector" d="M135.448 464.693C134.4 472.925 131.061 480.587 127.112 487.965C126.755 488.647 126.389 489.329 126.012 490H60.4003C59.0569 489.379 57.7334 488.698 56.4407 487.965C54.7271 486.991 53.0658 485.928 51.4637 484.78C32.1138 470.849 24.6631 444.504 28.0323 420.906C30.1188 406.232 36.5515 391.263 49.092 383.367C55.8992 379.223 64.0206 377.802 71.831 379.388C72.0244 379.419 72.2281 379.47 72.4314 379.51C75.6821 380.137 78.7631 381.446 81.4719 383.349C84.1807 385.251 86.4558 387.706 88.1477 390.551C94.1222 401.165 90.5701 414.312 87.6283 426.126C84.697 437.94 83.1091 452.085 91.6183 460.795C90.372 457.152 90.1185 453.243 90.8838 449.47C91.6491 445.696 93.4055 442.195 95.9727 439.325C98.5399 436.455 101.825 434.32 105.491 433.139C109.157 431.959 113.071 431.776 116.831 432.608C117.452 432.74 118.053 432.893 118.653 433.076C120.099 433.493 121.492 434.073 122.806 434.806C132.832 440.403 136.893 453.306 135.448 464.693Z" fill="#F2F2F2"/>
<path id="Vector_2" d="M89.4198 487.965C91.0381 488.708 92.6835 489.386 94.356 490H89.6941C88.2797 489.369 86.8851 488.698 85.5108 487.965C78.7863 484.491 72.8101 479.73 67.9223 473.953C64.9317 470.386 62.4891 466.394 60.6749 462.108C58.7046 457.262 57.453 452.154 56.9598 446.946C56.0558 436.184 56.7764 425.348 59.0975 414.8C61.2746 403.925 64.7963 393.363 69.5813 383.357C70.1514 382.156 70.7517 380.965 71.3626 379.785C71.404 379.687 71.468 379.6 71.5493 379.531C71.6306 379.462 71.727 379.413 71.8307 379.388C71.9338 379.366 72.0404 379.365 72.1438 379.386C72.2471 379.407 72.345 379.449 72.4311 379.51C72.6434 379.63 72.8012 379.827 72.8714 380.06C72.9417 380.293 72.9189 380.545 72.8079 380.762C67.8724 390.373 64.1362 400.554 61.6829 411.076C59.1452 421.391 58.0322 432.004 58.3748 442.621C58.8122 452.471 61.3877 462.169 67.2405 470.228C72.6865 477.554 79.848 483.431 88.0963 487.344C88.5342 487.558 88.9716 487.761 89.4198 487.965Z" fill="white"/>
<path id="Vector_3" d="M117.075 487.965C117.523 488.657 118.001 489.339 118.52 490H116.352C115.874 489.339 115.426 488.657 114.988 487.965C111.602 482.625 109.257 476.694 108.077 470.483C106.184 460.175 107.661 449.531 112.291 440.128C113.58 437.493 115.099 434.976 116.831 432.608C117.451 432.74 118.052 432.893 118.653 433.076C114.093 439.113 111.027 446.143 109.705 453.591C108.021 463.395 109.478 473.481 113.868 482.409C114.804 484.335 115.875 486.192 117.075 487.965Z" fill="white"/>
<path id="Vector_4" d="M674.736 30.8045H461.052C460.717 30.8045 460.395 30.6713 460.158 30.4342C459.921 30.1972 459.788 29.8757 459.788 29.5404C459.788 29.2052 459.921 28.8836 460.158 28.6466C460.395 28.4095 460.717 28.2764 461.052 28.2764H674.736C675.071 28.2764 675.393 28.4095 675.63 28.6466C675.867 28.8836 676 29.2052 676 29.5404C676 29.8757 675.867 30.1972 675.63 30.4342C675.393 30.6713 675.071 30.8045 674.736 30.8045Z" fill="#3F3D56"/>
<path id="Vector_5" d="M605.194 10.1124H533.123C531.782 10.1124 530.495 9.57973 529.547 8.6315C528.598 7.68328 528.065 6.39721 528.065 5.05622C528.065 3.71522 528.598 2.42915 529.547 1.48093C530.495 0.532703 531.782 0 533.123 0H605.194C606.535 0 607.822 0.532703 608.77 1.48093C609.719 2.42915 610.251 3.71522 610.251 5.05622C610.251 6.39721 609.719 7.68328 608.77 8.6315C607.822 9.57973 606.535 10.1124 605.194 10.1124Z" fill="#CCCCCC"/>
<path id="Vector_6" d="M529.792 250.149C529.276 249.498 528.917 248.737 528.74 247.925C528.563 247.114 528.573 246.272 528.771 245.466C533.486 225.718 533.486 205.139 528.77 185.391C528.573 184.584 528.563 183.743 528.74 182.932C528.917 182.12 529.276 181.359 529.792 180.708C530.296 180.065 530.94 179.546 531.675 179.19C532.41 178.834 533.217 178.65 534.034 178.653H584.448C585.737 178.655 586.982 179.115 587.963 179.949C588.944 180.784 589.597 181.94 589.806 183.211C593.094 204.563 593.094 226.293 589.806 247.646C589.597 248.917 588.944 250.073 587.963 250.907C586.982 251.742 585.737 252.202 584.448 252.204H534.034C533.217 252.207 532.41 252.023 531.675 251.667C530.94 251.311 530.296 250.792 529.792 250.149Z" fill="#E6E6E6"/>
<path id="Vector_7" d="M598.613 163.46C595.325 142.107 595.325 120.377 598.613 99.0246C598.822 97.7538 599.475 96.5981 600.456 95.7634C601.437 94.9287 602.682 94.4693 603.97 94.4668H654.385C655.202 94.4642 656.009 94.648 656.744 95.0043C657.479 95.3605 658.123 95.8798 658.628 96.5225C659.143 97.174 659.503 97.9344 659.679 98.7459C659.856 99.5574 659.846 100.398 659.648 101.205C654.932 120.953 654.932 141.532 659.648 161.28C659.846 162.086 659.856 162.927 659.679 163.739C659.503 164.55 659.143 165.311 658.628 165.962C658.123 166.605 657.479 167.124 656.744 167.481C656.009 167.837 655.202 168.021 654.385 168.018H603.97C602.682 168.016 601.437 167.556 600.456 166.721C599.475 165.887 598.822 164.731 598.613 163.46Z" fill="#2B234A"/>
<path id="Vector_8" d="M484.741 144.363C484.217 143.701 483.851 142.928 483.671 142.103C483.492 141.278 483.502 140.423 483.703 139.603C488.497 119.531 488.496 98.6131 483.703 78.5415C483.502 77.7213 483.491 76.8663 483.671 76.0413C483.851 75.2164 484.217 74.4434 484.741 73.7811C485.253 73.128 485.908 72.6004 486.655 72.2385C487.402 71.8766 488.222 71.6898 489.053 71.6924H540.295C541.605 71.6949 542.871 72.1619 543.868 73.0102C544.865 73.8586 545.529 75.0333 545.741 76.3251C549.083 98.0286 549.083 120.116 545.741 141.819C545.529 143.111 544.865 144.286 543.868 145.134C542.871 145.982 541.605 146.449 540.295 146.452H489.053C488.222 146.455 487.402 146.268 486.655 145.906C485.908 145.544 485.253 145.016 484.741 144.363Z" fill="#2B234A"/>
<path id="Vector_9" d="M530.407 99.2762H503.413C502.407 99.2751 501.443 98.8752 500.732 98.1643C500.021 97.4533 499.621 96.4894 499.62 95.484V93.8737C499.621 92.8683 500.021 91.9044 500.732 91.1935C501.443 90.4825 502.407 90.0826 503.413 90.0815H530.407C531.413 90.0826 532.377 90.4825 533.088 91.1935C533.799 91.9044 534.199 92.8683 534.2 93.8737V95.484C534.199 96.4894 533.799 97.4533 533.088 98.1643C532.377 98.8752 531.413 99.2751 530.407 99.2762Z" fill="white"/>
<path id="Vector_10" d="M530.407 115.137H503.413C502.407 115.135 501.443 114.736 500.732 114.025C500.021 113.314 499.621 112.35 499.62 111.344V109.734C499.621 108.729 500.021 107.765 500.732 107.054C501.443 106.343 502.407 105.943 503.413 105.942H530.407C531.413 105.943 532.377 106.343 533.088 107.054C533.799 107.765 534.199 108.729 534.2 109.734V111.344C534.199 112.35 533.799 113.314 533.088 114.025C532.377 114.736 531.413 115.135 530.407 115.137Z" fill="white"/>
<path id="Vector_11" d="M574.079 203.209H547.624C546.618 203.208 545.654 202.808 544.943 202.097C544.232 201.386 543.832 200.422 543.831 199.417V197.935C543.832 196.929 544.232 195.965 544.943 195.254C545.654 194.544 546.618 194.144 547.624 194.143H574.079C575.085 194.144 576.049 194.544 576.76 195.254C577.471 195.965 577.871 196.929 577.872 197.935V199.417C577.871 200.422 577.471 201.386 576.76 202.097C576.049 202.808 575.085 203.208 574.079 203.209Z" fill="white"/>
<path id="Vector_12" d="M574.079 221.934H547.624C546.618 221.933 545.654 221.533 544.943 220.822C544.232 220.111 543.832 219.147 543.831 218.142V216.66C543.832 215.654 544.232 214.691 544.943 213.98C545.654 213.269 546.618 212.869 547.624 212.868H574.079C575.085 212.869 576.049 213.269 576.76 213.98C577.471 214.691 577.871 215.654 577.872 216.66V218.142C577.871 219.147 577.471 220.111 576.76 220.822C576.049 221.533 575.085 221.933 574.079 221.934Z" fill="white"/>
<path id="Vector_13" d="M574.079 240.659H547.624C546.618 240.657 545.654 240.258 544.943 239.547C544.232 238.836 543.832 237.872 543.831 236.866V235.384C543.832 234.379 544.232 233.415 544.943 232.704C545.654 231.993 546.618 231.593 547.624 231.592H574.079C575.085 231.593 576.049 231.993 576.76 232.704C577.471 233.415 577.871 234.379 577.872 235.384V236.866C577.871 237.872 577.471 238.836 576.76 239.547C576.049 240.258 575.085 240.657 574.079 240.659Z" fill="white"/>
<path id="Vector_14" d="M639.792 127.221H613.336C612.33 127.219 611.366 126.82 610.655 126.109C609.944 125.398 609.544 124.434 609.543 123.428V121.946C609.544 120.941 609.944 119.977 610.655 119.266C611.366 118.555 612.33 118.155 613.336 118.154H639.792C640.798 118.155 641.762 118.555 642.473 119.266C643.184 119.977 643.584 120.941 643.585 121.946V123.428C643.584 124.434 643.184 125.398 642.473 126.109C641.762 126.82 640.798 127.219 639.792 127.221Z" fill="white"/>
<path id="Vector_15" d="M179.211 362.692V365.22C179.215 369.41 180.881 373.427 183.844 376.389C186.807 379.352 190.825 381.017 195.016 381.021H308.812C313.003 381.02 317.022 379.354 319.986 376.391C322.95 373.429 324.615 369.411 324.617 365.22V362.692C324.625 358.995 323.326 355.413 320.95 352.58C320.159 351.639 319.264 350.791 318.282 350.052C318.282 350.052 255.719 348.636 255.719 346.892H195.016C190.826 346.897 186.809 348.564 183.847 351.526C180.884 354.488 179.217 358.503 179.211 362.692Z" fill="#CCCCCC"/>
<path id="Vector_16" d="M261.047 380.394H244.61V486.574H261.047V380.394Z" fill="#CCCCCC"/>
<path id="Vector_17" d="M307.83 485.997C307.83 487.772 282.922 486.683 252.196 486.683C221.471 486.683 196.563 487.772 196.563 485.997C196.563 484.221 221.471 470.141 252.196 470.141C282.922 470.141 307.83 484.221 307.83 485.997Z" fill="#CCCCCC"/>
<path id="Vector_18" d="M285.232 360.548C286.418 358.956 287.241 357.123 287.643 355.179C288.044 353.235 288.014 351.226 287.555 349.295C287.097 347.364 286.22 345.556 284.986 344C283.753 342.444 282.194 341.177 280.418 340.289L245.58 221.613L219.052 234.602L261.638 347.173C260.343 350.254 260.224 353.703 261.303 356.867C262.382 360.03 264.584 362.688 267.492 364.337C270.4 365.986 273.813 366.511 277.082 365.812C280.352 365.114 283.251 363.241 285.232 360.548Z" fill="#A0616A"/>
<path id="Vector_19" d="M253.472 241.432L223.781 249.468C222.936 249.696 222.052 249.74 221.189 249.596C220.325 249.453 219.503 249.125 218.778 248.634C218.053 248.144 217.442 247.504 216.987 246.756C216.532 246.009 216.244 245.172 216.141 244.303L212.552 213.856C211.407 209.528 212.024 204.922 214.27 201.049C216.516 197.176 220.206 194.351 224.532 193.194C228.858 192.037 233.466 192.642 237.346 194.876C241.227 197.111 244.062 200.793 245.231 205.114L257.463 233.12C257.813 233.922 257.986 234.79 257.97 235.665C257.954 236.54 257.75 237.401 257.372 238.19C256.993 238.979 256.448 239.677 255.776 240.236C255.103 240.796 254.317 241.204 253.472 241.432Z" fill="#2B234A"/>
<path id="Vector_20" d="M292.992 473.551L308.492 473.55L315.867 433.358H292.989L292.992 473.551Z" fill="#A0616A"/>
<path id="Vector_21" d="M289.037 468.492L319.565 468.49C322.119 468.49 324.65 468.993 327.011 469.971C329.371 470.948 331.516 472.381 333.322 474.187C335.129 475.993 336.562 478.137 337.54 480.496C338.517 482.856 339.02 485.385 339.02 487.939V488.571L289.038 488.573L289.037 468.492Z" fill="#2F2E41"/>
<path id="Vector_22" d="M310.984 451.998C310.803 451.998 310.622 451.989 310.44 451.972L288.988 450.41C288.12 450.33 287.283 450.051 286.54 449.596C285.797 449.141 285.169 448.521 284.703 447.785C284.238 447.048 283.948 446.215 283.856 445.349C283.763 444.483 283.871 443.607 284.171 442.789L312.881 378.304C313.086 377.729 313.17 377.118 313.128 376.509C313.085 375.9 312.916 375.307 312.633 374.766C312.35 374.219 311.955 373.738 311.473 373.355C310.992 372.971 310.434 372.694 309.837 372.542C296.337 369.014 261.699 359.62 231.715 348.628C218.868 343.919 210.778 337.113 207.667 328.401C203.567 316.914 209.633 306.439 209.893 306L210.097 305.655L238.311 308.219L268.899 310.82L335.929 346.754C341.545 349.791 345.812 354.831 347.878 360.871C349.944 366.911 349.659 373.508 347.079 379.347L316.176 448.627C315.729 449.63 315.001 450.482 314.079 451.081C313.158 451.679 312.083 451.998 310.984 451.998Z" fill="#2F2E41"/>
<path id="Vector_23" d="M243.218 180.64C260.369 180.64 274.272 166.74 274.272 149.593C274.272 132.447 260.369 118.547 243.218 118.547C226.066 118.547 212.163 132.447 212.163 149.593C212.163 166.74 226.066 180.64 243.218 180.64Z" fill="#A0616A"/>
<path id="Vector_24" d="M284.141 472.287L299.641 472.286L307.016 432.094H284.138L284.141 472.287Z" fill="#A0616A"/>
<path id="Vector_25" d="M280.186 467.227L310.713 467.226C313.268 467.226 315.799 467.729 318.16 468.706C320.52 469.684 322.665 471.116 324.471 472.922C326.278 474.728 327.711 476.872 328.689 479.232C329.666 481.592 330.169 484.121 330.169 486.675V487.307L280.187 487.309L280.186 467.227Z" fill="#2F2E41"/>
<path id="Vector_26" d="M302.133 455.79C301.953 455.79 301.772 455.782 301.59 455.765L280.137 454.203C279.269 454.122 278.432 453.844 277.689 453.389C276.946 452.933 276.318 452.314 275.853 451.577C275.387 450.841 275.097 450.008 275.005 449.141C274.913 448.275 275.021 447.399 275.321 446.582L304.031 382.096C304.236 381.521 304.32 380.91 304.277 380.302C304.234 379.693 304.066 379.099 303.782 378.558C303.5 378.011 303.105 377.53 302.623 377.147C302.141 376.764 301.583 376.487 300.987 376.334C287.486 372.806 252.848 363.412 222.864 352.421C210.018 347.711 201.927 340.906 198.817 332.193C194.716 320.707 200.782 310.232 201.043 309.792L201.246 309.448L229.461 312.012L260.048 314.613L327.078 350.547C332.695 353.583 336.961 358.624 339.028 364.664C341.094 370.704 340.809 377.3 338.228 383.139L307.325 452.419C306.878 453.423 306.15 454.275 305.229 454.873C304.307 455.471 303.232 455.79 302.133 455.79Z" fill="#2F2E41"/>
<path id="Vector_27" d="M252.795 198.244L219.921 186.868C219.921 186.868 199.283 202.719 209.197 242.042C214.373 262.334 212.865 283.754 204.898 303.121C203.939 305.517 202.833 307.852 201.587 310.113C201.587 310.113 238.255 354.355 272.393 321.489L259.117 257.655C259.117 257.655 279.98 215.309 252.795 198.244Z" fill="#2B234A"/>
<path id="Vector_28" d="M247.073 181.696C242.653 175.082 239.165 165.911 244.031 159.618C248.835 153.406 258.309 154.321 265.666 151.572C275.913 147.744 281.855 135.709 280.002 124.932C278.149 114.154 269.494 105.219 259.185 101.564C248.875 97.9082 237.25 99.0971 227.154 103.307C214.725 108.489 204.064 118.514 199.594 131.212C195.123 143.911 197.513 159.158 206.787 168.919C216.73 179.383 232.335 182.172 246.771 182.002" fill="#2F2E41"/>
<path id="Hair" d="M218.186 125.277C212.616 129.81 204.119 127.797 198.14 123.819C192.162 119.841 187.311 114.176 180.842 111.057C169.438 105.559 155.65 109.214 144.552 115.305C133.453 121.395 123.614 129.81 111.891 134.589C100.167 139.369 85.2069 139.605 76.3297 130.58C74.1451 136.908 73.9665 143.755 75.8183 150.188C77.6701 156.621 81.4621 162.326 86.6769 166.525C91.8916 170.723 98.2752 173.211 104.957 173.649C111.638 174.087 118.292 172.454 124.01 168.971C136.856 161.149 143.951 144.747 158.359 140.43C166.332 138.041 174.893 139.965 182.95 142.049C191.008 144.133 199.41 146.385 207.542 144.611C215.674 142.837 223.28 135.531 222.245 127.275L218.186 125.277Z" fill="#2F2E41"/>
<g id="Memo">
<path id="Vector_29" d="M319.279 415.285C315.99 393.933 315.99 372.203 319.279 350.85C319.487 349.579 320.14 348.423 321.121 347.589C322.102 346.754 323.348 346.295 324.636 346.292H375.051C375.868 346.289 376.674 346.473 377.41 346.83C378.145 347.186 378.789 347.705 379.293 348.348C379.808 348.999 380.168 349.76 380.345 350.571C380.522 351.383 380.511 352.224 380.314 353.03C375.598 372.778 375.598 393.357 380.314 413.105C380.511 413.912 380.522 414.753 380.345 415.564C380.168 416.376 379.808 417.136 379.293 417.788C378.789 418.43 378.145 418.95 377.41 419.306C376.674 419.662 375.868 419.846 375.051 419.843H324.636C323.348 419.841 322.102 419.381 321.121 418.547C320.14 417.712 319.487 416.556 319.279 415.285Z" fill="#5667EA"/>
<path id="Vector_30" d="M359.537 377.485H333.081C332.075 377.483 331.111 377.084 330.4 376.373C329.689 375.662 329.289 374.698 329.288 373.692V372.211C329.289 371.206 329.689 370.242 330.4 369.531C331.111 368.82 332.075 368.42 333.081 368.419H359.537C360.542 368.42 361.506 368.82 362.218 369.531C362.929 370.242 363.329 371.206 363.33 372.211V373.692C363.329 374.698 362.929 375.662 362.218 376.373C361.506 377.084 360.542 377.483 359.537 377.485Z" fill="white"/>
<path id="Vector_31" d="M359.537 393.089H333.081C332.075 393.088 331.111 392.688 330.4 391.977C329.689 391.266 329.289 390.302 329.288 389.297V387.815C329.289 386.809 329.689 385.845 330.4 385.134C331.111 384.423 332.075 384.024 333.081 384.022H359.537C360.542 384.024 361.506 384.423 362.218 385.134C362.929 385.845 363.329 386.809 363.33 387.815V389.297C363.329 390.302 362.929 391.266 362.218 391.977C361.506 392.688 360.542 393.088 359.537 393.089Z" fill="white"/>
</g>
<path id="Arm" d="M332.536 354.861C333.287 353.023 333.626 351.043 333.529 349.06C333.432 347.077 332.901 345.14 331.974 343.384C331.047 341.629 329.746 340.098 328.164 338.899C326.581 337.7 324.754 336.863 322.812 336.447L259.421 230.236L236.98 249.439L306.348 347.802C305.864 351.11 306.611 354.479 308.446 357.273C310.282 360.067 313.078 362.09 316.306 362.96C319.534 363.83 322.97 363.486 325.961 361.993C328.952 360.501 331.292 357.963 332.536 354.861Z" fill="#A0616A"/>
<path id="Vector_32" d="M272.017 247.455L245.275 262.652C244.514 263.084 243.669 263.348 242.797 263.424C241.925 263.5 241.047 263.388 240.223 263.095C239.398 262.801 238.647 262.333 238.019 261.723C237.392 261.113 236.903 260.375 236.587 259.56L225.503 230.974C223.313 227.069 222.761 222.456 223.968 218.146C225.175 213.835 228.042 210.179 231.941 207.979C235.84 205.778 240.452 205.213 244.767 206.407C249.083 207.6 252.748 210.456 254.961 214.347L273.804 238.41C274.343 239.099 274.727 239.896 274.931 240.747C275.134 241.598 275.151 242.483 274.982 243.342C274.812 244.2 274.46 245.012 273.948 245.722C273.436 246.432 272.777 247.023 272.017 247.455Z" fill="#2B234A"/>
<path id="Vector_33" d="M484.265 487.472C484.265 487.638 484.233 487.803 484.17 487.957C484.106 488.11 484.013 488.25 483.896 488.367C483.778 488.485 483.639 488.578 483.485 488.641C483.331 488.704 483.167 488.737 483 488.736H1.2644C0.929059 488.736 0.607434 488.603 0.370314 488.366C0.133193 488.129 0 487.807 0 487.472C0 487.137 0.133193 486.815 0.370314 486.578C0.607434 486.341 0.929059 486.208 1.2644 486.208H483C483.167 486.207 483.331 486.24 483.485 486.303C483.639 486.366 483.778 486.459 483.896 486.577C484.013 486.694 484.106 486.834 484.17 486.988C484.233 487.141 484.265 487.306 484.265 487.472Z" fill="#3F3D56"/>
</g>
<defs>
<clipPath id="clip0_13_545">
<rect width="676" height="490" fill="white"/>
</clipPath>
</defs>
</svg>
