<svg width="281" height="280" viewBox="0 0 281 280" fill="none" xmlns="http://www.w3.org/2000/svg">
<g clip-path="url(#clip0_29_386)">
<path d="M185.349 74.1827H139.228C138.218 74.1858 137.221 73.9582 136.312 73.5173C135.404 73.0764 134.608 72.4338 133.984 71.6384C133.35 70.8354 132.907 69.8982 132.688 68.8978C132.47 67.8975 132.483 66.8606 132.726 65.8659C136.976 48.0391 136.976 29.4607 132.725 11.6339C132.483 10.6393 132.47 9.6024 132.689 8.60216C132.907 7.60192 133.35 6.66469 133.984 5.86177C134.607 5.06631 135.404 4.42367 136.312 3.98277C137.221 3.54186 138.218 3.3143 139.228 3.31741H185.349C186.942 3.322 188.481 3.89238 189.692 4.92697C190.904 5.96156 191.71 7.39318 191.965 8.96685C195.001 28.706 195.001 48.7941 191.965 68.5333C191.71 70.1069 190.904 71.5386 189.692 72.5732C188.481 73.6077 186.942 74.1781 185.349 74.1827Z" fill="#E6E6E6"/>
<path d="M139.228 6.79201C138.743 6.79038 138.264 6.89951 137.827 7.11109C137.391 7.32267 137.008 7.63113 136.709 8.01301C136.401 8.40427 136.185 8.8608 136.08 9.34785C135.974 9.83491 135.981 10.3397 136.1 10.8237C140.478 29.1832 140.478 48.3167 136.1 66.6762C135.981 67.1602 135.974 67.6648 136.08 68.1518C136.185 68.6388 136.401 69.0952 136.709 69.4864C137.008 69.8684 137.391 70.1772 137.827 70.3888C138.264 70.6005 138.743 70.7096 139.228 70.708H185.349C186.114 70.7082 186.854 70.4367 187.437 69.9418C188.021 69.4468 188.41 68.7606 188.535 68.0053C191.517 48.616 191.517 28.884 188.535 9.49471C188.41 8.73938 188.021 8.05315 187.437 7.55821C186.854 7.06326 186.114 6.79174 185.349 6.792L139.228 6.79201Z" fill="white"/>
<path d="M175.285 23.4992H151.082C150.162 23.4982 149.28 23.1319 148.629 22.4805C147.979 21.8291 147.613 20.9459 147.612 20.0247V18.6669C147.613 17.7457 147.979 16.8625 148.629 16.2112C149.28 15.5598 150.162 15.1934 151.082 15.1924H175.285C176.205 15.1934 177.087 15.5598 177.737 16.2112C178.388 16.8625 178.754 17.7457 178.755 18.6669V20.0247C178.754 20.9459 178.388 21.8291 177.737 22.4805C177.087 23.1319 176.205 23.4982 175.285 23.4992Z" fill="#E6E6E6"/>
<path d="M175.285 40.6565H151.082C150.162 40.6555 149.28 40.2891 148.629 39.6377C147.979 38.9863 147.613 38.1031 147.612 37.1819V35.8241C147.613 34.9029 147.979 34.0198 148.629 33.3684C149.28 32.717 150.162 32.3506 151.082 32.3496H175.285C176.205 32.3506 177.087 32.717 177.737 33.3684C178.388 34.0198 178.754 34.9029 178.755 35.8241V37.1819C178.754 38.1031 178.388 38.9863 177.737 39.6377C177.087 40.2891 176.205 40.6555 175.285 40.6565Z" fill="#E6E6E6"/>
<path d="M175.285 57.8127H151.082C150.162 57.8117 149.28 57.4453 148.629 56.7939C147.979 56.1425 147.613 55.2594 147.612 54.3382V52.9804C147.613 52.0592 147.979 51.176 148.629 50.5246C149.28 49.8732 150.162 49.5069 151.082 49.5059H175.285C176.205 49.5069 177.087 49.8732 177.737 50.5246C178.388 51.176 178.754 52.0592 178.755 52.9804V54.3382C178.754 55.2594 178.388 56.1425 177.737 56.7939C177.087 57.4453 176.205 57.8117 175.285 57.8127Z" fill="#E6E6E6"/>
<path d="M272.107 118.194H225.986C224.976 118.197 223.979 117.97 223.07 117.529C222.162 117.088 221.365 116.445 220.742 115.65C220.108 114.847 219.664 113.91 219.446 112.91C219.228 111.909 219.241 110.872 219.483 109.878C223.734 92.0508 223.734 73.4724 219.483 55.6456C219.241 54.651 219.228 53.6141 219.446 52.6139C219.664 51.6137 220.108 50.6764 220.742 49.8735C221.365 49.078 222.162 48.4354 223.07 47.9945C223.979 47.5536 224.976 47.326 225.986 47.3291H272.107C273.7 47.3337 275.239 47.9041 276.45 48.9387C277.662 49.9733 278.467 51.4049 278.723 52.9786C281.759 72.7177 281.759 92.8058 278.723 112.545C278.467 114.119 277.662 115.55 276.45 116.585C275.239 117.619 273.7 118.19 272.107 118.194Z" fill="#E6E6E6"/>
<path d="M225.986 50.8047C225.501 50.8031 225.022 50.9122 224.586 51.1238C224.149 51.3354 223.767 51.6438 223.467 52.0257C223.159 52.417 222.944 52.8735 222.838 53.3605C222.733 53.8476 222.739 54.3524 222.858 54.8364C227.236 73.1959 227.236 92.3294 222.858 110.689C222.739 111.173 222.733 111.678 222.838 112.165C222.944 112.651 223.159 113.108 223.467 113.499C223.767 113.881 224.149 114.19 224.586 114.402C225.022 114.613 225.501 114.722 225.986 114.721H272.107C272.872 114.721 273.612 114.449 274.196 113.954C274.779 113.46 275.168 112.773 275.294 112.018C278.275 92.6287 278.275 72.8967 275.294 53.5074C275.168 52.7521 274.779 52.0658 274.196 51.5709C273.612 51.076 272.872 50.8044 272.107 50.8047L225.986 50.8047Z" fill="white"/>
<path d="M180.144 168.288H134.022C132.969 168.291 131.928 168.054 130.98 167.594C130.032 167.134 129.202 166.463 128.552 165.634C127.89 164.796 127.428 163.819 127.2 162.776C126.973 161.733 126.986 160.651 127.239 159.614C131.479 141.832 131.479 123.3 127.238 105.517C126.986 104.48 126.973 103.399 127.2 102.356C127.428 101.313 127.89 100.336 128.551 99.4984C129.202 98.6685 130.032 97.9981 130.98 97.5381C131.928 97.0781 132.969 96.8406 134.022 96.8438H180.144C181.805 96.8487 183.411 97.444 184.674 98.5236C185.938 99.6031 186.779 101.097 187.045 102.739C190.085 122.507 190.085 142.625 187.045 162.393C186.779 164.035 185.938 165.529 184.674 166.608C183.41 167.688 181.805 168.283 180.144 168.288Z" fill="#F2F2F2"/>
<path d="M262.042 76.1984H237.84C236.92 76.1974 236.038 75.8311 235.387 75.1797C234.737 74.5283 234.371 73.6451 234.37 72.7239V71.3661C234.371 70.4449 234.737 69.5618 235.387 68.9104C236.038 68.259 236.92 67.8926 237.84 67.8916H262.042C262.962 67.8926 263.845 68.259 264.495 68.9104C265.146 69.5618 265.512 70.4449 265.513 71.3661V72.724C265.512 73.6452 265.146 74.5283 264.495 75.1797C263.845 75.8311 262.962 76.1974 262.042 76.1984Z" fill="#E6E6E6"/>
<path d="M262.042 93.3557H237.84C236.92 93.3547 236.038 92.9883 235.387 92.3369C234.737 91.6855 234.371 90.8023 234.37 89.8812V88.5234C234.371 87.6022 234.737 86.719 235.387 86.0676C236.038 85.4162 236.92 85.0498 237.84 85.0488H262.042C262.962 85.0498 263.845 85.4162 264.495 86.0676C265.146 86.719 265.512 87.6022 265.513 88.5234V89.8812C265.512 90.8023 265.146 91.6855 264.495 92.3369C263.845 92.9883 262.962 93.3547 262.042 93.3557Z" fill="#E6E6E6"/>
<path d="M157.212 145.646C164.559 145.646 170.515 139.683 170.515 132.326C170.515 124.97 164.559 119.007 157.212 119.007C149.865 119.007 143.909 124.97 143.909 132.326C143.909 139.683 149.865 145.646 157.212 145.646Z" fill="white"/>
<path d="M163.574 130.589H158.947V125.956C158.947 125.495 158.765 125.053 158.439 124.728C158.114 124.402 157.672 124.219 157.212 124.219C156.752 124.219 156.311 124.402 155.985 124.728C155.66 125.053 155.477 125.495 155.477 125.956V130.589H150.85C150.39 130.589 149.948 130.772 149.623 131.098C149.298 131.424 149.115 131.866 149.115 132.326C149.115 132.787 149.298 133.229 149.623 133.555C149.948 133.881 150.39 134.064 150.85 134.064H155.477V138.697C155.477 139.157 155.66 139.599 155.985 139.925C156.311 140.251 156.752 140.434 157.212 140.434C157.672 140.434 158.114 140.251 158.439 139.925C158.765 139.599 158.947 139.157 158.947 138.697V134.064H163.574C164.035 134.064 164.476 133.881 164.801 133.555C165.127 133.229 165.31 132.787 165.31 132.326C165.31 131.866 165.127 131.424 164.801 131.098C164.476 130.772 164.035 130.589 163.574 130.589Z" fill="#E6E6E6"/>
<path d="M173.985 9.84488H149.693C149.003 9.8441 148.341 9.56929 147.854 9.08074C147.366 8.59219 147.091 7.9298 147.09 7.23888V2.606C147.091 1.91508 147.366 1.25269 147.854 0.764139C148.341 0.275588 149.003 0.000778648 149.693 0H173.985C174.675 0.000778648 175.337 0.275588 175.825 0.764139C176.313 1.25269 176.587 1.91508 176.588 2.606V7.23888C176.587 7.9298 176.313 8.59219 175.825 9.08074C175.337 9.56929 174.675 9.8441 173.985 9.84488Z" fill="#CCCCCC"/>
<path d="M261.9 54.4367H237.608C236.918 54.4359 236.256 54.1611 235.768 53.6725C235.28 53.184 235.006 52.5216 235.005 51.8307V47.1978C235.006 46.5069 235.28 45.8445 235.768 45.3559C236.256 44.8674 236.918 44.5926 237.608 44.5918H261.9C262.59 44.5926 263.251 44.8674 263.739 45.3559C264.227 45.8445 264.502 46.5069 264.503 47.1978V51.8307C264.502 52.5216 264.227 53.184 263.739 53.6725C263.251 54.1611 262.59 54.4359 261.9 54.4367Z" fill="#CCCCCC"/>
<path d="M51.2429 272.796H58.3339L60.5508 245.411H51.2417L51.2429 272.796Z" fill="#FFB8B8"/>
<path d="M49.4341 270.478L63.3985 270.478H63.3991C64.5678 270.478 65.725 270.708 66.8048 271.156C67.8845 271.603 68.8655 272.26 69.6919 273.087C70.5183 273.915 71.1738 274.897 71.6211 275.978C72.0683 277.059 72.2985 278.218 72.2985 279.388V279.677L49.4345 279.678L49.4341 270.478Z" fill="#2F2E41"/>
<path d="M13.069 272.796H20.1601L23.5338 245.411H13.0679L13.069 272.796Z" fill="#FFB8B8"/>
<path d="M11.2607 270.478L25.2252 270.478H25.2258C26.3945 270.478 27.5517 270.708 28.6314 271.156C29.7111 271.603 30.6922 272.26 31.5186 273.087C32.345 273.915 33.0005 274.897 33.4477 275.978C33.8949 277.059 34.1251 278.218 34.1251 279.388V279.677L11.2612 279.678L11.2607 270.478Z" fill="#2F2E41"/>
<path d="M14.3275 264.145C13.6041 264.145 12.9073 263.872 12.3754 263.382C12.0899 263.121 11.8599 262.805 11.6993 262.453C11.5388 262.101 11.4509 261.72 11.4409 261.333L8.59717 159.286L48.975 169.393L61.4332 206.814C63.0398 211.628 63.7352 216.699 63.4839 221.769L61.9369 258.042C61.9017 258.785 61.5818 259.486 61.0439 260C60.506 260.513 59.7913 260.799 59.0482 260.798H52.2759C51.5769 260.795 50.9023 260.54 50.3759 260.08C49.8496 259.619 49.5067 258.984 49.4101 258.291L44.5696 218.25C44.1467 215.127 43.0553 212.131 41.3702 209.469L31.8444 194.368C31.7807 194.267 31.6875 194.188 31.5774 194.142C31.4673 194.096 31.3458 194.086 31.2295 194.112C31.1132 194.138 31.0077 194.199 30.9275 194.287C30.8474 194.376 30.7964 194.487 30.7815 194.605L23.3061 261.254C23.2259 261.93 22.91 262.556 22.4141 263.022C21.9182 263.487 21.2741 263.763 20.5952 263.8L14.4921 264.14C14.4372 264.143 14.3824 264.145 14.3275 264.145Z" fill="#2F2E41"/>
<path d="M42.2556 93.2176C50.1012 93.2176 56.4614 86.8495 56.4614 78.9941C56.4614 71.1386 50.1012 64.7705 42.2556 64.7705C34.41 64.7705 28.0498 71.1386 28.0498 78.9941C28.0498 86.8495 34.41 93.2176 42.2556 93.2176Z" fill="#FFB8B8"/>
<path d="M48.7814 173.543C48.5369 173.543 48.2935 173.512 48.0567 173.451L7.99469 163.166C7.27843 162.982 6.65966 162.531 6.26562 161.905C5.87157 161.278 5.73218 160.524 5.87613 159.798L15.0766 110.174C15.6498 107.305 16.9098 104.619 18.7483 102.345C20.5869 100.072 22.9491 98.2791 25.632 97.121C28.2463 95.9625 31.1051 95.4661 33.9563 95.6757C36.8075 95.8853 39.5633 96.7944 41.9805 98.3227C42.5414 98.6731 43.1064 99.0551 43.6593 99.4583C45.8855 101.103 47.7009 103.241 48.9632 105.705C50.2255 108.17 50.9003 110.894 50.9348 113.663L51.6664 170.607C51.6713 170.99 51.6004 171.37 51.4577 171.725C51.3151 172.08 51.1035 172.404 50.8353 172.677C50.567 172.95 50.2474 173.167 49.8949 173.316C49.5424 173.465 49.1639 173.542 48.7814 173.543Z" fill="#5667EA"/>
<path d="M12.1169 174.127C11.639 173.423 11.3211 172.622 11.1856 171.782C11.0501 170.941 11.1004 170.081 11.3328 169.262C11.5651 168.443 11.974 167.685 12.5306 167.042C13.0872 166.398 13.778 165.885 14.5542 165.537L12.7723 144.92L22.2151 150.044L22.4595 168.837C22.9559 170.182 22.9426 171.662 22.422 172.997C21.9014 174.332 20.9097 175.43 19.6348 176.082C18.3599 176.734 16.8905 176.895 15.5049 176.535C14.1193 176.174 12.9138 175.318 12.1169 174.127Z" fill="#FFB8B8"/>
<path d="M15.4902 162.81C15.2237 162.81 14.9584 162.776 14.7003 162.71C14.1451 162.568 13.6385 162.279 13.2341 161.873C12.8297 161.466 12.5425 160.958 12.4029 160.402L7.76243 141.937C6.1407 135.489 6.91379 128.67 9.93788 122.749L19.6599 103.707C20.2745 101.427 21.7594 99.4799 23.7944 98.2862C25.8294 97.0926 28.2515 96.7475 30.5383 97.3256C31.6781 97.6137 32.7494 98.1256 33.6901 98.8315C34.6308 99.5373 35.4222 100.423 36.0184 101.438C36.6269 102.467 37.0248 103.606 37.1891 104.791C37.3533 105.975 37.2806 107.181 36.9751 108.337L23.1357 139.322L23.3001 157.875C23.3044 158.529 23.1078 159.169 22.737 159.708C22.3662 160.247 21.8391 160.659 21.2269 160.889L16.5955 162.611C16.2419 162.743 15.8676 162.81 15.4902 162.81Z" fill="#5667EA"/>
<path d="M81.7364 166.543C80.8916 166.446 80.0782 166.166 79.3536 165.72C78.629 165.275 78.0108 164.676 77.5424 163.965C77.0741 163.254 76.7671 162.45 76.643 161.607C76.5189 160.765 76.5807 159.906 76.8241 159.09L60.0547 146.993L70.0935 143.17L84.479 155.244C85.8205 155.744 86.9321 156.72 87.6032 157.986C88.2743 159.252 88.4583 160.72 88.1202 162.113C87.7822 163.506 86.9456 164.726 85.769 165.543C84.5924 166.359 83.1576 166.715 81.7364 166.543Z" fill="#FFB8B8"/>
<path d="M72.9578 157.709C72.4634 157.709 71.9758 157.593 71.5335 157.372L54.5294 148.849C48.5901 145.873 43.9326 140.838 41.4227 134.681L33.35 114.881C32.0253 112.927 31.5204 110.531 31.9443 108.207C32.3681 105.884 33.6868 103.821 35.616 102.463C36.5799 101.784 37.669 101.304 38.82 101.051C39.9709 100.798 41.1606 100.777 42.3197 100.99C43.4924 101.201 44.6116 101.643 45.6125 102.29C46.6134 102.938 47.476 103.777 48.1503 104.761L62.5782 135.477L76.7289 147.454C77.2272 147.878 77.5836 148.444 77.7498 149.077C77.916 149.711 77.884 150.379 77.6582 150.994L75.9406 155.631C75.7163 156.24 75.3112 156.764 74.7798 157.135C74.2456 157.509 73.6096 157.709 72.9578 157.709Z" fill="#5667EA"/>
<path d="M39.2725 93.4357C40.0273 93.7664 41.573 87.7446 40.8806 86.5402C39.8509 84.749 39.9118 84.7619 39.2283 83.5769C38.5447 82.3919 38.3918 80.7699 39.277 79.7272C40.1621 78.6845 42.2105 78.8228 42.6145 80.1301C42.3546 77.647 44.8077 75.651 47.2375 75.09C49.6674 74.5291 52.2304 74.8774 54.6737 74.3782C57.5092 73.7989 60.4594 71.4191 59.3281 68.2972C59.1339 67.7774 58.8433 67.2991 58.4714 66.8876C57.1643 65.4161 55.3359 64.7877 53.5482 64.1802C49.8292 62.9163 46.0084 61.6366 42.0834 61.7761C38.8494 61.9454 35.7348 63.055 33.1208 64.969C30.5068 66.883 28.5068 69.5185 27.3655 72.5529C27.095 73.312 26.8855 74.0915 26.7389 74.884C25.3917 82.1369 29.5982 89.2911 36.4305 92.053L39.2725 93.4357Z" fill="#2F2E41"/>
<path opacity="0.2" d="M22.499 158.296L22.8212 139.226L32.91 118.916L24.8126 139.764L22.499 158.296Z" fill="black"/>
<path d="M113.987 206.153L71.3953 188.435C70.4617 188.05 69.6281 187.456 68.958 186.7C68.2879 185.944 67.7988 185.045 67.5281 184.071C67.2498 183.086 67.1997 182.05 67.3816 181.042C67.5634 180.035 67.9725 179.082 68.5776 178.256C79.3344 163.427 86.4536 146.271 89.3593 128.175C89.5167 127.163 89.9024 126.201 90.4872 125.361C91.0719 124.521 91.8403 123.826 92.7339 123.328C93.6142 122.833 94.5958 122.546 95.6039 122.488C96.6119 122.429 97.6199 122.602 98.5512 122.993L141.143 140.711C142.611 141.327 143.814 142.445 144.537 143.866C145.259 145.287 145.454 146.919 145.088 148.47C140.327 167.865 132.629 186.415 122.261 203.478C121.422 204.832 120.13 205.845 118.614 206.335C117.099 206.825 115.459 206.76 113.987 206.153Z" fill="#E6E6E6"/>
<path d="M97.2196 126.203C96.7725 126.015 96.2884 125.932 95.8043 125.959C95.3202 125.987 94.8488 126.125 94.4259 126.363C93.9912 126.605 93.6176 126.944 93.3334 127.354C93.0493 127.763 92.8621 128.231 92.786 128.724C89.7935 147.36 82.4615 165.029 71.3833 180.302C71.0883 180.703 70.8887 181.167 70.7995 181.657C70.7104 182.147 70.7341 182.651 70.8689 183.131C70.999 183.599 71.2341 184.031 71.556 184.394C71.8779 184.757 72.2783 185.042 72.7267 185.227L115.318 202.945C116.024 203.239 116.812 203.272 117.54 203.04C118.269 202.807 118.891 202.322 119.296 201.673C129.48 184.913 137.041 166.691 141.718 147.641C141.891 146.895 141.795 146.112 141.446 145.431C141.097 144.749 140.517 144.214 139.811 143.921L97.2196 126.203Z" fill="white"/>
<path d="M119.898 165.644L97.5477 156.346C96.6985 155.992 96.0243 155.314 95.6732 154.463C95.322 153.612 95.3225 152.655 95.6746 151.804L96.1949 150.55C96.5488 149.7 97.2252 149.025 98.0756 148.673C98.926 148.322 99.8809 148.322 100.731 148.675L123.081 157.973C123.93 158.327 124.605 159.004 124.956 159.856C125.307 160.707 125.306 161.663 124.954 162.514L124.434 163.768C124.08 164.619 123.404 165.294 122.553 165.645C121.703 165.997 120.748 165.996 119.898 165.644Z" fill="#5667EA"/>
<path d="M113.323 181.488L90.973 172.19C90.1238 171.835 89.4496 171.158 89.0985 170.307C88.7473 169.455 88.7478 168.499 89.0999 167.648L89.6202 166.394C89.9741 165.544 90.6505 164.869 91.5009 164.517C92.3513 164.166 93.3062 164.166 94.1562 164.519L116.507 173.816C117.356 174.171 118.03 174.848 118.381 175.699C118.732 176.551 118.732 177.507 118.38 178.358L117.859 179.612C117.505 180.462 116.829 181.137 115.979 181.489C115.128 181.841 114.173 181.84 113.323 181.488Z" fill="#5667EA"/>
<path d="M128.854 143.377C128.519 143.377 128.188 143.312 127.878 143.186L105.357 134.069C104.717 133.809 104.207 133.306 103.937 132.67C103.668 132.034 103.661 131.317 103.919 130.676L105.654 126.381C105.913 125.74 106.415 125.229 107.05 124.959C107.686 124.689 108.402 124.683 109.042 124.942L131.564 134.059C132.203 134.318 132.713 134.821 132.983 135.457C133.252 136.093 133.259 136.811 133.001 137.451L131.267 141.747C131.072 142.228 130.738 142.64 130.308 142.93C129.879 143.22 129.372 143.376 128.854 143.377Z" fill="#CCCCCC"/>
<path d="M81.5526 280H0.578387C0.424989 280 0.277883 279.939 0.169414 279.83C0.0609454 279.722 0 279.574 0 279.421C0 279.267 0.0609454 279.12 0.169414 279.011C0.277883 278.903 0.424989 278.842 0.578387 278.842H81.5526C81.706 278.842 81.8531 278.903 81.9616 279.011C82.07 279.12 82.131 279.267 82.131 279.421C82.131 279.574 82.07 279.722 81.9616 279.83C81.8531 279.939 81.706 280 81.5526 280Z" fill="#CCCCCC"/>
</g>
<defs>
<clipPath id="clip0_29_386">
<rect width="281" height="280" fill="white"/>
</clipPath>
</defs>
</svg>
