<svg width="current" height="current" viewBox="0 0 668 1422" fill="none" xmlns="http://www.w3.org/2000/svg">
<path d="M320.801 107.163L332.683 95.5885C407.422 22.7864 511.859 -10.9579 615.067 4.34875C797.748 31.4421 923.877 201.498 896.783 384.179L787.583 1120.48C773.285 1216.89 719.756 1303.09 639.684 1358.66C551.71 1419.71 440.775 1437.53 338.11 1407.08L213.801 1370.22C119.401 1342.23 45.2603 1268.87 16.2662 1174.77L13.14 1164.63C-22.7821 1048.04 20.9859 921.627 121.303 852.214C209.987 790.851 255.5 683.973 238.28 577.512L214.33 429.436C195.187 311.08 234.918 190.821 320.801 107.163Z" fill="url(#paint0_linear_13_446)" fill-opacity="0.95" stroke="#E6E6E6" stroke-width="0.5" stroke-linecap="square"/>
<defs>
<linearGradient id="paint0_linear_13_446" x1="526.428" y1="-8.79724" x2="313.412" y2="1427.49" gradientUnits="userSpaceOnUse">
<stop stop-color="#5667EA"/>
<stop offset="1" stop-color="#2B234A"/>
</linearGradient>
</defs>
</svg>
