<svg width="589" height="494" viewBox="0 0 589 494" fill="none" xmlns="http://www.w3.org/2000/svg">
<g clip-path="url(#clip0_19_51)">
<path d="M542.253 484.486L533.459 484.485L529.276 450.522H542.254L542.253 484.486Z" fill="#9E616A"/>
<path d="M544.495 493.022L516.141 493.021V492.662C516.141 489.731 517.304 486.92 519.374 484.848C521.443 482.775 524.25 481.611 527.177 481.611L544.496 481.612L544.495 493.022Z" fill="#2F2E41"/>
<path d="M508.541 484.486L499.747 484.485L495.564 450.522H508.542L508.541 484.486Z" fill="#9E616A"/>
<path d="M510.783 493.022L482.429 493.021V492.662C482.429 489.731 483.592 486.92 485.662 484.848C487.732 482.775 490.539 481.611 493.465 481.611L510.784 481.612L510.783 493.022Z" fill="#2F2E41"/>
<path d="M128.63 491.708V218.917C128.63 217.237 129.296 215.626 130.483 214.438C131.669 213.25 133.278 212.583 134.956 212.583H163.188C164.866 212.583 166.475 213.25 167.661 214.438C168.848 215.626 169.514 217.237 169.514 218.917V492.419L128.63 491.708Z" fill="#3F3D56"/>
<path d="M221.875 492.563V275.658C221.875 273.977 222.541 272.366 223.728 271.178C224.914 269.99 226.523 269.323 228.201 269.323H256.433C258.111 269.323 259.72 269.99 260.906 271.178C262.093 272.366 262.759 273.977 262.759 275.658V492.096L221.875 492.563Z" fill="#3F3D56"/>
<path d="M56.1847 234.861C55.7691 234.861 55.3625 234.74 55.0139 234.514C54.6653 234.287 54.3897 233.965 54.2203 233.585C54.0509 233.205 53.995 232.784 54.0594 232.373C54.1238 231.961 54.3057 231.578 54.5831 231.268L148.98 125.838L241.88 178.075L335.332 16.834L430.534 95.2971C430.752 95.4768 430.933 95.6979 431.066 95.9477C431.199 96.1975 431.282 96.4711 431.309 96.7529C431.337 97.0346 431.308 97.3191 431.226 97.5899C431.144 97.8607 431.009 98.1126 430.829 98.3312C430.649 98.5498 430.429 98.7308 430.179 98.8638C429.929 98.9969 429.656 99.0794 429.375 99.1067C429.093 99.1339 428.809 99.1053 428.539 99.0226C428.268 98.9399 428.017 98.8046 427.799 98.6245L336.51 23.3864L243.472 183.913L149.881 131.288L57.7875 234.145C57.5858 234.37 57.3388 234.551 57.0626 234.674C56.7863 234.798 56.4872 234.861 56.1847 234.861Z" fill="#3F3D56"/>
<path d="M55.8268 252.817C66.9186 252.817 75.9103 243.813 75.9103 232.707C75.9103 221.6 66.9186 212.596 55.8268 212.596C44.7349 212.596 35.7432 221.6 35.7432 232.707C35.7432 243.813 44.7349 252.817 55.8268 252.817Z" fill="#5667EA"/>
<path d="M149.072 148.674C160.164 148.674 169.155 139.67 169.155 128.563C169.155 117.456 160.164 108.453 149.072 108.453C137.98 108.453 128.988 117.456 128.988 128.563C128.988 139.67 137.98 148.674 149.072 148.674Z" fill="#CCCCCC"/>
<path d="M242.317 201.104C253.409 201.104 262.401 192.1 262.401 180.994C262.401 169.887 253.409 160.883 242.317 160.883C231.225 160.883 222.233 169.887 222.233 180.994C222.233 192.1 231.225 201.104 242.317 201.104Z" fill="#E6E6E6"/>
<path d="M335.562 40.2209C346.654 40.2209 355.646 31.2171 355.646 20.1104C355.646 9.00375 346.654 0 335.562 0C324.47 0 315.479 9.00375 315.479 20.1104C315.479 31.2171 324.47 40.2209 335.562 40.2209Z" fill="#5667EA"/>
<path d="M514.88 189.997C525.972 189.997 534.964 180.993 534.964 169.886C534.964 158.78 525.972 149.776 514.88 149.776C503.788 149.776 494.796 158.78 494.796 169.886C494.796 180.993 503.788 189.997 514.88 189.997Z" fill="#5667EA"/>
<path d="M507.779 326.548C515.296 327.454 534.518 320.588 535.56 331.034C545.454 360.198 545.16 471.991 545.16 471.991L530.098 472.71C530.098 472.71 518.061 383.883 512.37 364.88C509.514 387.977 510.014 476.301 510.014 476.301L496.386 477.019C496.386 477.019 484.161 401.808 484.092 379.732C482.606 363.563 486.25 339.601 484.69 323.969C492.144 326.335 499.988 327.211 507.779 326.548Z" fill="#3F3D56"/>
<path d="M408.365 491.596V177.188C408.365 173.156 411.198 169.887 414.692 169.887H442.923C446.417 169.887 449.25 173.155 449.25 177.188V492.419L408.365 491.596Z" fill="#3F3D56"/>
<path d="M482.208 241.94C479.194 235.769 475.511 229.947 471.227 224.581C470.332 223.533 469.517 222.419 468.788 221.248C467.246 218.569 466.787 215.423 465.812 212.493C463.086 204.276 456.286 197.676 454.629 189.179C454.027 186.091 448.937 195.067 450.276 198.897C452.664 205.828 452.972 213.168 456.014 219.862C459.055 226.556 462.627 232.977 465.252 239.821C466.744 243.707 467.935 247.722 470.122 251.313C472.31 254.904 475.724 257.914 479.849 258.452C479.821 255.849 480.216 253.258 481.018 250.782C481.914 247.952 483.507 244.619 482.208 241.94Z" fill="#9E616A"/>
<path d="M527.332 246.594C527.148 241.516 527.939 236.449 529.663 231.669C530.323 229.838 531.098 227.978 531.033 226.031C530.94 224.221 530.079 222.562 529.297 220.925C526.6 215.286 524.707 209.311 522.842 203.349L519.256 192.109C518.086 191.251 524.915 190.953 526.371 192.971C531.134 199.593 534.741 207.199 538.514 214.432C539.477 216.155 540.297 217.954 540.967 219.811C541.889 222.821 542.325 225.958 542.258 229.105C542.258 234.987 541.484 240.848 540.68 246.68C540.171 250.336 539.504 254.315 536.743 256.735C533.873 253.058 530.99 249.467 527.332 246.594Z" fill="#9E616A"/>
<path d="M508.367 240.775C516.587 240.775 523.251 234.103 523.251 225.872C523.251 217.641 516.587 210.969 508.367 210.969C500.147 210.969 493.484 217.641 493.484 225.872C493.484 234.103 500.147 240.775 508.367 240.775Z" fill="#9E616A"/>
<path d="M496.268 211.003C496.101 210.551 496.064 210.061 496.16 209.588C496.256 209.115 496.482 208.679 496.813 208.329C497.185 208.035 497.678 207.926 498.077 207.646C498.643 207.169 499.107 206.582 499.439 205.92C500.456 204.495 501.944 203.477 503.639 203.047C505.334 202.616 507.126 202.8 508.698 203.567C511.158 204.856 512.643 207.437 514.831 209.175C515.941 210.076 517.229 210.744 518.346 211.645C520.584 213.58 522.175 216.157 522.904 219.026C523.63 221.877 524.053 224.795 524.168 227.735C524.284 228.616 524.25 229.512 524.066 230.382C523.84 231.112 523.502 231.802 523.065 232.429C520.816 235.84 517.853 238.938 514.139 240.698C510.426 242.458 505.909 242.745 502.247 240.903C501.878 240.753 501.561 240.5 501.334 240.172C501.126 239.674 501.076 239.124 501.191 238.597C501.39 236.512 500.978 234.414 500.006 232.559C499.324 231.195 498.302 230.021 497.757 228.609C497.25 227.028 497.033 225.369 497.116 223.711C497.052 219.415 497.343 215.137 496.268 211.003Z" fill="#2D293D"/>
<path d="M35.3838 492.024V340.232C35.3838 338.286 38.2163 336.707 41.7101 336.707H69.9419C73.4357 336.707 76.2682 338.287 76.2682 340.232V492.419L35.3838 492.024Z" fill="#3F3D56"/>
<path d="M588.283 494H0.717271C0.527039 494 0.344598 493.924 0.210083 493.79C0.0755689 493.655 0 493.472 0 493.282C0 493.091 0.0755689 492.909 0.210083 492.774C0.344598 492.639 0.527039 492.563 0.717271 492.563H588.283C588.473 492.563 588.655 492.639 588.79 492.774C588.924 492.909 589 493.091 589 493.282C589 493.472 588.924 493.655 588.79 493.79C588.655 493.924 588.473 494 588.283 494H588.283Z" fill="#E6E6E6"/>
<path d="M315.119 491.489V134.694C315.119 130.118 317.952 126.409 321.446 126.409H349.677C353.171 126.409 356.004 130.118 356.004 134.694V492.419L315.119 491.489Z" fill="#5667EA"/>
<path d="M449.86 197.058C453.425 197.058 456.315 194.163 456.315 190.593C456.315 187.023 453.425 184.129 449.86 184.129C446.294 184.129 443.404 187.023 443.404 190.593C443.404 194.163 446.294 197.058 449.86 197.058Z" fill="#A0616A"/>
<path d="M521.587 194.184C525.152 194.184 528.042 191.29 528.042 187.72C528.042 184.15 525.152 181.256 521.587 181.256C518.022 181.256 515.131 184.15 515.131 187.72C515.131 191.29 518.022 194.184 521.587 194.184Z" fill="#A0616A"/>
<path d="M537.273 267.739C537.903 267.162 543.038 237.089 543.008 236.412C542.929 232.707 531.64 228.475 529.38 229.948C527.249 231.337 523.537 247.274 521.148 250.177L518.621 245.749H498.538L497.32 248.012C494.685 246.423 492.315 244.957 491.469 244.472C491.178 244.275 490.862 244.119 490.529 244.009C488.441 243.541 486.482 242.619 484.79 241.308C483.141 240.037 475.485 226.723 473.433 227.075C471.116 227.463 463.302 234.228 463.391 240.721C464.375 240.7 477.173 266.324 477.352 267.279C478.335 271.316 481.58 330.182 482.627 332.926C487.452 332.459 483.643 331.626 488.312 332.926C493.34 334.326 498.648 332.811 503.834 332.25C505.993 332.036 508.163 331.94 510.332 331.963C518.222 331.999 529.484 332.437 537.123 334.398C537.166 329.385 532.769 318.539 531.141 313.806C530.927 312.392 530.934 310.952 531.162 309.54C531.37 307.809 535.57 269.653 537.273 267.739Z" fill="#E6E6E6"/>
</g>
<defs>
<clipPath id="clip0_19_51">
<rect width="589" height="494" fill="white"/>
</clipPath>
</defs>
</svg>
