<svg width="748" height="537" viewBox="0 0 748 537" fill="none" xmlns="http://www.w3.org/2000/svg">
<g clip-path="url(#clip0_167_2)">
<path d="M354.077 531.136H0V532.676H354.077V531.136Z" fill="#3F3D56"/>
<path d="M90.0065 525.767H100.073L104.863 486.916H90.0049L90.0065 525.767Z" fill="#FFB8B8"/>
<path d="M119.49 535.119L87.8497 535.121L87.8491 522.89L107.265 522.889C110.507 522.889 113.617 524.177 115.909 526.471C118.202 528.764 119.49 531.875 119.49 535.119Z" fill="#2F2E41"/>
<path d="M36.4434 523.831L46.4231 525.161L56.3035 487.285L41.5757 485.32L36.4434 523.831Z" fill="#FFB8B8"/>
<path d="M64.4326 537L33.0696 532.816L34.6852 520.693L53.9307 523.26C57.1445 523.689 60.0564 525.377 62.0259 527.954C63.9954 530.531 64.8611 533.785 64.4326 537Z" fill="#2F2E41"/>
<path d="M50.7452 365.31L107.406 367.774L104.943 511.552L90.1616 509.909L78.6652 412.14L51.5663 516.481L36.7852 514.017L50.7452 365.31Z" fill="#2F2E41"/>
<path d="M88.52 279.864L68.8118 275.836L56.4941 366.131C56.4941 366.131 92.6259 389.956 104.122 365.309L88.52 279.864Z" fill="#5667EA"/>
<path d="M79.9238 269.26C91.0628 269.26 100.093 260.226 100.093 249.081C100.093 237.937 91.0628 228.902 79.9238 228.902C68.7848 228.902 59.7549 237.937 59.7549 249.081C59.7549 260.226 68.7848 269.26 79.9238 269.26Z" fill="#FFB8B8"/>
<path d="M68.8112 274.935L40.0701 283.972C40.0701 283.972 54.0301 353.807 31.0371 389.957C31.0371 389.957 59.7783 420.355 72.0959 352.164C72.0959 352.164 81.9501 297.117 68.8112 274.935Z" fill="#2F2E41"/>
<path d="M88.5195 279.864L109.87 293.01C109.87 293.01 121.367 389.135 109.87 398.173C98.3737 407.21 88.5195 279.864 88.5195 279.864Z" fill="#2F2E41"/>
<path d="M118.747 412.112C117.872 411.28 117.19 410.267 116.748 409.142C116.307 408.018 116.118 406.81 116.194 405.605C116.27 404.4 116.609 403.226 117.187 402.165C117.766 401.105 118.569 400.185 119.542 399.469L110.861 371.424L125.505 375.679L131.503 401.659C132.597 403.373 133.024 405.429 132.703 407.437C132.383 409.445 131.338 411.266 129.765 412.555C128.193 413.843 126.203 414.51 124.172 414.428C122.141 414.347 120.211 413.523 118.747 412.112Z" fill="#FFB8B8"/>
<path d="M44.9855 404.002C44.0112 403.289 43.205 402.371 42.6237 401.312C42.0425 400.254 41.7002 399.08 41.6212 397.875C41.5421 396.67 41.7282 395.462 42.1662 394.337C42.6042 393.211 43.2835 392.195 44.1563 391.361L31.959 364.658L47.0268 367.003L56.2995 392.001C57.6034 393.561 58.29 395.545 58.2293 397.578C58.1687 399.611 57.3649 401.55 55.9703 403.03C54.5757 404.509 52.6872 405.425 50.6626 405.604C48.638 405.783 46.6181 405.213 44.9855 404.002Z" fill="#FFB8B8"/>
<path d="M47.4603 284.794L40.0697 283.973L21.1826 345.592L40.0697 388.314L54.8509 379.277L38.4273 343.948L51.5662 306.155L47.4603 284.794Z" fill="#2F2E41"/>
<path d="M105.764 292.188L109.87 293.01L129.578 389.136L116.439 393.243L100.837 336.554L105.764 292.188Z" fill="#2F2E41"/>
<path d="M66.0645 257.367C66.3364 255.384 67.1184 253.506 68.334 251.917C69.5495 250.327 71.1569 249.081 72.9987 248.3C76.881 246.707 81.2603 247.38 85.4452 247.684C89.6301 247.989 94.2892 247.725 97.3092 244.81C100.068 242.148 100.689 237.729 99.3563 234.133C98.024 230.537 95.0073 227.745 91.5802 226.028C88.0879 224.425 84.3461 223.436 80.5184 223.103C74.9254 222.427 69.182 222.34 63.7308 223.763C58.2795 225.186 59.6851 228.236 56.4906 232.879C53.2961 237.522 52.3392 243.847 54.7747 248.929C56.4043 252.33 59.3247 254.904 62.1686 257.38" fill="#2F2E41"/>
<path d="M517.208 480.057L517.207 478.517C520.268 478.516 523.375 478.453 526.443 478.33L526.505 479.869C523.417 479.993 520.289 480.056 517.208 480.057ZM507.913 479.879C504.836 479.758 501.713 479.574 498.633 479.331L498.754 477.795C501.814 478.038 504.916 478.22 507.973 478.34L507.913 479.879ZM535.786 479.311L535.663 477.775C538.718 477.531 541.81 477.22 544.852 476.852L545.037 478.382C541.974 478.752 538.861 479.064 535.786 479.311ZM489.381 478.413C486.311 478.045 483.213 477.611 480.173 477.123L480.417 475.602C483.437 476.087 486.514 476.518 489.563 476.883L489.381 478.413ZM554.242 477.082L553.996 475.561C557.016 475.073 560.072 474.514 563.082 473.902L563.388 475.411C560.359 476.028 557.282 476.59 554.242 477.082ZM471.025 475.462C467.995 474.849 464.942 474.165 461.951 473.433L462.317 471.936C465.289 472.665 468.321 473.343 471.33 473.952L471.025 475.462ZM572.461 473.37L572.092 471.875C575.073 471.141 578.075 470.337 581.014 469.485L581.442 470.965C578.483 471.822 575.461 472.632 572.461 473.37ZM452.966 471.037C449.998 470.179 447.01 469.251 444.086 468.278L444.573 466.816C447.477 467.783 450.445 468.705 453.393 469.557L452.966 471.037ZM590.318 468.195L589.83 466.735C592.736 465.763 595.663 464.718 598.529 463.629L599.076 465.068C596.19 466.165 593.244 467.218 590.318 468.195ZM435.302 465.152C432.414 464.057 429.505 462.886 426.655 461.672L427.258 460.255C430.089 461.461 432.979 462.624 435.848 463.711L435.302 465.152ZM607.675 461.6L607.071 460.183C609.885 458.98 612.711 457.705 615.469 456.393L616.13 457.784C613.354 459.105 610.508 460.389 607.675 461.6ZM418.158 457.845C415.362 456.517 412.559 455.115 409.826 453.678L410.543 452.315C413.257 453.742 416.041 455.135 418.818 456.454L418.158 457.845ZM624.428 453.629L623.711 452.266C626.423 450.839 629.138 449.339 631.783 447.808L632.554 449.141C629.892 450.682 627.158 452.192 624.428 453.629ZM401.672 449.179C398.989 447.627 396.31 446.004 393.708 444.355L394.531 443.054C397.116 444.692 399.778 446.304 402.442 447.846L401.672 449.179ZM640.496 444.328L639.672 443.027C642.252 441.391 644.841 439.677 647.364 437.931L648.239 439.198C645.699 440.955 643.094 442.681 640.496 444.328ZM385.946 439.216C383.4 437.456 380.861 435.624 378.399 433.77L379.324 432.54C381.77 434.381 384.293 436.201 386.821 437.949L385.946 439.216ZM655.773 433.76L654.847 432.53C657.288 430.694 659.732 428.776 662.111 426.832L663.085 428.024C660.69 429.982 658.23 431.912 655.773 433.76ZM371.077 428.026C368.687 426.072 366.304 424.043 363.994 421.994L365.014 420.842C367.31 422.877 369.677 424.893 372.051 426.833L371.077 428.026ZM670.163 421.998L669.142 420.846C671.435 418.812 673.719 416.704 675.929 414.581L676.995 415.693C674.771 417.829 672.472 419.951 670.163 421.998ZM357.158 415.686C354.938 413.552 352.725 411.339 350.582 409.11L351.692 408.042C353.821 410.257 356.019 412.455 358.225 414.575L357.158 415.686ZM683.571 409.116L682.462 408.048C684.584 405.84 686.692 403.556 688.729 401.258L689.881 402.281C687.83 404.593 685.708 406.893 683.571 409.116ZM344.276 402.278C342.223 399.963 340.195 397.582 338.248 395.199L339.44 394.224C341.374 396.591 343.389 398.957 345.427 401.255L344.276 402.278ZM695.913 395.198L694.721 394.223C696.667 391.843 698.586 389.396 700.428 386.95L701.658 387.876C699.804 390.339 697.871 392.802 695.913 395.198ZM332.511 387.888C330.655 385.423 328.825 382.889 327.072 380.353L328.338 379.476C330.08 381.995 331.897 384.513 333.74 386.961L332.511 387.888ZM707.105 380.328L705.839 379.452C707.588 376.922 709.306 374.328 710.946 371.741L712.246 372.565C710.595 375.169 708.866 377.781 707.105 380.328ZM321.94 372.609C320.291 370.006 318.671 367.334 317.125 364.666L318.457 363.894C319.992 366.545 321.602 369.199 323.24 371.784L321.94 372.609ZM717.073 364.6L715.741 363.828C717.282 361.164 718.786 358.437 720.212 355.726L721.574 356.444C720.139 359.173 718.624 361.917 717.073 364.6ZM312.636 356.537C311.201 353.812 309.802 351.02 308.478 348.237L309.868 347.575C311.184 350.339 312.573 353.113 313.998 355.819L312.636 356.537ZM725.744 348.11L724.353 347.448C725.671 344.675 726.951 341.835 728.156 339.007L729.573 339.612C728.359 342.458 727.07 345.318 725.744 348.11ZM304.66 339.781C303.447 336.944 302.279 334.05 301.187 331.179L302.626 330.631C303.711 333.482 304.871 336.357 306.075 339.175L304.66 339.781ZM733.056 330.961L731.616 330.415C732.708 327.534 733.754 324.597 734.725 321.688L736.184 322.175C735.208 325.105 734.155 328.061 733.056 330.961ZM298.057 322.419C297.077 319.491 296.144 316.503 295.285 313.539L296.763 313.11C297.617 316.054 298.544 319.022 299.517 321.93L298.057 322.419ZM738.948 313.291L737.468 312.864C738.318 309.925 739.12 306.922 739.853 303.937L741.347 304.304C740.61 307.309 739.802 310.333 738.948 313.291ZM292.875 304.554C292.135 301.555 291.448 298.502 290.83 295.48L292.339 295.171C292.952 298.174 293.635 301.207 294.369 304.186L292.875 304.554ZM743.381 295.228L741.872 294.921C742.481 291.921 743.037 288.862 743.526 285.831L745.045 286.076C744.554 289.128 743.994 292.207 743.381 295.228ZM289.155 286.329C288.662 283.289 288.223 280.19 287.851 277.12L289.379 276.935C289.749 279.985 290.185 283.062 290.675 286.083L289.155 286.329ZM746.34 276.862L744.811 276.679C745.177 273.63 745.486 270.537 745.728 267.485L747.263 267.607C747.019 270.679 746.708 273.793 746.34 276.862ZM286.918 267.865C286.669 264.789 286.48 261.665 286.355 258.58L287.892 258.517C288.017 261.582 288.205 264.685 288.452 267.741L286.918 267.865ZM747.816 258.323L746.278 258.262C746.398 255.193 746.46 252.084 746.46 249.023L746.459 248.513H747.999L747.999 249.02C748 252.104 747.938 255.233 747.816 258.323ZM287.7 249.278H286.16L286.161 249.02C286.161 246.015 286.219 242.972 286.334 239.98L287.872 240.039C287.758 243.012 287.7 246.035 287.7 249.023L287.7 249.278ZM746.256 239.276C746.129 236.218 745.938 233.115 745.687 230.053L747.222 229.927C747.474 233.01 747.667 236.133 747.794 239.212L746.256 239.276ZM288.412 230.815L286.877 230.694C287.119 227.61 287.426 224.496 287.79 221.437L289.319 221.619C288.957 224.657 288.652 227.751 288.412 230.815ZM744.751 220.861C744.379 217.823 743.94 214.745 743.444 211.714L744.964 211.465C745.463 214.517 745.905 217.615 746.278 220.674L744.751 220.861ZM290.594 212.468L289.074 212.224C289.562 209.175 290.118 206.094 290.729 203.07L292.238 203.375C291.631 206.379 291.079 209.438 290.594 212.468ZM741.769 202.627C741.152 199.617 740.465 196.585 739.729 193.615L741.224 193.244C741.965 196.235 742.656 199.287 743.277 202.317L741.769 202.627ZM294.247 194.357L292.752 193.991C293.484 190.993 294.288 187.969 295.142 185L296.622 185.426C295.773 188.375 294.975 191.379 294.247 194.357ZM737.326 184.693C736.469 181.752 735.54 178.785 734.563 175.877L736.023 175.386C737.006 178.314 737.942 181.301 738.804 184.262L737.326 184.693ZM299.355 176.6L297.895 176.115C298.869 173.182 299.918 170.224 301.014 167.324L302.454 167.869C301.365 170.75 300.323 173.687 299.355 176.6ZM731.444 167.179C730.35 164.314 729.186 161.441 727.985 158.638L729.4 158.031C730.609 160.852 731.781 163.745 732.882 166.629L731.444 167.179ZM305.904 159.273L304.487 158.67C305.697 155.825 306.982 152.964 308.307 150.168L309.698 150.827C308.382 153.605 307.105 156.447 305.904 159.273ZM724.183 150.242C722.865 147.481 721.473 144.709 720.045 142.002L721.406 141.283C722.844 144.008 724.246 146.798 725.572 149.578L724.183 150.242ZM313.831 142.545L312.467 141.829C313.902 139.093 315.414 136.347 316.96 133.668L318.293 134.438C316.757 137.099 315.256 139.827 313.831 142.545ZM715.575 133.934C714.036 131.283 712.424 128.63 710.784 126.05L712.083 125.223C713.734 127.821 715.357 130.492 716.907 133.16L715.575 133.934ZM323.078 126.521L321.777 125.697C323.428 123.085 325.155 120.471 326.909 117.929L328.176 118.804C326.434 121.329 324.719 123.925 323.078 126.521ZM705.678 118.362C703.932 115.844 702.111 113.328 700.267 110.883L701.495 109.955C703.352 112.416 705.185 114.949 706.942 117.484L705.678 118.362ZM333.579 111.3L332.349 110.375C334.204 107.904 336.134 105.439 338.085 103.047L339.278 104.02C337.339 106.397 335.422 108.846 333.579 111.3ZM694.56 103.626C692.618 101.256 690.6 98.8925 688.565 96.6017L689.715 95.5781C691.765 97.8843 693.795 100.263 695.75 102.65L694.56 103.626ZM345.262 96.9766L344.11 95.9561C346.154 93.6457 348.274 91.3437 350.412 89.1138L351.523 90.1802C349.399 92.395 347.293 94.6821 345.262 96.9766ZM682.293 89.8207C680.163 87.6093 677.962 85.414 675.752 83.2954L676.818 82.1831C679.042 84.3159 681.257 86.5259 683.401 88.752L682.293 89.8207ZM358.048 83.6406L356.981 82.5306C359.202 80.3921 361.499 78.2682 363.807 76.2174L364.829 77.3688C362.536 79.4061 360.255 81.5164 358.048 83.6406ZM668.956 77.0356C666.656 75.0009 664.286 72.9876 661.913 71.0522L662.886 69.8583C665.274 71.8069 667.66 73.8333 669.976 75.882L668.956 77.0356ZM371.853 71.3748L370.878 70.1835C373.266 68.2263 375.724 66.2938 378.183 64.4393L379.11 65.6689C376.667 67.5111 374.226 69.4311 371.853 71.3748ZM654.633 65.3549C652.177 63.5108 649.652 61.6935 647.13 59.9532L648.004 58.6852C650.543 60.4372 653.084 62.2666 655.557 64.123L654.633 65.3549ZM386.588 60.2582L385.711 58.9924C388.249 57.233 390.852 55.5044 393.449 53.8543L394.275 55.1546C391.695 56.7934 389.109 58.5104 386.588 60.2582ZM639.414 54.8561C636.819 53.2158 634.155 51.6068 631.497 50.0737L632.267 48.7395C634.942 50.2828 637.623 51.9027 640.237 53.5539L639.414 54.8561ZM402.158 50.3659L401.385 49.0332C404.047 47.4888 406.78 45.9757 409.506 44.5366L410.225 45.8986C407.516 47.3282 404.802 48.8313 402.158 50.3659ZM623.393 45.6132C620.674 44.188 617.889 42.7986 615.113 41.4836L615.771 40.0915C618.566 41.4152 621.371 42.814 624.107 44.249L623.393 45.6132ZM418.462 41.7626L417.799 40.372C420.575 39.048 423.418 37.7612 426.25 36.5474L426.856 37.9632C424.043 39.1687 421.219 40.4469 418.462 41.7626ZM606.669 37.6921C603.84 36.4899 600.949 35.3306 598.076 34.2453L598.62 32.8044C601.512 33.8968 604.423 35.0643 607.27 36.2744L606.669 37.6921ZM435.395 34.5074L434.846 33.068C437.727 31.9692 440.672 30.9141 443.6 29.9315L444.089 31.392C441.181 32.3678 438.256 33.4162 435.395 34.5074ZM589.346 31.1498C586.437 30.1846 583.469 29.2659 580.523 28.4194L580.948 26.9394C583.914 27.7915 586.902 28.7161 589.83 29.6878L589.346 31.1498ZM452.904 28.6312L452.474 27.1526C455.434 26.2907 458.455 25.4778 461.453 24.7358L461.823 26.231C458.845 26.9679 455.844 27.7757 452.904 28.6312ZM571.596 26.0497C568.624 25.3243 565.59 24.6494 562.581 24.0436L562.884 22.5334C565.914 23.1433 568.968 23.8232 571.961 24.5531L571.596 26.0497ZM470.83 24.1954L470.521 22.6868C473.539 22.0686 476.616 21.503 479.666 21.0056L479.914 22.5255C476.884 23.0199 473.828 23.5817 470.83 24.1954ZM553.492 22.404C550.465 21.9212 547.387 21.4933 544.344 21.133L544.525 19.6033C547.588 19.9662 550.687 20.3967 553.734 20.8834L553.492 22.404ZM489.057 21.2237L488.871 19.6947C491.933 19.3217 495.045 19.0054 498.12 18.7557L498.245 20.2907C495.19 20.5393 492.099 20.8529 489.057 21.2237ZM535.153 20.2305C532.101 19.9925 528.999 19.8128 525.933 19.6966L525.991 18.1571C529.078 18.2744 532.2 18.4553 535.272 18.6948L535.153 20.2305ZM507.464 19.7263L507.401 18.1876C510.479 18.0605 513.606 17.9935 516.696 17.9883L516.699 19.5285C513.629 19.5338 510.522 19.6003 507.464 19.7263Z" fill="#CCCCCC"/>
<path d="M435.539 393.206C517.585 393.206 584.097 326.661 584.097 244.574C584.097 162.486 517.585 95.9414 435.539 95.9414C353.492 95.9414 286.98 162.486 286.98 244.574C286.98 326.661 353.492 393.206 435.539 393.206Z" fill="#3F3D56"/>
<path d="M382.812 353.161C426.385 353.161 461.709 304.545 461.709 244.574C461.709 184.604 426.385 135.988 382.812 135.988C339.238 135.988 303.914 184.604 303.914 244.574C303.914 304.545 339.238 353.161 382.812 353.161Z" fill="white"/>
<path d="M356.658 302.233C368.819 302.233 378.677 286.718 378.677 267.578C378.677 248.439 368.819 232.923 356.658 232.923C344.497 232.923 334.639 248.439 334.639 267.578C334.639 286.718 344.497 302.233 356.658 302.233Z" fill="#3F3D56"/>
<path d="M727.412 176.201C735.489 176.201 742.037 169.65 742.037 161.569C742.037 153.488 735.489 146.937 727.412 146.937C719.335 146.937 712.787 153.488 712.787 161.569C712.787 169.65 719.335 176.201 727.412 176.201Z" fill="#5667EA"/>
<path d="M558.476 43.1264C570.379 43.1264 580.029 33.4723 580.029 21.5632C580.029 9.65418 570.379 0 558.476 0C546.573 0 536.924 9.65418 536.924 21.5632C536.924 33.4723 546.573 43.1264 558.476 43.1264Z" fill="#5667EA"/>
<path d="M544.197 492.261C552.274 492.261 558.822 485.71 558.822 477.629C558.822 469.548 552.274 462.997 544.197 462.997C536.12 462.997 529.572 469.548 529.572 477.629C529.572 485.71 536.12 492.261 544.197 492.261Z" fill="#5667EA"/>
</g>
<defs>
<clipPath id="clip0_167_2">
<rect width="748" height="537" fill="white"/>
</clipPath>
</defs>
</svg>
